<svg width="120" height="158" viewBox="0 0 120 158" fill="none" xmlns="http://www.w3.org/2000/svg">
<circle cx="60" cy="60" r="59" stroke="#FEFBF6" stroke-width="2"/>
<path d="M53.1047 44.7524C55.3118 57.0054 57.4209 84.181 48.1999 94.8591M48.1999 94.8591C47.2535 94.9649 46.2725 95.012 45.2571 94.9974C44.4111 94.9852 43.5851 94.9389 42.7796 94.8591M48.1999 94.8591C63.2542 93.177 69.5416 76.6692 65.7345 58.0852C62.4973 42.2833 50.7341 29.5266 45.2571 25C39.0035 28.6624 25.7606 40.2093 22.8178 58.0852C19.3205 79.3289 27.2389 93.3196 42.7796 94.8591M34.0987 76.603C34.2046 82.2719 36.0891 93.8596 42.7796 94.8591" stroke="#FEFBF6" stroke-width="2" stroke-linecap="round" stroke-linejoin="round"/>
<path d="M38.7583 35.8643C36.9191 41.1727 33.3631 53.4685 33.8536 60.1843" stroke="#FEFBF6" stroke-width="2" stroke-linecap="round" stroke-linejoin="round"/>
<path d="M65.3666 54.8763C70.5166 49.7736 83.6613 39.9879 95.0404 41.6669C98.2694 50.2262 101.588 71.0237 89.0321 85.7392C79.3187 97.123 70.0065 95.5484 64.263 91.7943M60.2166 88.2083C61.2067 89.4102 62.582 90.6956 64.263 91.7943M91.7297 59.3205C87.8468 69.9001 76.9173 91.2065 64.263 91.7943" stroke="#FEFBF6" stroke-width="2" stroke-linecap="round" stroke-linejoin="round"/>
<path d="M85.9666 46.4814C81.7567 50.1027 73.0671 58.2094 71.988 61.6661" stroke="#FEFBF6" stroke-width="2" stroke-linecap="round" stroke-linejoin="round"/>
<path d="M16.9 148.46L17.54 147.36C20.28 148.4 23.88 150.12 25.7 151.32L25 152.6C23.24 151.36 19.66 149.56 16.9 148.46ZM17.5 142.98H25.72V144.3H17.38C17.32 144.84 17.24 145.36 17.14 145.84H25.4V147.14H16.78C15.84 149.88 13.7 151.58 8.46 152.48C8.34 152.1 7.96 151.48 7.68 151.14C12.3 150.48 14.26 149.2 15.16 147.14H8.44V145.84H15.58C15.7 145.36 15.78 144.84 15.84 144.3H8V142.98H16.02V141.3H9.8V140H16.02V138.38H8.7V137.04H12.92C12.6 136.34 11.98 135.42 11.38 134.72L12.66 134.2C13.4 134.96 14.1 136 14.42 136.72L13.7 137.04H18.96C19.56 136.22 20.26 135.04 20.68 134.2L22.2 134.66C21.72 135.48 21.12 136.34 20.6 137.04H24.86V138.38H17.5V140H23.9V141.3H17.5V142.98ZM43.74 138.16L43.02 138.94C42.58 138.5 41.66 137.88 40.88 137.54L41.58 136.8C42.36 137.16 43.28 137.7 43.74 138.16ZM38.4 146.24L38.46 147.28C36.38 147.68 34.26 148.1 32.62 148.4L32.42 147.28C33.94 147.04 36.16 146.64 38.4 146.24ZM36.66 144.48V142.48H34.36V144.48H36.66ZM33.32 141.54H37.74V145.42H33.32V141.54ZM42.2 141.2L43.42 141.46C42.92 143.34 42.16 144.98 41.2 146.36C41.62 147.42 42.16 148.1 42.82 148.2C43.1 148.28 43.3 147.42 43.44 146.14C43.68 146.38 44.12 146.68 44.4 146.8C44.14 148.98 43.46 149.78 42.42 149.38C41.54 149.2 40.88 148.5 40.34 147.44C39.56 148.34 38.68 149.1 37.7 149.74C37.52 149.5 37.08 149.02 36.82 148.8C38 148.12 39 147.24 39.84 146.18C39.3 144.6 38.98 142.54 38.74 140.28H32.62V139.16H38.64C38.58 138.46 38.52 137.76 38.48 137.04H39.76C39.8 137.76 39.84 138.46 39.88 139.16H44.24V140.28H39.98C40.14 142 40.38 143.6 40.72 144.88C41.36 143.8 41.86 142.56 42.2 141.2ZM31.52 150.32H45.24V136.54H31.52V150.32ZM30.1 135.18H46.7V152.58H45.24V151.66H31.52V152.58H30.1V135.18ZM64.52 146.56H55.44V150.38H64.52V146.56ZM54 152.56V145.16H66V152.48H64.52V151.76H55.44V152.56H54ZM60.72 138.56V138.82C62.52 139.76 67.68 142.78 68.86 143.54L68.22 144.86C66.86 143.9 62.88 141.3 60.72 140.02V144.68H59.22V138.8C57.42 141.42 54.54 143.76 51.78 144.98C51.54 144.62 51.12 144.08 50.78 143.78C53.34 142.8 56.04 140.76 57.76 138.56H51.22V137.18H59.22V134.26H60.72V137.18H68.82V138.56H60.72ZM89.72 137.64V139.18H79.38V137.64H89.72ZM77.52 134.32L78.98 134.78C78.38 136.28 77.66 137.78 76.84 139.18V152.5H75.38V141.44C74.72 142.36 74 143.18 73.3 143.9C73.14 143.56 72.68 142.8 72.38 142.44C74.44 140.48 76.38 137.44 77.52 134.32ZM78.26 149.54H90.58V151.08H78.26V149.54ZM100.66 135.48L101.98 135.82C101.46 137.3 100.84 139.16 100.3 140.28L99.3 139.96C99.78 138.8 100.36 136.82 100.66 135.48ZM96.62 139.92L95.44 140.22C95.34 139.04 94.9 137.2 94.36 135.8L95.44 135.54C96.02 136.92 96.48 138.76 96.62 139.92ZM96.02 143.5L97.02 143.86C96.58 146.04 95.66 148.8 94.56 150.22C94.42 149.74 94.06 149.08 93.84 148.66C94.72 147.5 95.64 145.28 96.02 143.5ZM101.44 142.34H98.72V152.54H97.32V142.34H94.22V140.94H97.32V134.28H98.72V140.94H101.44V141.62C102.72 140.08 103.54 137.84 103.96 135.4L105.36 135.62C104.8 138.58 103.76 141.18 102.24 142.92C102.1 142.72 101.74 142.4 101.44 142.14V142.34ZM98.98 144.08L99.76 143.52C100.16 144.06 101.54 146.62 101.86 147.24L100.84 148.32C100.46 147.32 99.38 144.86 98.98 144.08ZM105.96 134.92H109.5C109.94 137.86 111.02 140.58 112.52 141.96C112.18 142.2 111.64 142.72 111.38 143.08C111.24 142.94 111.1 142.78 110.98 142.62C110.98 142.76 110.98 142.96 110.96 143.08C110.68 148.92 110.4 150.98 109.82 151.68C109.48 152.12 109.14 152.26 108.58 152.3C108.1 152.36 107.24 152.36 106.36 152.3C106.34 151.9 106.2 151.34 105.98 150.96C106.84 151.04 107.6 151.06 107.94 151.06C108.26 151.06 108.4 151.02 108.58 150.8C108.98 150.36 109.28 148.56 109.48 143.8H106.3C105.86 147.9 104.76 150.74 102.2 152.6C102.04 152.32 101.52 151.76 101.24 151.54C103.56 149.98 104.54 147.4 104.88 143.8H102.7V142.42H110.82C109.68 140.88 108.82 138.68 108.38 136.28H105.96V134.92Z" fill="#FEFBF6"/>
</svg>
