<svg width="136" height="158" viewBox="0 0 136 158" fill="none" xmlns="http://www.w3.org/2000/svg">
<circle cx="68" cy="60" r="59" stroke="#FEFBF6" stroke-width="2"/>
<path d="M85.7134 39.2305L96.5488 49.6817M96.5488 49.6817L107 39.2305M96.5488 49.6817V80.6512" stroke="#FEFBF6" stroke-width="2" stroke-linecap="round" stroke-linejoin="round"/>
<path d="M85.5596 80.9586V39" stroke="#FEFBF6" stroke-width="2" stroke-linecap="round" stroke-linejoin="round"/>
<path d="M29 80.8047V39.0767H107V80.8047H29Z" stroke="#FEFBF6" stroke-width="2" stroke-linecap="round" stroke-linejoin="round"/>
<path d="M46.0553 61.1174C46.1133 61.1341 46.1877 61.1466 46.2788 61.1549C46.3698 61.1591 46.4567 61.1612 46.5395 61.1612C46.7051 61.1612 46.8416 61.1278 46.9492 61.061C47.061 60.9901 47.1168 60.8816 47.1168 60.7355C47.1168 60.5978 47.0713 60.4997 46.9803 60.4413C46.8892 60.3829 46.7506 60.3537 46.5643 60.3537H46.0553V61.1174ZM46.0553 59.59H46.5085C46.6864 59.59 46.8147 59.5566 46.8934 59.4898C46.9761 59.4231 47.0175 59.325 47.0175 59.1956C47.0175 59.0829 46.9699 58.9932 46.8747 58.9264C46.7837 58.8597 46.645 58.8263 46.4588 58.8263C46.3967 58.8263 46.3243 58.8284 46.2415 58.8326C46.1629 58.8367 46.1008 58.843 46.0553 58.8513V59.59ZM46.4588 62C46.3885 62 46.3057 61.9979 46.2105 61.9937C46.1153 61.9896 46.016 61.9812 45.9125 61.9687C45.8132 61.9562 45.7139 61.9395 45.6146 61.9186C45.5152 61.9019 45.4242 61.8769 45.3414 61.8435C45.1138 61.7559 45 61.6035 45 61.3865V58.4632C45 58.3756 45.0228 58.3088 45.0683 58.2629C45.1179 58.2128 45.1842 58.1732 45.2669 58.144C45.4076 58.0939 45.5835 58.0584 45.7946 58.0376C46.0057 58.0125 46.2229 58 46.4464 58C46.9761 58 47.3838 58.0897 47.6693 58.2692C47.9549 58.4486 48.0977 58.7261 48.0977 59.1017C48.0977 59.2895 48.0439 59.4523 47.9363 59.59C47.8287 59.7235 47.6838 59.8216 47.5017 59.8842C47.7086 59.9426 47.8804 60.049 48.017 60.2034C48.1577 60.3579 48.228 60.5519 48.228 60.7856C48.228 61.1987 48.0749 61.5055 47.7686 61.7058C47.4665 61.9019 47.0299 62 46.4588 62Z" fill="white"/>
<path d="M52.6736 60.4977C52.6736 60.723 52.6343 60.9296 52.5557 61.1174C52.4812 61.301 52.3715 61.4596 52.2267 61.5931C52.0818 61.7225 51.9059 61.8226 51.699 61.8936C51.4921 61.9645 51.2583 62 50.9975 62C50.7368 62 50.503 61.9645 50.2961 61.8936C50.0891 61.8226 49.9133 61.7225 49.7684 61.5931C49.6236 61.4596 49.5118 61.301 49.4332 61.1174C49.3587 60.9296 49.3215 60.723 49.3215 60.4977V58.1064C49.367 58.0981 49.4394 58.0876 49.5387 58.0751C49.638 58.0584 49.7332 58.0501 49.8243 58.0501C49.9195 58.0501 50.0022 58.0584 50.0726 58.0751C50.1471 58.0876 50.2092 58.1127 50.2588 58.1502C50.3085 58.1878 50.3457 58.24 50.3706 58.3067C50.3954 58.3735 50.4078 58.4611 50.4078 58.5696V60.4789C50.4078 60.6792 50.4616 60.8357 50.5692 60.9484C50.6809 61.061 50.8237 61.1174 50.9975 61.1174C51.1755 61.1174 51.3183 61.061 51.4259 60.9484C51.5335 60.8357 51.5873 60.6792 51.5873 60.4789V58.1064C51.6328 58.0981 51.7052 58.0876 51.8045 58.0751C51.9039 58.0584 51.9991 58.0501 52.0901 58.0501C52.1853 58.0501 52.2681 58.0584 52.3384 58.0751C52.4129 58.0876 52.475 58.1127 52.5246 58.1502C52.5743 58.1878 52.6115 58.24 52.6364 58.3067C52.6612 58.3735 52.6736 58.4611 52.6736 58.5696V60.4977Z" fill="white"/>
<path d="M53.7852 58.9828C53.7562 58.9369 53.7293 58.8743 53.7045 58.795C53.6797 58.7157 53.6672 58.6322 53.6672 58.5446C53.6672 58.3818 53.7024 58.265 53.7728 58.1941C53.8473 58.1231 53.9425 58.0876 54.0583 58.0876H56.7649C56.7939 58.1335 56.8208 58.1961 56.8456 58.2754C56.8704 58.3547 56.8829 58.4382 56.8829 58.5258C56.8829 58.6886 56.8456 58.8054 56.7711 58.8764C56.7008 58.9473 56.6076 58.9828 56.4918 58.9828H55.8027V61.8748C55.7572 61.8873 55.6848 61.8998 55.5854 61.9124C55.4903 61.9249 55.3951 61.9311 55.2999 61.9311C55.2047 61.9311 55.1199 61.9228 55.0454 61.9061C54.975 61.8936 54.915 61.8685 54.8653 61.831C54.8157 61.7934 54.7784 61.7413 54.7536 61.6745C54.7288 61.6077 54.7164 61.5201 54.7164 61.4116V58.9828H53.7852Z" fill="white"/>
<path d="M57.7918 58.9828C57.7629 58.9369 57.736 58.8743 57.7111 58.795C57.6863 58.7157 57.6739 58.6322 57.6739 58.5446C57.6739 58.3818 57.7091 58.265 57.7794 58.1941C57.8539 58.1231 57.9491 58.0876 58.065 58.0876H60.7716C60.8005 58.1335 60.8274 58.1961 60.8523 58.2754C60.8771 58.3547 60.8895 58.4382 60.8895 58.5258C60.8895 58.6886 60.8523 58.8054 60.7778 58.8764C60.7074 58.9473 60.6143 58.9828 60.4984 58.9828H59.8094V61.8748C59.7638 61.8873 59.6914 61.8998 59.5921 61.9124C59.4969 61.9249 59.4017 61.9311 59.3065 61.9311C59.2113 61.9311 59.1265 61.9228 59.052 61.9061C58.9817 61.8936 58.9217 61.8685 58.872 61.831C58.8223 61.7934 58.7851 61.7413 58.7603 61.6745C58.7354 61.6077 58.723 61.5201 58.723 61.4116V58.9828H57.7918Z" fill="white"/>
<path d="M61.9117 58.6886C61.9117 58.5091 61.9634 58.3672 62.0669 58.2629C62.1704 58.1586 62.3111 58.1064 62.489 58.1064H64.5376C64.5665 58.1523 64.5914 58.2128 64.6121 58.2879C64.6369 58.3631 64.6493 58.4424 64.6493 58.5258C64.6493 58.6844 64.6141 58.7971 64.5438 58.8638C64.4776 58.9306 64.3886 58.964 64.2768 58.964H62.967V59.5462H64.3637C64.3927 59.5921 64.4175 59.6526 64.4382 59.7277C64.4631 59.7986 64.4755 59.8758 64.4755 59.9593C64.4755 60.1179 64.4424 60.2306 64.3762 60.2973C64.3099 60.3641 64.221 60.3975 64.1092 60.3975H62.967V61.0548H64.5624C64.5914 61.1007 64.6162 61.1612 64.6369 61.2363C64.6617 61.3114 64.6741 61.3907 64.6741 61.4742C64.6741 61.6328 64.639 61.7475 64.5686 61.8185C64.5024 61.8852 64.4134 61.9186 64.3017 61.9186H62.489C62.3111 61.9186 62.1704 61.8665 62.0669 61.7621C61.9634 61.6578 61.9117 61.5159 61.9117 61.3365V58.6886Z" fill="white"/>
<path d="M66.8894 60.6729V61.8748C66.8438 61.8873 66.7714 61.8998 66.6721 61.9124C66.5769 61.9249 66.4817 61.9311 66.3865 61.9311C66.2914 61.9311 66.2065 61.9228 66.132 61.9061C66.0617 61.8936 66.0017 61.8685 65.952 61.831C65.9065 61.7934 65.8713 61.7413 65.8465 61.6745C65.8216 61.6077 65.8092 61.5201 65.8092 61.4116V58.4632C65.8092 58.3756 65.832 58.3088 65.8775 58.2629C65.9272 58.2128 65.9934 58.1732 66.0762 58.144C66.2169 58.0939 66.3803 58.0584 66.5666 58.0376C66.7528 58.0125 66.9514 58 67.1625 58C67.7336 58 68.164 58.121 68.4537 58.3631C68.7434 58.6051 68.8883 58.9327 68.8883 59.3459C68.8883 59.6046 68.822 59.8258 68.6896 60.0094C68.5572 60.193 68.3999 60.3349 68.2178 60.4351C68.3668 60.6395 68.5137 60.8315 68.6586 61.011C68.8034 61.1904 68.9172 61.3532 69 61.4992C68.9586 61.6453 68.8821 61.758 68.7703 61.8372C68.6627 61.9124 68.5406 61.9499 68.4041 61.9499C68.313 61.9499 68.2344 61.9395 68.1682 61.9186C68.1019 61.8978 68.044 61.8685 67.9943 61.831C67.9447 61.7934 67.8992 61.7475 67.8578 61.6933C67.8164 61.639 67.7771 61.5806 67.7398 61.518L67.2184 60.6729H66.8894ZM67.2805 59.8404C67.4377 59.8404 67.5619 59.8007 67.6529 59.7214C67.744 59.638 67.7895 59.517 67.7895 59.3584C67.7895 59.1998 67.7378 59.0809 67.6343 59.0016C67.535 58.9181 67.3756 58.8764 67.1563 58.8764C67.0942 58.8764 67.0446 58.8785 67.0073 58.8826C66.9701 58.8868 66.9287 58.8931 66.8832 58.9014V59.8404H67.2805Z" fill="white"/>
<path d="M75.5 59.5C75.5 62.4397 73.5816 65.178 70.3175 67.2071C67.0608 69.2315 62.5304 70.5 57.5 70.5C52.4696 70.5 47.9392 69.2315 44.6825 67.2071C41.4184 65.178 39.5 62.4397 39.5 59.5C39.5 56.5603 41.4184 53.822 44.6825 51.7929C47.9392 49.7685 52.4696 48.5 57.5 48.5C62.5304 48.5 67.0608 49.7685 70.3175 51.7929C73.5816 53.822 75.5 56.5603 75.5 59.5Z" stroke="#FEFBF6"/>
<path d="M9.42 141.86L8.6 143.1C7.78 142.42 6.2 141.52 4.9 140.94L5.7 139.86C6.96 140.36 8.6 141.22 9.42 141.86ZM6.82 152.26L5.58 151.26C6.64 149.74 8.22 147.12 9.36 144.86L10.44 145.84C9.4 147.94 8 150.42 6.82 152.26ZM5.98 135.56L6.78 134.48C8.1 135.02 9.74 135.92 10.58 136.56L9.72 137.8C8.92 137.12 7.3 136.16 5.98 135.56ZM22.74 151.84L21.44 152.5C21.24 151.94 20.9 151.26 20.52 150.52C13.1 151.44 12.26 151.58 11.72 151.84C11.64 151.5 11.4 150.76 11.22 150.36C11.6 150.26 12 149.78 12.5 149.06C12.94 148.46 14.26 146.34 15.26 144.1H10.8V142.68H15.94V139.12H11.68V137.7H15.94V134.26H17.42V137.7H21.84V139.12H17.42V142.68H22.66V144.1H17.02C15.98 146.22 14.74 148.34 13.5 150.02L19.82 149.32C19.26 148.42 18.66 147.52 18.04 146.74L19.24 146.18C20.64 147.92 22.14 150.3 22.74 151.84ZM40.94 138.16L40.22 138.94C39.78 138.5 38.86 137.88 38.08 137.54L38.78 136.8C39.56 137.16 40.48 137.7 40.94 138.16ZM35.6 146.24L35.66 147.28C33.58 147.68 31.46 148.1 29.82 148.4L29.62 147.28C31.14 147.04 33.36 146.64 35.6 146.24ZM33.86 144.48V142.48H31.56V144.48H33.86ZM30.52 141.54H34.94V145.42H30.52V141.54ZM39.4 141.2L40.62 141.46C40.12 143.34 39.36 144.98 38.4 146.36C38.82 147.42 39.36 148.1 40.02 148.2C40.3 148.28 40.5 147.42 40.64 146.14C40.88 146.38 41.32 146.68 41.6 146.8C41.34 148.98 40.66 149.78 39.62 149.38C38.74 149.2 38.08 148.5 37.54 147.44C36.76 148.34 35.88 149.1 34.9 149.74C34.72 149.5 34.28 149.02 34.02 148.8C35.2 148.12 36.2 147.24 37.04 146.18C36.5 144.6 36.18 142.54 35.94 140.28H29.82V139.16H35.84C35.78 138.46 35.72 137.76 35.68 137.04H36.96C37 137.76 37.04 138.46 37.08 139.16H41.44V140.28H37.18C37.34 142 37.58 143.6 37.92 144.88C38.56 143.8 39.06 142.56 39.4 141.2ZM28.72 150.32H42.44V136.54H28.72V150.32ZM27.3 135.18H43.9V152.58H42.44V151.66H28.72V152.58H27.3V135.18ZM66.32 137.78L65.16 138.36C64.86 137.5 64.12 136.16 63.4 135.16L64.48 134.68C65.22 135.62 66.02 136.92 66.32 137.78ZM64.68 142.06L65.96 142.3C65.4 144.68 64.66 146.82 63.64 148.66C64 150.28 64.42 151.06 64.88 151.06C65.22 151.06 65.42 150.4 65.5 148.14C65.8 148.42 66.22 148.74 66.54 148.86C66.36 151.88 65.9 152.44 64.76 152.46C63.88 152.46 63.22 151.68 62.72 150.16C62.08 151.08 61.34 151.92 60.52 152.64C60.34 152.38 59.82 151.9 59.54 151.7C59.94 151.36 60.34 150.98 60.7 150.6C58.52 150.96 56.3 151.32 54.62 151.56L54.44 150.4C55.24 150.3 56.24 150.16 57.32 150V148.76H55.06V147.7H57.32V146.56C56.52 146.64 55.7 146.68 54.92 146.7C54.9 146.44 54.74 146.06 54.6 145.8C56.58 145.7 58.94 145.46 60.2 145.14L61.1 145.98C60.38 146.18 59.54 146.3 58.62 146.42V147.7H60.68V148.76H58.62V149.84L60.96 149.48L60.98 150.26C61.46 149.72 61.9 149.12 62.28 148.46C61.9 146.44 61.66 143.68 61.52 140.18H54.4V139.28C53.72 138.46 52.64 137.44 51.6 136.58C51.02 137.56 50.32 138.5 49.62 139.32H53.92L53.9 140.62H52.16V142.78H54.46V144.08H52.16V149.6L54.5 149.06L54.58 150.28C52.4 150.84 50.12 151.42 48.46 151.84L48.16 150.5C48.94 150.36 49.94 150.14 51.02 149.88V144.08H48.36V142.78H51.02V140.62H49.34V139.64C49.04 139.94 48.78 140.22 48.48 140.48C48.4 140.16 48.1 139.36 47.9 138.98C49.28 137.84 50.7 136.06 51.54 134.16L52.58 134.68C52.46 134.94 52.32 135.22 52.18 135.5C53.26 136.3 54.36 137.28 55.02 138.04L54.56 138.96H57.34V137.24H55.14V136.04H57.34V134.26H58.68V136.04H60.82V137.24H58.68V138.96H61.48C61.44 137.52 61.4 135.94 61.38 134.26H62.8C62.78 135.96 62.8 137.54 62.84 138.96H66.34V140.18H62.84C62.94 142.74 63.1 144.84 63.3 146.5C63.88 145.14 64.34 143.64 64.68 142.06ZM59.6 143.76V142.12H56.3V143.76H59.6ZM60.78 141.1V144.78H55.16V141.1H60.78ZM53.4 148.9L52.58 148.56C52.88 147.58 53.22 146 53.4 144.92L54.42 145.28C54.08 146.5 53.72 147.98 53.4 148.9ZM48.7 145.4L49.62 145.14C49.92 146.3 50.24 147.82 50.34 148.8L49.36 149.12C49.28 148.12 49 146.58 48.7 145.4ZM84.14 139.46V137.46H82.02V136.14H84.14V134.3H85.54V136.14H87.8V137.46H85.54V139.46H84.14ZM77.76 139.46V137.46H75.6V136.14H77.76V134.3H79.14V136.14H81.28V137.46H79.14V139.46H77.76ZM73.64 140.52V146.94C74.3 146.72 74.96 146.46 75.64 146.2L75.9 147.56C73.9 148.38 71.76 149.22 70.1 149.86L69.62 148.36C70.34 148.14 71.24 147.84 72.22 147.48V140.52H69.92V139.1H72.22V134.48H73.64V139.1H75.6V140.52H73.64ZM84.68 147.3H78.5V150.52H84.68V147.3ZM77.1 152.54V146.02H86.14V152.54H84.68V151.78H78.5V152.54H77.1ZM78.38 143.26H84.66V144.54H78.38V143.26ZM82.4 139.18L82.14 139.52C83.5 140.88 86.04 142.38 88 143.2C87.76 143.54 87.5 144.16 87.38 144.56C85.38 143.56 82.94 141.94 81.36 140.44C79.74 142.2 77.6 143.72 75.6 144.72C75.44 144.44 75.04 143.78 74.78 143.48C77.2 142.42 79.76 140.66 81.22 138.64L82.4 139.18ZM95.96 139.84L94.04 139.96C93.7 141.7 93.32 143.4 93 144.8C93.6 145.3 94.24 145.88 94.88 146.46C95.8 144.14 95.94 141.8 95.96 139.84ZM97.86 149.6L96.98 150.7C96.58 150.12 95.94 149.42 95.24 148.7C94.5 150 93.48 151.28 92.06 152.44C91.86 152.16 91.4 151.7 91.08 151.54C92.54 150.36 93.58 149.04 94.28 147.72C93.4 146.84 92.44 145.98 91.58 145.22C91.98 143.88 92.4 142 92.76 140.04L91.34 140.12L91.18 138.74L93 138.66C93.22 137.16 93.42 135.66 93.54 134.34L94.84 134.4C94.72 135.7 94.5 137.14 94.26 138.58L95.96 138.5V137.1H97.22V138.44L98.22 138.38V139.68L97.22 139.76C97.2 142.04 97.02 144.76 95.88 147.42C96.68 148.2 97.4 148.96 97.86 149.6ZM105.62 141.42H108.96C108.96 141.42 108.96 141.9 108.94 142.1C108.6 148.5 108.32 150.88 107.62 151.66C107.22 152.14 106.84 152.28 106.16 152.34C105.56 152.4 104.46 152.38 103.28 152.32C103.26 151.88 103.08 151.28 102.82 150.86C104.02 150.98 105.16 151 105.6 151C105.98 151 106.2 150.94 106.4 150.74C106.94 150.22 107.24 148.14 107.52 142.78H103.92C104.3 141.28 104.76 139.06 105.1 137.08H102.1C102 142.8 101.6 149.16 97.94 152.6C97.72 152.28 97.22 151.84 96.86 151.62C100.3 148.48 100.58 142.4 100.64 137.08H98.4V135.7H106.76C106.44 137.5 106.02 139.7 105.62 141.42ZM117.46 141.98L116.64 143.24C115.82 142.58 114.16 141.64 112.9 141.06L113.72 139.96C114.94 140.5 116.62 141.36 117.46 141.98ZM114.86 152.22L113.56 151.26C114.5 149.9 115.82 147.64 116.84 145.64L117.94 146.56C117.02 148.42 115.86 150.58 114.86 152.22ZM113.92 135.6L114.76 134.52C116.02 135.06 117.76 135.98 118.62 136.66L117.76 137.88C116.9 137.2 115.2 136.22 113.92 135.6ZM125.5 149.88H128.92V145.5H125.5V149.88ZM120.76 145.5V149.88H124.04V145.5H120.76ZM124.04 139.86H120.76V144.08H124.04V139.86ZM128.92 139.86H125.5V144.08H128.92V139.86ZM125.5 138.44H130.36V152.36H128.92V151.3H120.76V152.48H119.34V138.44H124.04V134.3H125.5V138.44Z" fill="#FEFBF6"/>
</svg>
