<svg width="240" height="240" viewBox="0 0 240 240" fill="none" xmlns="http://www.w3.org/2000/svg">
<rect x="0.5" y="0.5" width="239" height="239" rx="119.5" fill="#FFE2D4"/>
<rect x="0.5" y="0.5" width="239" height="239" rx="119.5" stroke="#FFE2D4"/>
<g clip-path="url(#clip0_284_236)">
<mask id="mask0_284_236" style="mask-type:luminance" maskUnits="userSpaceOnUse" x="71" y="67" width="98" height="106">
<mask id="path-2-outside-1_284_236" maskUnits="userSpaceOnUse" x="83.9426" y="67" width="72" height="70" fill="black">
<rect fill="white" x="83.9426" y="67" width="72" height="70"/>
<path d="M86.9426 135L105.048 97.5975V70H135.073V97.5975L153.113 135"/>
</mask>
<path d="M105.048 97.5975L107.748 98.9046C107.945 98.4971 108.048 98.0502 108.048 97.5975H105.048ZM105.048 70V67C103.391 67 102.048 68.3431 102.048 70H105.048ZM135.073 70H138.073C138.073 68.3431 136.729 67 135.073 67V70ZM135.073 97.5975H132.073C132.073 98.0488 132.174 98.4943 132.371 98.9008L135.073 97.5975ZM89.6429 136.307L107.748 98.9046L102.347 96.2904L84.2423 133.693L89.6429 136.307ZM108.048 97.5975V70H102.048V97.5975H108.048ZM105.048 73H135.073V67H105.048V73ZM132.073 70V97.5975H138.073V70H132.073ZM132.371 98.9008L150.411 136.303L155.815 133.697L137.775 96.2942L132.371 98.9008Z" fill="white" mask="url(#path-2-outside-1_284_236)"/>
<path d="M78.8316 170.533L78.8326 170.533C80.1476 171.168 81.588 171.5 83.0501 171.5H156.967C156.967 171.5 156.967 171.5 156.968 171.5C158.606 171.5 160.219 171.085 161.653 170.292C163.088 169.5 164.298 168.356 165.169 166.968C166.041 165.58 166.546 163.993 166.638 162.357C166.729 160.72 166.403 159.087 165.691 157.611L165.691 157.611L154.466 134.348C154.353 134.114 154.181 133.913 153.967 133.765L153.115 135C153.967 133.765 153.966 133.765 153.966 133.765L153.964 133.763L153.96 133.76L153.945 133.751L153.898 133.718C153.857 133.691 153.799 133.653 153.725 133.605C153.576 133.508 153.361 133.371 153.084 133.204C152.531 132.869 151.731 132.411 150.727 131.903C148.722 130.89 145.88 129.671 142.538 128.855C135.848 127.223 127.025 127.194 119.04 133.848C112.024 139.694 104.304 139.722 98.2027 138.23C95.1479 137.483 92.5313 136.36 90.6765 135.42C89.751 134.951 89.0205 134.53 88.5259 134.23C88.2788 134.08 88.0909 133.961 87.9675 133.88C87.9059 133.84 87.8603 133.81 87.8316 133.791L87.8011 133.77L87.7964 133.767L87.7955 133.766C87.7955 133.766 87.7954 133.766 87.7953 133.766C87.4352 133.517 86.9844 133.438 86.561 133.549C86.1373 133.661 85.7835 133.952 85.5925 134.346L74.335 157.599L74.335 157.599C73.2162 159.91 73.0614 162.572 73.9046 164.997C74.7479 167.423 76.5202 169.414 78.8316 170.533Z" fill="#555555" stroke="white" stroke-width="3" stroke-linejoin="round"/>
</mask>
<g mask="url(#mask0_284_236)">
<path d="M60 60H180V180H60V60Z" fill="#CA7C61"/>
</g>
<path d="M172 71L65.5 176.5" stroke="#CA7C61" stroke-width="3"/>
</g>
<defs>
<clipPath id="clip0_284_236">
<rect width="120" height="120" fill="white" transform="translate(60 60)"/>
</clipPath>
</defs>
</svg>
