<svg width="136" height="154" viewBox="0 0 136 154" fill="none" xmlns="http://www.w3.org/2000/svg">
<path d="M58.2886 85.6928C34.0412 85.4394 28.5998 65.485 29.0223 56.0508H107.172C103.349 87.9458 88.7046 86.0107 58.2886 85.6928Z" stroke="#FEFBF6" stroke-width="2" stroke-linejoin="round"/>
<path d="M34.3026 56.0512C40.2518 48.6939 55.3606 34.1905 68.2025 35.0354C81.0443 35.8802 96.2236 49.398 102.208 56.0512" stroke="#FEFBF6" stroke-width="2" stroke-linejoin="round"/>
<circle cx="68" cy="60" r="59" stroke="#FEFBF6" stroke-width="2"/>
<path d="M58.7736 66.7394L65.8827 70.8944M58.7736 66.7394L69.2857 61L76.3949 64.9085M58.7736 66.7394L55 72.0211M65.8827 70.8944L76.3949 64.9085M65.8827 70.8944V77.4085M76.3949 64.9085L80 70.1197M65.8827 81L80 73.8521V70.1197M65.8827 81L55 75.507V72.0211M65.8827 81V77.4085M80 70.1197L65.8827 77.4085M55 72.0211L65.8827 77.4085M66.2534 64.5211L65.1078 68.2535M69.7911 63.2535L68.4771 66.7394" stroke="#FEFBF6" stroke-width="1.5" stroke-linecap="round" stroke-linejoin="round"/>
<path d="M9.42 142.86L8.6 144.1C7.78 143.42 6.2 142.52 4.9 141.94L5.7 140.86C6.96 141.36 8.6 142.22 9.42 142.86ZM6.82 153.26L5.58 152.26C6.64 150.74 8.22 148.12 9.36 145.86L10.44 146.84C9.4 148.94 8 151.42 6.82 153.26ZM5.98 136.56L6.78 135.48C8.1 136.02 9.74 136.92 10.58 137.56L9.72 138.8C8.92 138.12 7.3 137.16 5.98 136.56ZM22.74 152.84L21.44 153.5C21.24 152.94 20.9 152.26 20.52 151.52C13.1 152.44 12.26 152.58 11.72 152.84C11.64 152.5 11.4 151.76 11.22 151.36C11.6 151.26 12 150.78 12.5 150.06C12.94 149.46 14.26 147.34 15.26 145.1H10.8V143.68H15.94V140.12H11.68V138.7H15.94V135.26H17.42V138.7H21.84V140.12H17.42V143.68H22.66V145.1H17.02C15.98 147.22 14.74 149.34 13.5 151.02L19.82 150.32C19.26 149.42 18.66 148.52 18.04 147.74L19.24 147.18C20.64 148.92 22.14 151.3 22.74 152.84ZM39.22 140.34V138.36H35.98V137.02H39.22V135.26H40.68V137.02H44.42V138.36H40.68V140.34H39.22ZM30.44 140.32V138.36H26.88V137.02H30.44V135.26H31.9V137.02H35.16V138.36H31.9V140.32H30.44ZM44.34 147.08H36.8C38.24 149.84 40.98 151.54 44.88 152.22C44.54 152.52 44.14 153.12 43.98 153.52C40 152.68 37.28 150.82 35.68 147.74C34.8 149.94 32.62 152.06 27.4 153.58C27.22 153.26 26.82 152.7 26.5 152.42C31.76 151 33.7 149.06 34.38 147.08H26.9V145.68H34.72C34.76 145.24 34.78 144.78 34.78 144.34V143.2H28.34V141.84H34.78V139.66H36.24V141.84H42.98V143.2H36.24V144.36C36.24 144.78 36.22 145.24 36.18 145.68H44.34V147.08ZM52.24 140.72L50.62 140.9C50.32 142.7 49.96 144.44 49.66 145.84C50.14 146.32 50.68 146.84 51.18 147.36C52 145.04 52.2 142.7 52.24 140.72ZM53.58 149.96L52.7 150.94C52.4 150.54 52 150.08 51.56 149.56C50.9 150.92 50.02 152.24 48.84 153.44C48.66 153.18 48.22 152.8 47.92 152.64C49.16 151.38 50.06 150 50.7 148.6C49.92 147.78 49.1 146.96 48.38 146.24C48.74 144.88 49.12 143 49.46 141.02L48.14 141.16L47.98 139.74C48.48 139.72 49.04 139.7 49.68 139.66C49.88 138.16 50.08 136.62 50.18 135.3L51.36 135.36C51.24 136.66 51.04 138.12 50.82 139.6L52.26 139.52V138.1H53.42V139.46L54.28 139.42L54.26 140.5L53.42 140.6C53.36 142.9 53.14 145.62 52.1 148.3C52.7 148.92 53.22 149.5 53.58 149.96ZM56.72 145.7H58.5C58.52 144.7 58.52 143.56 58.52 142.24H56.82V143.28C56.82 144.02 56.8 144.86 56.72 145.7ZM56.82 137.58V140.94H58.54V137.58H56.82ZM59.76 136.24V136.98C59.74 148.3 59.76 151.84 59.28 152.7C59 153.24 58.66 153.4 58.18 153.48C57.68 153.54 57.04 153.54 56.34 153.5C56.3 153.08 56.2 152.52 55.98 152.14C56.7 152.18 57.32 152.18 57.64 152.18C57.88 152.2 58.02 152.14 58.18 151.8C58.36 151.44 58.44 150.12 58.48 147H56.58C56.24 149.32 55.46 151.74 53.76 153.58C53.6 153.3 53.14 152.82 52.9 152.64C54.38 151.02 55.08 149 55.36 147H53.98V145.7H55.52C55.58 144.86 55.6 144.04 55.6 143.28V142.24H54.22V140.94H55.6V137.58H54.12V136.24H59.76ZM65.28 136.14L66.2 136.7C65.64 138.6 64.9 141.04 64.24 142.88C65.66 144.72 65.98 146.34 65.98 147.76C65.98 148.92 65.78 149.86 65.24 150.26C64.98 150.48 64.64 150.58 64.26 150.64C63.9 150.68 63.46 150.7 63.06 150.66C63.06 150.3 62.94 149.76 62.74 149.38C63.12 149.42 63.46 149.42 63.74 149.42C63.98 149.4 64.2 149.32 64.34 149.2C64.64 148.94 64.72 148.28 64.72 147.58C64.72 146.34 64.42 144.8 63.02 143C63.62 141.26 64.22 138.98 64.64 137.4H62.2V153.52H60.92V136.2H65.08L65.28 136.14ZM78.68 142.52H73.46V147.08H78.68V142.52ZM80.14 148.5H73.46V150.1H72.02V141.08H80.14V148.5ZM87.68 136.68V138.16H85.22V151.4C85.22 152.48 84.96 153 84.2 153.22C83.4 153.5 82.02 153.5 80.06 153.5C79.96 153.08 79.66 152.34 79.42 151.92C81.02 152 82.66 151.98 83.12 151.96C83.56 151.94 83.7 151.8 83.7 151.38V138.16H69.98V136.68H87.68ZM100.28 142.52H95.06V147.08H100.28V142.52ZM101.74 148.5H95.06V150.1H93.62V141.08H101.74V148.5ZM109.28 136.68V138.16H106.82V151.4C106.82 152.48 106.56 153 105.8 153.22C105 153.5 103.62 153.5 101.66 153.5C101.56 153.08 101.26 152.34 101.02 151.92C102.62 152 104.26 151.98 104.72 151.96C105.16 151.94 105.3 151.8 105.3 151.38V138.16H91.58V136.68H109.28ZM119.46 136.48L120.78 136.82C120.26 138.3 119.64 140.16 119.1 141.28L118.1 140.96C118.58 139.8 119.16 137.82 119.46 136.48ZM115.42 140.92L114.24 141.22C114.14 140.04 113.7 138.2 113.16 136.8L114.24 136.54C114.82 137.92 115.28 139.76 115.42 140.92ZM114.82 144.5L115.82 144.86C115.38 147.04 114.46 149.8 113.36 151.22C113.22 150.74 112.86 150.08 112.64 149.66C113.52 148.5 114.44 146.28 114.82 144.5ZM120.24 143.34H117.52V153.54H116.12V143.34H113.02V141.94H116.12V135.28H117.52V141.94H120.24V142.62C121.52 141.08 122.34 138.84 122.76 136.4L124.16 136.62C123.6 139.58 122.56 142.18 121.04 143.92C120.9 143.72 120.54 143.4 120.24 143.14V143.34ZM117.78 145.08L118.56 144.52C118.96 145.06 120.34 147.62 120.66 148.24L119.64 149.32C119.26 148.32 118.18 145.86 117.78 145.08ZM124.76 135.92H128.3C128.74 138.86 129.82 141.58 131.32 142.96C130.98 143.2 130.44 143.72 130.18 144.08C130.04 143.94 129.9 143.78 129.78 143.62C129.78 143.76 129.78 143.96 129.76 144.08C129.48 149.92 129.2 151.98 128.62 152.68C128.28 153.12 127.94 153.26 127.38 153.3C126.9 153.36 126.04 153.36 125.16 153.3C125.14 152.9 125 152.34 124.78 151.96C125.64 152.04 126.4 152.06 126.74 152.06C127.06 152.06 127.2 152.02 127.38 151.8C127.78 151.36 128.08 149.56 128.28 144.8H125.1C124.66 148.9 123.56 151.74 121 153.6C120.84 153.32 120.32 152.76 120.04 152.54C122.36 150.98 123.34 148.4 123.68 144.8H121.5V143.42H129.62C128.48 141.88 127.62 139.68 127.18 137.28H124.76V135.92Z" fill="#FEFBF6"/>
</svg>
