<svg width="481" height="481" viewBox="0 0 481 481" fill="none" xmlns="http://www.w3.org/2000/svg">
<path fill-rule="evenodd" clip-rule="evenodd" d="M248.817 479.021C243.417 478.221 239.317 473.821 238.517 468.421H238.617C230.117 413.622 187.017 370.321 132.417 361.622C124.717 360.421 118.517 354.621 116.717 347.021C105.017 296.721 63.7172 257.821 12.2172 249.621C6.956 248.827 2.58167 244.88 1.63753 239.638C1.63079 239.6 1.62423 239.563 1.61785 239.525C1.61763 239.524 1.61741 239.523 1.6172 239.521C-0.3328 228.521 -0.507797 217.321 1.02971 206.359C2.56721 195.396 5.81721 184.671 10.7172 174.621L47.4172 99.1215C56.2984 80.8152 70.1896 65.5477 87.3787 55.0309C89.1568 53.9429 90.9703 52.9058 92.8172 51.9215L166.817 12.4215C179.185 5.86289 192.606 1.84034 206.325 0.500045C214.569 -0.305417 222.921 -0.142186 231.217 1.02147C236.617 1.82149 240.717 6.22149 241.517 11.6215H241.417C249.917 66.4215 293.017 109.721 347.617 118.421C355.317 119.621 361.517 125.421 363.317 133.021C375.017 183.321 416.317 222.221 467.817 230.421C473.068 231.214 477.435 235.148 478.391 240.374C478.4 240.423 478.409 240.472 478.417 240.522C482.317 262.522 479.117 285.322 469.317 305.421L432.617 380.921C424.042 398.597 410.797 413.439 394.422 423.907C392.083 425.403 389.68 426.809 387.217 428.122L313.217 467.622C293.417 478.122 270.917 482.122 248.817 479.021ZM192.017 128.021C200.504 128.021 208.643 131.393 214.645 137.394C220.646 143.395 224.017 151.535 224.017 160.021C224.017 168.508 220.646 176.648 214.645 182.649C208.643 188.65 200.504 192.021 192.017 192.021C183.53 192.021 175.391 188.65 169.39 182.649C163.389 176.648 160.017 168.508 160.017 160.021C160.017 151.535 163.389 143.395 169.39 137.394C175.391 131.393 183.53 128.021 192.017 128.021ZM128.017 320.021C128.017 311.535 131.389 303.395 137.39 297.394C143.391 291.393 151.53 288.021 160.017 288.021C168.504 288.021 176.643 291.393 182.645 297.394C188.646 303.395 192.017 311.535 192.017 320.021C192.017 328.508 188.646 336.648 182.645 342.649C176.643 348.65 168.504 352.021 160.017 352.021C151.53 352.021 143.391 348.65 137.39 342.649C131.389 336.648 128.017 328.508 128.017 320.021ZM352.017 256.021C360.504 256.021 368.643 259.393 374.645 265.394C380.646 271.395 384.017 279.535 384.017 288.021C384.017 296.508 380.646 304.648 374.645 310.649C368.643 316.65 360.504 320.021 352.017 320.021C343.53 320.021 335.391 316.65 329.39 310.649C323.389 304.648 320.017 296.508 320.017 288.021C320.017 279.535 323.389 271.395 329.39 265.394C335.391 259.393 343.53 256.021 352.017 256.021Z" fill="#BDA074"/>
</svg>
