<svg width="210" height="66" viewBox="0 0 210 66" fill="none" xmlns="http://www.w3.org/2000/svg">
<path fill-rule="evenodd" clip-rule="evenodd" d="M24 0C10.7452 0 0 10.7452 0 24V42C0 55.2548 10.7452 66 24 66H186C186.289 66 186.576 65.9949 186.863 65.9848L186.844 66H209.465L201.899 59.9792C206.867 55.582 210 49.1568 210 42V24C210 10.7452 199.255 0 186 0H24Z" fill="#FEFBF6"/>
<path d="M28.23 17.704C28.87 17.704 29.462 17.7947 30.006 17.976C30.55 18.1573 31.03 18.392 31.446 18.68C31.862 18.968 32.1873 19.2773 32.422 19.608L31.302 20.776C30.8753 20.3707 30.406 20.04 29.894 19.784C29.382 19.5173 28.8273 19.384 28.23 19.384C27.4727 19.384 26.7847 19.56 26.166 19.912C25.558 20.264 25.078 20.744 24.726 21.352C24.374 21.9493 24.198 22.632 24.198 23.4C24.198 24.1573 24.3847 24.8453 24.758 25.464C25.1313 26.0827 25.6273 26.5733 26.246 26.936C26.8753 27.2987 27.558 27.48 28.294 27.48C28.8273 27.48 29.3287 27.3787 29.798 27.176C30.2673 26.9627 30.646 26.6747 30.934 26.312C31.2327 25.9493 31.382 25.5333 31.382 25.064C31.382 25.0107 31.382 24.9787 31.382 24.968H28.198V23.256H33.158C33.1793 23.416 33.1953 23.576 33.206 23.736C33.2273 23.896 33.238 24.056 33.238 24.216C33.238 24.8027 33.1473 25.3787 32.966 25.944C32.7953 26.5093 32.5233 27 32.15 27.416C31.7233 27.9493 31.1687 28.376 30.486 28.696C29.814 29.0053 29.0673 29.16 28.246 29.16C27.4353 29.16 26.678 29.016 25.974 28.728C25.27 28.4293 24.6513 28.0187 24.118 27.496C23.5847 26.9733 23.1687 26.3653 22.87 25.672C22.582 24.968 22.438 24.2107 22.438 23.4C22.438 22.5893 22.582 21.8427 22.87 21.16C23.1687 20.4667 23.5793 19.864 24.102 19.352C24.6353 18.8293 25.254 18.424 25.958 18.136C26.662 17.848 27.4193 17.704 28.23 17.704ZM41.44 25.656V20.6H43.088V29H41.44V27.656C41.1947 28.0507 40.832 28.4027 40.352 28.712C39.8827 29.0107 39.3173 29.16 38.656 29.16C37.7813 29.16 37.072 28.8613 36.528 28.264C35.984 27.6667 35.712 26.84 35.712 25.784V20.6H37.36V25.336C37.36 25.7627 37.424 26.1573 37.552 26.52C37.6907 26.8827 37.904 27.176 38.192 27.4C38.4907 27.6133 38.8693 27.72 39.328 27.72C39.904 27.72 40.4 27.5387 40.816 27.176C41.232 26.8133 41.44 26.3067 41.44 25.656ZM53.2555 27.896H53.2395C52.8982 28.2267 52.4288 28.52 51.8315 28.776C51.2342 29.032 50.6102 29.16 49.9595 29.16C49.0848 29.16 48.3115 28.9787 47.6395 28.616C46.9782 28.2427 46.4608 27.736 46.0875 27.096C45.7142 26.4453 45.5275 25.7093 45.5275 24.888C45.5275 23.9493 45.7248 23.1493 46.1195 22.488C46.5142 21.816 47.0368 21.304 47.6875 20.952C48.3382 20.5893 49.0475 20.408 49.8155 20.408C50.5195 20.408 51.1595 20.584 51.7355 20.936C52.3115 21.2773 52.7702 21.752 53.1115 22.36C53.4528 22.968 53.6235 23.6773 53.6235 24.488L53.6075 25.192H47.1755C47.2715 25.9493 47.5808 26.552 48.1035 27C48.6368 27.4373 49.3088 27.656 50.1195 27.656C50.7062 27.656 51.1808 27.5493 51.5435 27.336C51.9062 27.112 52.2048 26.8987 52.4395 26.696L53.2555 27.896ZM49.8155 21.928C49.1862 21.928 48.6368 22.0773 48.1675 22.376C47.6982 22.664 47.3888 23.1653 47.2395 23.88H51.9435V23.768C51.9115 23.4053 51.7888 23.0853 51.5755 22.808C51.3728 22.5307 51.1168 22.3173 50.8075 22.168C50.4982 22.008 50.1675 21.928 49.8155 21.928ZM60.9025 22.808C60.6038 22.5093 60.2625 22.264 59.8785 22.072C59.5052 21.88 59.1585 21.784 58.8385 21.784C58.6145 21.784 58.3905 21.8107 58.1665 21.864C57.9532 21.9173 57.7718 22.0187 57.6225 22.168C57.4732 22.3067 57.3985 22.5147 57.3985 22.792C57.4092 23.176 57.5798 23.448 57.9105 23.608C58.2518 23.768 58.6732 23.912 59.1745 24.04C59.6118 24.1573 60.0385 24.3067 60.4545 24.488C60.8705 24.6587 61.2118 24.9147 61.4785 25.256C61.7558 25.5867 61.8945 26.056 61.8945 26.664C61.8945 27.1867 61.7452 27.6347 61.4465 28.008C61.1585 28.3813 60.7798 28.6693 60.3105 28.872C59.8518 29.064 59.3665 29.16 58.8545 29.16C58.2465 29.16 57.6438 29.0533 57.0465 28.84C56.4598 28.616 55.9585 28.2373 55.5425 27.704L56.6625 26.744C56.9505 27.0747 57.2758 27.336 57.6385 27.528C58.0118 27.7093 58.4652 27.8 58.9985 27.8C59.2012 27.8 59.4038 27.768 59.6065 27.704C59.8092 27.6293 59.9798 27.5173 60.1185 27.368C60.2678 27.208 60.3425 26.9947 60.3425 26.728C60.3425 26.472 60.2625 26.2747 60.1025 26.136C59.9532 25.9867 59.7505 25.8693 59.4945 25.784C59.2385 25.688 58.9558 25.6027 58.6465 25.528C58.1878 25.4 57.7345 25.2453 57.2865 25.064C56.8492 24.872 56.4812 24.6053 56.1825 24.264C55.8945 23.912 55.7505 23.4373 55.7505 22.84C55.7505 22.3387 55.8892 21.912 56.1665 21.56C56.4545 21.1973 56.8278 20.92 57.2865 20.728C57.7452 20.5253 58.2358 20.424 58.7585 20.424C59.2598 20.424 59.8038 20.5307 60.3905 20.744C60.9772 20.9573 61.4625 21.2987 61.8465 21.768L60.9025 22.808ZM69.1988 22.808C68.9001 22.5093 68.5587 22.264 68.1747 22.072C67.8014 21.88 67.4547 21.784 67.1347 21.784C66.9107 21.784 66.6867 21.8107 66.4627 21.864C66.2494 21.9173 66.0681 22.0187 65.9187 22.168C65.7694 22.3067 65.6947 22.5147 65.6947 22.792C65.7054 23.176 65.8761 23.448 66.2067 23.608C66.5481 23.768 66.9694 23.912 67.4707 24.04C67.9081 24.1573 68.3347 24.3067 68.7507 24.488C69.1667 24.6587 69.5081 24.9147 69.7747 25.256C70.0521 25.5867 70.1907 26.056 70.1907 26.664C70.1907 27.1867 70.0414 27.6347 69.7427 28.008C69.4547 28.3813 69.0761 28.6693 68.6068 28.872C68.1481 29.064 67.6627 29.16 67.1507 29.16C66.5427 29.16 65.9401 29.0533 65.3427 28.84C64.7561 28.616 64.2547 28.2373 63.8387 27.704L64.9587 26.744C65.2467 27.0747 65.5721 27.336 65.9347 27.528C66.3081 27.7093 66.7614 27.8 67.2947 27.8C67.4974 27.8 67.7001 27.768 67.9027 27.704C68.1054 27.6293 68.2761 27.5173 68.4147 27.368C68.5641 27.208 68.6387 26.9947 68.6387 26.728C68.6387 26.472 68.5587 26.2747 68.3987 26.136C68.2494 25.9867 68.0467 25.8693 67.7907 25.784C67.5347 25.688 67.2521 25.6027 66.9427 25.528C66.4841 25.4 66.0307 25.2453 65.5827 25.064C65.1454 24.872 64.7774 24.6053 64.4787 24.264C64.1907 23.912 64.0467 23.4373 64.0467 22.84C64.0467 22.3387 64.1854 21.912 64.4627 21.56C64.7507 21.1973 65.1241 20.92 65.5827 20.728C66.0414 20.5253 66.5321 20.424 67.0547 20.424C67.5561 20.424 68.1001 20.5307 68.6867 20.744C69.2734 20.9573 69.7587 21.2987 70.1427 21.768L69.1988 22.808ZM89.0674 20.6L86.2354 29H85.0994L82.9554 24.12L80.9554 29H79.8354L76.9714 20.6L78.6354 20.584L80.5234 26.376L82.5394 21.928H83.5314L85.5314 26.312L87.4034 20.6H89.0674ZM95.6083 20.424C96.3656 20.424 96.9523 20.5787 97.3683 20.888C97.7843 21.1973 98.0723 21.6133 98.2323 22.136C98.4029 22.6587 98.4883 23.24 98.4883 23.88V29H96.8403V23.992C96.8403 23.5867 96.7869 23.224 96.6803 22.904C96.5736 22.584 96.3923 22.3333 96.1363 22.152C95.8803 21.9707 95.5229 21.896 95.0643 21.928C94.6376 21.928 94.2589 22.0187 93.9283 22.2C93.5976 22.3813 93.3363 22.6213 93.1443 22.92C92.9523 23.2187 92.8563 23.5493 92.8563 23.912V29H91.2083V17.16H92.8563V21.928C93.1123 21.5333 93.4856 21.1867 93.9763 20.888C94.4669 20.5787 95.0109 20.424 95.6083 20.424ZM109.188 20.6V29H107.524V27.704C107.268 28.056 106.889 28.3867 106.388 28.696C105.887 29.0053 105.305 29.16 104.644 29.16C103.94 29.16 103.295 28.9733 102.708 28.6C102.132 28.2267 101.673 27.7093 101.332 27.048C100.991 26.3867 100.82 25.6293 100.82 24.776C100.82 23.9227 100.996 23.1707 101.348 22.52C101.7 21.8587 102.185 21.3467 102.804 20.984C103.423 20.6107 104.127 20.424 104.916 20.424C105.503 20.424 106.015 20.552 106.452 20.808C106.9 21.064 107.257 21.3627 107.524 21.704V20.6H109.188ZM105.028 27.64C105.54 27.64 105.988 27.5173 106.372 27.272C106.756 27.016 107.055 26.6747 107.268 26.248C107.481 25.8107 107.588 25.32 107.588 24.776C107.588 24.2427 107.481 23.7627 107.268 23.336C107.055 22.9093 106.756 22.5733 106.372 22.328C105.988 22.072 105.54 21.944 105.028 21.944C104.537 21.944 104.1 22.0667 103.716 22.312C103.332 22.5573 103.033 22.8933 102.82 23.32C102.607 23.7467 102.5 24.232 102.5 24.776C102.5 25.32 102.607 25.8107 102.82 26.248C103.033 26.6747 103.332 27.016 103.716 27.272C104.1 27.5173 104.537 27.64 105.028 27.64ZM114.817 29H113.169V22.2H111.425V20.6H113.169V18.456H114.817V20.6H116.769V22.2H114.817V29ZM129.378 29H124.034V27.4H125.842V19.4H124.034V17.8H129.378V19.4H127.57V27.4H129.378V29ZM138.591 30.392C138.911 30.6373 139.311 30.8347 139.791 30.984C140.271 31.1333 140.74 31.208 141.199 31.208C142.063 31.208 142.724 30.9947 143.183 30.568C143.642 30.152 143.871 29.5227 143.871 28.68V27.656C143.722 27.912 143.508 28.1573 143.231 28.392C142.954 28.616 142.628 28.8027 142.255 28.952C141.882 29.0907 141.492 29.16 141.087 29.16C140.308 29.16 139.604 28.9733 138.975 28.6C138.346 28.2267 137.844 27.7093 137.471 27.048C137.108 26.3867 136.927 25.6347 136.927 24.792C136.927 23.9387 137.108 23.1867 137.471 22.536C137.834 21.8747 138.324 21.3573 138.943 20.984C139.572 20.6107 140.271 20.424 141.039 20.424C141.679 20.424 142.244 20.568 142.735 20.856C143.236 21.1333 143.615 21.4373 143.871 21.768V20.6H145.519V28.488C145.519 29.4907 145.316 30.296 144.911 30.904C144.516 31.5227 143.988 31.9707 143.327 32.248C142.676 32.536 141.967 32.68 141.199 32.68C140.602 32.68 140.004 32.584 139.407 32.392C138.82 32.2107 138.346 31.9707 137.983 31.672L138.591 30.392ZM141.263 21.928C140.751 21.928 140.292 22.056 139.887 22.312C139.492 22.5573 139.178 22.8987 138.943 23.336C138.719 23.7627 138.607 24.248 138.607 24.792C138.607 25.336 138.719 25.8213 138.943 26.248C139.178 26.6747 139.492 27.016 139.887 27.272C140.292 27.5173 140.751 27.64 141.263 27.64C141.796 27.64 142.26 27.5173 142.655 27.272C143.06 27.0267 143.375 26.6907 143.599 26.264C143.823 25.8267 143.935 25.336 143.935 24.792C143.935 24.2373 143.823 23.7467 143.599 23.32C143.375 22.8933 143.06 22.5573 142.655 22.312C142.26 22.056 141.796 21.928 141.263 21.928ZM156.518 24.792C156.518 25.6453 156.326 26.4027 155.942 27.064C155.568 27.7147 155.056 28.2267 154.406 28.6C153.766 28.9733 153.046 29.16 152.246 29.16C151.446 29.16 150.72 28.9733 150.07 28.6C149.419 28.2267 148.902 27.7147 148.518 27.064C148.144 26.4027 147.958 25.6453 147.958 24.792C147.958 23.9387 148.144 23.1867 148.518 22.536C148.902 21.8747 149.419 21.3573 150.07 20.984C150.72 20.6107 151.446 20.424 152.246 20.424C153.046 20.424 153.766 20.6107 154.406 20.984C155.056 21.3573 155.568 21.8747 155.942 22.536C156.326 23.1867 156.518 23.9387 156.518 24.792ZM154.838 24.792C154.848 24.2267 154.736 23.7307 154.502 23.304C154.278 22.8667 153.968 22.5307 153.574 22.296C153.179 22.0507 152.736 21.928 152.246 21.928C151.755 21.928 151.307 22.0507 150.902 22.296C150.507 22.5307 150.192 22.8667 149.958 23.304C149.734 23.7307 149.627 24.2267 149.638 24.792C149.627 25.3467 149.734 25.8427 149.958 26.28C150.192 26.7067 150.507 27.0427 150.902 27.288C151.307 27.5333 151.755 27.656 152.246 27.656C152.736 27.656 153.179 27.5333 153.574 27.288C153.968 27.0427 154.278 26.7067 154.502 26.28C154.736 25.8427 154.848 25.3467 154.838 24.792ZM161.641 29H159.993V22.2H158.249V20.6H159.993V18.456H161.641V20.6H163.593V22.2H161.641V29ZM176.586 25.656V20.6H178.234V29H176.586V27.656C176.341 28.0507 175.978 28.4027 175.498 28.712C175.029 29.0107 174.464 29.16 173.802 29.16C172.928 29.16 172.218 28.8613 171.674 28.264C171.13 27.6667 170.858 26.84 170.858 25.784V20.6H172.506V25.336C172.506 25.7627 172.57 26.1573 172.698 26.52C172.837 26.8827 173.05 27.176 173.338 27.4C173.637 27.6133 174.016 27.72 174.474 27.72C175.05 27.72 175.546 27.5387 175.962 27.176C176.378 26.8133 176.586 26.3067 176.586 25.656ZM186.034 22.808C185.735 22.5093 185.394 22.264 185.01 22.072C184.636 21.88 184.29 21.784 183.97 21.784C183.746 21.784 183.522 21.8107 183.298 21.864C183.084 21.9173 182.903 22.0187 182.754 22.168C182.604 22.3067 182.53 22.5147 182.53 22.792C182.54 23.176 182.711 23.448 183.042 23.608C183.383 23.768 183.804 23.912 184.306 24.04C184.743 24.1573 185.17 24.3067 185.586 24.488C186.002 24.6587 186.343 24.9147 186.61 25.256C186.887 25.5867 187.026 26.056 187.026 26.664C187.026 27.1867 186.876 27.6347 186.578 28.008C186.29 28.3813 185.911 28.6693 185.442 28.872C184.983 29.064 184.498 29.16 183.986 29.16C183.378 29.16 182.775 29.0533 182.178 28.84C181.591 28.616 181.09 28.2373 180.674 27.704L181.794 26.744C182.082 27.0747 182.407 27.336 182.77 27.528C183.143 27.7093 183.596 27.8 184.13 27.8C184.332 27.8 184.535 27.768 184.738 27.704C184.94 27.6293 185.111 27.5173 185.25 27.368C185.399 27.208 185.474 26.9947 185.474 26.728C185.474 26.472 185.394 26.2747 185.234 26.136C185.084 25.9867 184.882 25.8693 184.626 25.784C184.37 25.688 184.087 25.6027 183.778 25.528C183.319 25.4 182.866 25.2453 182.418 25.064C181.98 24.872 181.612 24.6053 181.314 24.264C181.026 23.912 180.882 23.4373 180.882 22.84C180.882 22.3387 181.02 21.912 181.298 21.56C181.586 21.1973 181.959 20.92 182.418 20.728C182.876 20.5253 183.367 20.424 183.89 20.424C184.391 20.424 184.935 20.5307 185.522 20.744C186.108 20.9573 186.594 21.2987 186.978 21.768L186.034 22.808ZM42.3651 42.264H40.3811V49H38.7171V42.264H37.3731V40.744H38.7171V39.656C38.7171 38.9307 38.9465 38.3387 39.4051 37.88C39.8745 37.4107 40.4771 37.176 41.2131 37.176C41.6398 37.176 41.9918 37.256 42.2691 37.416C42.5571 37.576 42.7651 37.7307 42.8931 37.88L42.3331 39.144C42.2265 39.0373 42.0878 38.9413 41.9171 38.856C41.7465 38.76 41.5758 38.712 41.4051 38.712C41.0211 38.712 40.7545 38.8027 40.6051 38.984C40.4558 39.1653 40.3811 39.3893 40.3811 39.656V40.744H42.3651V42.264ZM52.4619 44.792C52.4619 45.6453 52.2699 46.4027 51.8859 47.064C51.5125 47.7147 51.0005 48.2267 50.3499 48.6C49.7099 48.9733 48.9899 49.16 48.1899 49.16C47.3899 49.16 46.6645 48.9733 46.0139 48.6C45.3632 48.2267 44.8459 47.7147 44.4619 47.064C44.0885 46.4027 43.9019 45.6453 43.9019 44.792C43.9019 43.9387 44.0885 43.1867 44.4619 42.536C44.8459 41.8747 45.3632 41.3573 46.0139 40.984C46.6645 40.6107 47.3899 40.424 48.1899 40.424C48.9899 40.424 49.7099 40.6107 50.3499 40.984C51.0005 41.3573 51.5125 41.8747 51.8859 42.536C52.2699 43.1867 52.4619 43.9387 52.4619 44.792ZM50.7819 44.792C50.7925 44.2267 50.6805 43.7307 50.4459 43.304C50.2219 42.8667 49.9125 42.5307 49.5179 42.296C49.1232 42.0507 48.6805 41.928 48.1899 41.928C47.6992 41.928 47.2512 42.0507 46.8459 42.296C46.4512 42.5307 46.1365 42.8667 45.9019 43.304C45.6779 43.7307 45.5712 44.2267 45.5819 44.792C45.5712 45.3467 45.6779 45.8427 45.9019 46.28C46.1365 46.7067 46.4512 47.0427 46.8459 47.288C47.2512 47.5333 47.6992 47.656 48.1899 47.656C48.6805 47.656 49.1232 47.5333 49.5179 47.288C49.9125 47.0427 50.2219 46.7067 50.4459 46.28C50.6805 45.8427 50.7925 45.3467 50.7819 44.792ZM59.6016 42.376C59.495 42.3227 59.3616 42.28 59.2016 42.248C59.0523 42.2053 58.8923 42.184 58.7216 42.184C58.3803 42.184 58.0443 42.2747 57.7136 42.456C57.383 42.6267 57.1056 42.8773 56.8816 43.208C56.6683 43.528 56.5616 43.912 56.5616 44.36V49H54.8976V40.6H56.5616V42.184C56.7963 41.672 57.1483 41.2507 57.6176 40.92C58.0976 40.5893 58.599 40.424 59.1216 40.424C59.5163 40.424 59.8203 40.4773 60.0336 40.584L59.6016 42.376ZM77.0191 37.8L72.5071 49H70.8271L66.3471 37.8H68.3151L70.9871 44.6C71.1258 44.9627 71.2591 45.32 71.3871 45.672C71.5258 46.024 71.6538 46.3813 71.7711 46.744C71.8885 46.3813 72.0111 46.024 72.1391 45.672C72.2671 45.3093 72.3951 44.952 72.5231 44.6L75.0031 37.8H77.0191ZM86.0635 40.6V49H84.3995V47.704C84.1435 48.056 83.7648 48.3867 83.2635 48.696C82.7622 49.0053 82.1808 49.16 81.5195 49.16C80.8155 49.16 80.1702 48.9733 79.5835 48.6C79.0075 48.2267 78.5488 47.7093 78.2075 47.048C77.8662 46.3867 77.6955 45.6293 77.6955 44.776C77.6955 43.9227 77.8715 43.1707 78.2235 42.52C78.5755 41.8587 79.0608 41.3467 79.6795 40.984C80.2982 40.6107 81.0022 40.424 81.7915 40.424C82.3782 40.424 82.8902 40.552 83.3275 40.808C83.7755 41.064 84.1328 41.3627 84.3995 41.704V40.6H86.0635ZM81.9035 47.64C82.4155 47.64 82.8635 47.5173 83.2475 47.272C83.6315 47.016 83.9302 46.6747 84.1435 46.248C84.3568 45.8107 84.4635 45.32 84.4635 44.776C84.4635 44.2427 84.3568 43.7627 84.1435 43.336C83.9302 42.9093 83.6315 42.5733 83.2475 42.328C82.8635 42.072 82.4155 41.944 81.9035 41.944C81.4128 41.944 80.9755 42.0667 80.5915 42.312C80.2075 42.5573 79.9088 42.8933 79.6955 43.32C79.4822 43.7467 79.3755 44.232 79.3755 44.776C79.3755 45.32 79.4822 45.8107 79.6955 46.248C79.9088 46.6747 80.2075 47.016 80.5915 47.272C80.9755 47.5173 81.4128 47.64 81.9035 47.64ZM89.0045 49V37.16H90.6525V49H89.0045ZM100.704 47.896H100.688C100.347 48.2267 99.8776 48.52 99.2802 48.776C98.6829 49.032 98.0589 49.16 97.4082 49.16C96.5336 49.16 95.7602 48.9787 95.0882 48.616C94.4269 48.2427 93.9096 47.736 93.5362 47.096C93.1629 46.4453 92.9762 45.7093 92.9762 44.888C92.9762 43.9493 93.1736 43.1493 93.5682 42.488C93.9629 41.816 94.4856 41.304 95.1362 40.952C95.7869 40.5893 96.4962 40.408 97.2642 40.408C97.9682 40.408 98.6082 40.584 99.1842 40.936C99.7602 41.2773 100.219 41.752 100.56 42.36C100.902 42.968 101.072 43.6773 101.072 44.488L101.056 45.192H94.6242C94.7202 45.9493 95.0296 46.552 95.5522 47C96.0856 47.4373 96.7576 47.656 97.5682 47.656C98.1549 47.656 98.6296 47.5493 98.9922 47.336C99.3549 47.112 99.6536 46.8987 99.8882 46.696L100.704 47.896ZM97.2642 41.928C96.6349 41.928 96.0856 42.0773 95.6162 42.376C95.1469 42.664 94.8376 43.1653 94.6882 43.88H99.3922V43.768C99.3602 43.4053 99.2376 43.0853 99.0242 42.808C98.8216 42.5307 98.5656 42.3173 98.2562 42.168C97.9469 42.008 97.6162 41.928 97.2642 41.928ZM107.903 40.424C108.661 40.424 109.247 40.5787 109.663 40.888C110.079 41.1973 110.367 41.6133 110.527 42.136C110.698 42.6587 110.783 43.24 110.783 43.88V49H109.135V43.992C109.135 43.5867 109.082 43.224 108.975 42.904C108.869 42.584 108.687 42.3333 108.431 42.152C108.175 41.9707 107.818 41.896 107.359 41.928C106.933 41.928 106.554 42.0187 106.223 42.2C105.893 42.3813 105.631 42.6213 105.439 42.92C105.247 43.2187 105.151 43.5493 105.151 43.912V49H103.503V40.6H105.151V41.928C105.407 41.5333 105.781 41.1867 106.271 40.888C106.762 40.5787 107.306 40.424 107.903 40.424ZM116.347 49H114.699V42.2H112.955V40.6H114.699V38.456H116.347V40.6H118.299V42.2H116.347V49ZM121.543 38.776C121.17 38.776 120.893 38.68 120.711 38.488C120.53 38.296 120.439 38.0453 120.439 37.736C120.439 37.4693 120.53 37.2293 120.711 37.016C120.893 36.8027 121.17 36.696 121.543 36.696C121.917 36.696 122.194 36.792 122.375 36.984C122.557 37.176 122.647 37.4267 122.647 37.736C122.647 38.0027 122.557 38.2427 122.375 38.456C122.194 38.6693 121.917 38.776 121.543 38.776ZM122.391 49H120.743V40.6H122.391V49ZM129.933 40.424C130.69 40.424 131.277 40.5787 131.693 40.888C132.109 41.1973 132.397 41.6133 132.557 42.136C132.727 42.6587 132.813 43.24 132.813 43.88V49H131.165V43.992C131.165 43.5867 131.111 43.224 131.005 42.904C130.898 42.584 130.717 42.3333 130.461 42.152C130.205 41.9707 129.847 41.896 129.389 41.928C128.962 41.928 128.583 42.0187 128.253 42.2C127.922 42.3813 127.661 42.6213 127.469 42.92C127.277 43.2187 127.181 43.5493 127.181 43.912V49H125.533V40.6H127.181V41.928C127.437 41.5333 127.81 41.1867 128.301 40.888C128.791 40.5787 129.335 40.424 129.933 40.424ZM142.904 47.896H142.888C142.547 48.2267 142.078 48.52 141.48 48.776C140.883 49.032 140.259 49.16 139.608 49.16C138.734 49.16 137.96 48.9787 137.288 48.616C136.627 48.2427 136.11 47.736 135.736 47.096C135.363 46.4453 135.176 45.7093 135.176 44.888C135.176 43.9493 135.374 43.1493 135.768 42.488C136.163 41.816 136.686 41.304 137.336 40.952C137.987 40.5893 138.696 40.408 139.464 40.408C140.168 40.408 140.808 40.584 141.384 40.936C141.96 41.2773 142.419 41.752 142.76 42.36C143.102 42.968 143.272 43.6773 143.272 44.488L143.256 45.192H136.824C136.92 45.9493 137.23 46.552 137.752 47C138.286 47.4373 138.958 47.656 139.768 47.656C140.355 47.656 140.83 47.5493 141.192 47.336C141.555 47.112 141.854 46.8987 142.088 46.696L142.904 47.896ZM139.464 41.928C138.835 41.928 138.286 42.0773 137.816 42.376C137.347 42.664 137.038 43.1653 136.888 43.88H141.592V43.768C141.56 43.4053 141.438 43.0853 141.224 42.808C141.022 42.5307 140.766 42.3173 140.456 42.168C140.147 42.008 139.816 41.928 139.464 41.928ZM147.767 39.16C147.767 39.5653 147.655 39.944 147.431 40.296C147.218 40.648 146.935 40.952 146.583 41.208C146.231 41.464 145.863 41.6507 145.479 41.768L144.871 41.032C145.287 40.84 145.629 40.6213 145.895 40.376C146.162 40.1307 146.295 39.9173 146.295 39.736C146.295 39.5867 146.237 39.4587 146.119 39.352C146.013 39.2453 145.89 39.1387 145.751 39.032C145.613 38.9253 145.485 38.808 145.367 38.68C145.261 38.552 145.207 38.392 145.207 38.2C145.207 37.9333 145.298 37.7253 145.479 37.576C145.671 37.4267 145.906 37.352 146.183 37.352C146.578 37.352 146.941 37.5067 147.271 37.816C147.602 38.1253 147.767 38.5733 147.767 39.16ZM155.051 42.808C154.752 42.5093 154.411 42.264 154.027 42.072C153.653 41.88 153.307 41.784 152.987 41.784C152.763 41.784 152.539 41.8107 152.315 41.864C152.101 41.9173 151.92 42.0187 151.771 42.168C151.621 42.3067 151.547 42.5147 151.547 42.792C151.557 43.176 151.728 43.448 152.059 43.608C152.4 43.768 152.821 43.912 153.323 44.04C153.76 44.1573 154.187 44.3067 154.603 44.488C155.019 44.6587 155.36 44.9147 155.627 45.256C155.904 45.5867 156.043 46.056 156.043 46.664C156.043 47.1867 155.893 47.6347 155.595 48.008C155.307 48.3813 154.928 48.6693 154.459 48.872C154 49.064 153.515 49.16 153.003 49.16C152.395 49.16 151.792 49.0533 151.195 48.84C150.608 48.616 150.107 48.2373 149.691 47.704L150.811 46.744C151.099 47.0747 151.424 47.336 151.787 47.528C152.16 47.7093 152.613 47.8 153.147 47.8C153.349 47.8 153.552 47.768 153.755 47.704C153.957 47.6293 154.128 47.5173 154.267 47.368C154.416 47.208 154.491 46.9947 154.491 46.728C154.491 46.472 154.411 46.2747 154.251 46.136C154.101 45.9867 153.899 45.8693 153.643 45.784C153.387 45.688 153.104 45.6027 152.795 45.528C152.336 45.4 151.883 45.2453 151.435 45.064C150.997 44.872 150.629 44.6053 150.331 44.264C150.043 43.912 149.899 43.4373 149.899 42.84C149.899 42.3387 150.037 41.912 150.315 41.56C150.603 41.1973 150.976 40.92 151.435 40.728C151.893 40.5253 152.384 40.424 152.907 40.424C153.408 40.424 153.952 40.5307 154.539 40.744C155.125 40.9573 155.611 41.2987 155.995 41.768L155.051 42.808ZM164.451 45.144C163.971 42.472 167.731 41.768 167.731 39.944C167.731 38.84 166.947 38.04 165.315 38.04C164.211 38.04 163.203 38.52 162.275 39.48L161.427 38.696C162.483 37.576 163.731 36.824 165.459 36.824C167.715 36.824 169.171 37.992 169.171 39.832C169.171 42.248 165.347 42.744 165.763 45.144H164.451ZM165.139 49.08C164.563 49.08 164.115 48.68 164.115 48.04C164.115 47.4 164.579 46.968 165.139 46.968C165.699 46.968 166.163 47.4 166.163 48.04C166.163 48.68 165.699 49.08 165.139 49.08Z" fill="#BDA074"/>
</svg>
