<svg width="256" height="66" viewBox="0 0 256 66" fill="none" xmlns="http://www.w3.org/2000/svg">
<path fill-rule="evenodd" clip-rule="evenodd" d="M232 0C245.255 0 256 10.7452 256 24V42C256 55.2548 245.255 66 232 66H24C23.0702 66 22.1527 65.9471 21.2504 65.8442L21.4316 66H0.494978L7.80664 59.7139C3.00902 55.3257 0 49.0142 0 42V24C0 10.7452 10.7452 0 24 0H232Z" fill="#FEFBF6"/>
<path d="M53.3672 17.8L49.2712 24.008V29H47.5432V24.04L43.1272 17.8H45.2072L48.4392 22.44L51.3832 17.8H53.3672ZM61.2564 27.896H61.2404C60.8991 28.2267 60.4298 28.52 59.8324 28.776C59.2351 29.032 58.6111 29.16 57.9604 29.16C57.0858 29.16 56.3124 28.9787 55.6404 28.616C54.9791 28.2427 54.4618 27.736 54.0884 27.096C53.7151 26.4453 53.5284 25.7093 53.5284 24.888C53.5284 23.9493 53.7258 23.1493 54.1204 22.488C54.5151 21.816 55.0378 21.304 55.6884 20.952C56.3391 20.5893 57.0484 20.408 57.8164 20.408C58.5204 20.408 59.1604 20.584 59.7364 20.936C60.3124 21.2773 60.7711 21.752 61.1124 22.36C61.4538 22.968 61.6244 23.6773 61.6244 24.488L61.6084 25.192H55.1764C55.2724 25.9493 55.5818 26.552 56.1044 27C56.6378 27.4373 57.3098 27.656 58.1204 27.656C58.7071 27.656 59.1818 27.5493 59.5444 27.336C59.9071 27.112 60.2058 26.8987 60.4404 26.696L61.2564 27.896ZM57.8164 21.928C57.1871 21.928 56.6378 22.0773 56.1684 22.376C55.6991 22.664 55.3898 23.1653 55.2404 23.88H59.9444V23.768C59.9124 23.4053 59.7898 23.0853 59.5764 22.808C59.3738 22.5307 59.1178 22.3173 58.8084 22.168C58.4991 22.008 58.1684 21.928 57.8164 21.928ZM68.9034 22.808C68.6048 22.5093 68.2634 22.264 67.8794 22.072C67.5061 21.88 67.1594 21.784 66.8394 21.784C66.6154 21.784 66.3914 21.8107 66.1674 21.864C65.9541 21.9173 65.7728 22.0187 65.6234 22.168C65.4741 22.3067 65.3994 22.5147 65.3994 22.792C65.4101 23.176 65.5808 23.448 65.9114 23.608C66.2528 23.768 66.6741 23.912 67.1754 24.04C67.6128 24.1573 68.0394 24.3067 68.4554 24.488C68.8714 24.6587 69.2128 24.9147 69.4794 25.256C69.7568 25.5867 69.8954 26.056 69.8954 26.664C69.8954 27.1867 69.7461 27.6347 69.4474 28.008C69.1594 28.3813 68.7808 28.6693 68.3114 28.872C67.8528 29.064 67.3674 29.16 66.8554 29.16C66.2474 29.16 65.6448 29.0533 65.0474 28.84C64.4608 28.616 63.9594 28.2373 63.5434 27.704L64.6634 26.744C64.9514 27.0747 65.2768 27.336 65.6394 27.528C66.0128 27.7093 66.4661 27.8 66.9994 27.8C67.2021 27.8 67.4048 27.768 67.6074 27.704C67.8101 27.6293 67.9808 27.5173 68.1194 27.368C68.2688 27.208 68.3434 26.9947 68.3434 26.728C68.3434 26.472 68.2634 26.2747 68.1034 26.136C67.9541 25.9867 67.7514 25.8693 67.4954 25.784C67.2394 25.688 66.9568 25.6027 66.6474 25.528C66.1888 25.4 65.7354 25.2453 65.2874 25.064C64.8501 24.872 64.4821 24.6053 64.1834 24.264C63.8954 23.912 63.7514 23.4373 63.7514 22.84C63.7514 22.3387 63.8901 21.912 64.1674 21.56C64.4554 21.1973 64.8288 20.92 65.2874 20.728C65.7461 20.5253 66.2368 20.424 66.7594 20.424C67.2608 20.424 67.8048 20.5307 68.3914 20.744C68.9781 20.9573 69.4634 21.2987 69.8474 21.768L68.9034 22.808ZM78.6717 25.144L78.3517 18.936L78.3037 17.032H80.0797L80.0317 18.936L79.7117 25.144H78.6717ZM79.1997 29.08C78.6237 29.08 78.1597 28.68 78.1597 28.04C78.1597 27.4 78.6237 26.968 79.1997 26.968C79.7597 26.968 80.2237 27.4 80.2237 28.04C80.2237 28.68 79.7597 29.08 79.1997 29.08ZM96.3837 27.336V29H89.4077V17.8H91.1357V27.336H96.3837ZM106.113 27.896H106.097C105.756 28.2267 105.287 28.52 104.689 28.776C104.092 29.032 103.468 29.16 102.817 29.16C101.943 29.16 101.169 28.9787 100.497 28.616C99.836 28.2427 99.3186 27.736 98.9453 27.096C98.572 26.4453 98.3853 25.7093 98.3853 24.888C98.3853 23.9493 98.5826 23.1493 98.9773 22.488C99.372 21.816 99.8946 21.304 100.545 20.952C101.196 20.5893 101.905 20.408 102.673 20.408C103.377 20.408 104.017 20.584 104.593 20.936C105.169 21.2773 105.628 21.752 105.969 22.36C106.311 22.968 106.481 23.6773 106.481 24.488L106.465 25.192H100.033C100.129 25.9493 100.439 26.552 100.961 27C101.495 27.4373 102.167 27.656 102.977 27.656C103.564 27.656 104.039 27.5493 104.401 27.336C104.764 27.112 105.063 26.8987 105.297 26.696L106.113 27.896ZM102.673 21.928C102.044 21.928 101.495 22.0773 101.025 22.376C100.556 22.664 100.247 23.1653 100.097 23.88H104.801V23.768C104.769 23.4053 104.647 23.0853 104.433 22.808C104.231 22.5307 103.975 22.3173 103.665 22.168C103.356 22.008 103.025 21.928 102.673 21.928ZM111.6 29H109.952V22.2H108.208V20.6H109.952V18.456H111.6V20.6H113.552V22.2H111.6V29ZM117.757 19.16C117.757 19.5653 117.645 19.944 117.421 20.296C117.208 20.648 116.925 20.952 116.573 21.208C116.221 21.464 115.853 21.6507 115.469 21.768L114.861 21.032C115.277 20.84 115.618 20.6213 115.885 20.376C116.152 20.1307 116.285 19.9173 116.285 19.736C116.285 19.5867 116.226 19.4587 116.109 19.352C116.002 19.2453 115.88 19.1387 115.741 19.032C115.602 18.9253 115.474 18.808 115.357 18.68C115.25 18.552 115.197 18.392 115.197 18.2C115.197 17.9333 115.288 17.7253 115.469 17.576C115.661 17.4267 115.896 17.352 116.173 17.352C116.568 17.352 116.93 17.5067 117.261 17.816C117.592 18.1253 117.757 18.5733 117.757 19.16ZM125.04 22.808C124.742 22.5093 124.4 22.264 124.016 22.072C123.643 21.88 123.296 21.784 122.976 21.784C122.752 21.784 122.528 21.8107 122.304 21.864C122.091 21.9173 121.91 22.0187 121.76 22.168C121.611 22.3067 121.536 22.5147 121.536 22.792C121.547 23.176 121.718 23.448 122.048 23.608C122.39 23.768 122.811 23.912 123.312 24.04C123.75 24.1573 124.176 24.3067 124.592 24.488C125.008 24.6587 125.35 24.9147 125.616 25.256C125.894 25.5867 126.032 26.056 126.032 26.664C126.032 27.1867 125.883 27.6347 125.584 28.008C125.296 28.3813 124.918 28.6693 124.448 28.872C123.99 29.064 123.504 29.16 122.992 29.16C122.384 29.16 121.782 29.0533 121.184 28.84C120.598 28.616 120.096 28.2373 119.68 27.704L120.8 26.744C121.088 27.0747 121.414 27.336 121.776 27.528C122.15 27.7093 122.603 27.8 123.136 27.8C123.339 27.8 123.542 27.768 123.744 27.704C123.947 27.6293 124.118 27.5173 124.256 27.368C124.406 27.208 124.48 26.9947 124.48 26.728C124.48 26.472 124.4 26.2747 124.24 26.136C124.091 25.9867 123.888 25.8693 123.632 25.784C123.376 25.688 123.094 25.6027 122.784 25.528C122.326 25.4 121.872 25.2453 121.424 25.064C120.987 24.872 120.619 24.6053 120.32 24.264C120.032 23.912 119.888 23.4373 119.888 22.84C119.888 22.3387 120.027 21.912 120.304 21.56C120.592 21.1973 120.966 20.92 121.424 20.728C121.883 20.5253 122.374 20.424 122.896 20.424C123.398 20.424 123.942 20.5307 124.528 20.744C125.115 20.9573 125.6 21.2987 125.984 21.768L125.04 22.808ZM140.829 27.896H140.813C140.472 28.2267 140.002 28.52 139.405 28.776C138.808 29.032 138.184 29.16 137.533 29.16C136.658 29.16 135.885 28.9787 135.213 28.616C134.552 28.2427 134.034 27.736 133.661 27.096C133.288 26.4453 133.101 25.7093 133.101 24.888C133.101 23.9493 133.298 23.1493 133.693 22.488C134.088 21.816 134.61 21.304 135.261 20.952C135.912 20.5893 136.621 20.408 137.389 20.408C138.093 20.408 138.733 20.584 139.309 20.936C139.885 21.2773 140.344 21.752 140.685 22.36C141.026 22.968 141.197 23.6773 141.197 24.488L141.181 25.192H134.749C134.845 25.9493 135.154 26.552 135.677 27C136.21 27.4373 136.882 27.656 137.693 27.656C138.28 27.656 138.754 27.5493 139.117 27.336C139.48 27.112 139.778 26.8987 140.013 26.696L140.829 27.896ZM137.389 21.928C136.76 21.928 136.21 22.0773 135.741 22.376C135.272 22.664 134.962 23.1653 134.813 23.88H139.517V23.768C139.485 23.4053 139.362 23.0853 139.149 22.808C138.946 22.5307 138.69 22.3173 138.381 22.168C138.072 22.008 137.741 21.928 137.389 21.928ZM148.028 20.424C148.785 20.424 149.372 20.5787 149.788 20.888C150.204 21.1973 150.492 21.6133 150.652 22.136C150.823 22.6587 150.908 23.24 150.908 23.88V29H149.26V23.992C149.26 23.5867 149.207 23.224 149.1 22.904C148.993 22.584 148.812 22.3333 148.556 22.152C148.3 21.9707 147.943 21.896 147.484 21.928C147.057 21.928 146.679 22.0187 146.348 22.2C146.017 22.3813 145.756 22.6213 145.564 22.92C145.372 23.2187 145.276 23.5493 145.276 23.912V29H143.628V20.6H145.276V21.928C145.532 21.5333 145.905 21.1867 146.396 20.888C146.887 20.5787 147.431 20.424 148.028 20.424ZM155.64 29.384C155.64 29.9493 155.512 30.44 155.256 30.856C155.01 31.272 154.669 31.592 154.232 31.816C153.794 32.04 153.304 32.152 152.76 32.152L152.136 30.888C152.786 30.888 153.256 30.7173 153.544 30.376C153.842 30.0347 153.992 29.5707 153.992 28.984V20.6H155.64V29.384ZM154.856 18.68C154.482 18.68 154.205 18.584 154.024 18.392C153.842 18.2 153.752 17.9493 153.752 17.64C153.752 17.3733 153.842 17.1333 154.024 16.92C154.205 16.7067 154.482 16.6 154.856 16.6C155.229 16.6 155.506 16.696 155.688 16.888C155.869 17.08 155.96 17.3307 155.96 17.64C155.96 17.9067 155.869 18.1467 155.688 18.36C155.506 18.5733 155.229 18.68 154.856 18.68ZM166.675 24.792C166.675 25.6453 166.483 26.4027 166.099 27.064C165.725 27.7147 165.213 28.2267 164.563 28.6C163.923 28.9733 163.203 29.16 162.403 29.16C161.603 29.16 160.877 28.9733 160.227 28.6C159.576 28.2267 159.059 27.7147 158.675 27.064C158.301 26.4027 158.115 25.6453 158.115 24.792C158.115 23.9387 158.301 23.1867 158.675 22.536C159.059 21.8747 159.576 21.3573 160.227 20.984C160.877 20.6107 161.603 20.424 162.403 20.424C163.203 20.424 163.923 20.6107 164.563 20.984C165.213 21.3573 165.725 21.8747 166.099 22.536C166.483 23.1867 166.675 23.9387 166.675 24.792ZM164.995 24.792C165.005 24.2267 164.893 23.7307 164.659 23.304C164.435 22.8667 164.125 22.5307 163.731 22.296C163.336 22.0507 162.893 21.928 162.403 21.928C161.912 21.928 161.464 22.0507 161.059 22.296C160.664 22.5307 160.349 22.8667 160.115 23.304C159.891 23.7307 159.784 24.2267 159.795 24.792C159.784 25.3467 159.891 25.8427 160.115 26.28C160.349 26.7067 160.664 27.0427 161.059 27.288C161.464 27.5333 161.912 27.656 162.403 27.656C162.893 27.656 163.336 27.5333 163.731 27.288C164.125 27.0427 164.435 26.7067 164.659 26.28C164.893 25.8427 165.005 25.3467 164.995 24.792ZM170.206 32.68L171.582 29.528L171.63 29.416L167.726 20.6H169.646L172.27 26.776C172.302 26.84 172.334 26.92 172.366 27.016C172.398 27.112 172.435 27.2187 172.478 27.336C172.521 27.2187 172.558 27.1067 172.59 27C172.633 26.8827 172.675 26.7707 172.718 26.664L174.91 20.6H176.862L173.406 29L171.982 32.68H170.206ZM186.547 29H184.899V22.2H183.155V20.6H184.899V18.456H186.547V20.6H188.499V22.2H186.547V29ZM195.04 20.424C195.797 20.424 196.384 20.5787 196.8 20.888C197.216 21.1973 197.504 21.6133 197.664 22.136C197.834 22.6587 197.92 23.24 197.92 23.88V29H196.272V23.992C196.272 23.5867 196.218 23.224 196.112 22.904C196.005 22.584 195.824 22.3333 195.568 22.152C195.312 21.9707 194.954 21.896 194.496 21.928C194.069 21.928 193.69 22.0187 193.36 22.2C193.029 22.3813 192.768 22.6213 192.576 22.92C192.384 23.2187 192.288 23.5493 192.288 23.912V29H190.64V17.16H192.288V21.928C192.544 21.5333 192.917 21.1867 193.408 20.888C193.898 20.5787 194.442 20.424 195.04 20.424ZM201.899 18.776C201.526 18.776 201.249 18.68 201.067 18.488C200.886 18.296 200.795 18.0453 200.795 17.736C200.795 17.4693 200.886 17.2293 201.067 17.016C201.249 16.8027 201.526 16.696 201.899 16.696C202.273 16.696 202.55 16.792 202.731 16.984C202.913 17.176 203.003 17.4267 203.003 17.736C203.003 18.0027 202.913 18.2427 202.731 18.456C202.55 18.6693 202.273 18.776 201.899 18.776ZM202.747 29H201.099V20.6H202.747V29ZM210.737 22.808C210.438 22.5093 210.097 22.264 209.713 22.072C209.339 21.88 208.993 21.784 208.673 21.784C208.449 21.784 208.225 21.8107 208.001 21.864C207.787 21.9173 207.606 22.0187 207.457 22.168C207.307 22.3067 207.233 22.5147 207.233 22.792C207.243 23.176 207.414 23.448 207.745 23.608C208.086 23.768 208.507 23.912 209.009 24.04C209.446 24.1573 209.873 24.3067 210.289 24.488C210.705 24.6587 211.046 24.9147 211.313 25.256C211.59 25.5867 211.729 26.056 211.729 26.664C211.729 27.1867 211.579 27.6347 211.281 28.008C210.993 28.3813 210.614 28.6693 210.145 28.872C209.686 29.064 209.201 29.16 208.689 29.16C208.081 29.16 207.478 29.0533 206.881 28.84C206.294 28.616 205.793 28.2373 205.377 27.704L206.497 26.744C206.785 27.0747 207.11 27.336 207.473 27.528C207.846 27.7093 208.299 27.8 208.833 27.8C209.035 27.8 209.238 27.768 209.441 27.704C209.643 27.6293 209.814 27.5173 209.953 27.368C210.102 27.208 210.177 26.9947 210.177 26.728C210.177 26.472 210.097 26.2747 209.937 26.136C209.787 25.9867 209.585 25.8693 209.329 25.784C209.073 25.688 208.79 25.6027 208.481 25.528C208.022 25.4 207.569 25.2453 207.121 25.064C206.683 24.872 206.315 24.6053 206.017 24.264C205.729 23.912 205.585 23.4373 205.585 22.84C205.585 22.3387 205.723 21.912 206.001 21.56C206.289 21.1973 206.662 20.92 207.121 20.728C207.579 20.5253 208.07 20.424 208.593 20.424C209.094 20.424 209.638 20.5307 210.225 20.744C210.811 20.9573 211.297 21.2987 211.681 21.768L210.737 22.808ZM26.4909 42.808C26.1923 42.5093 25.8509 42.264 25.4669 42.072C25.0936 41.88 24.7469 41.784 24.4269 41.784C24.2029 41.784 23.9789 41.8107 23.7549 41.864C23.5416 41.9173 23.3603 42.0187 23.2109 42.168C23.0616 42.3067 22.9869 42.5147 22.9869 42.792C22.9976 43.176 23.1683 43.448 23.4989 43.608C23.8403 43.768 24.2616 43.912 24.7629 44.04C25.2003 44.1573 25.6269 44.3067 26.0429 44.488C26.4589 44.6587 26.8003 44.9147 27.0669 45.256C27.3443 45.5867 27.4829 46.056 27.4829 46.664C27.4829 47.1867 27.3336 47.6347 27.0349 48.008C26.7469 48.3813 26.3683 48.6693 25.8989 48.872C25.4403 49.064 24.9549 49.16 24.4429 49.16C23.8349 49.16 23.2323 49.0533 22.6349 48.84C22.0483 48.616 21.5469 48.2373 21.1309 47.704L22.2509 46.744C22.5389 47.0747 22.8643 47.336 23.2269 47.528C23.6003 47.7093 24.0536 47.8 24.5869 47.8C24.7896 47.8 24.9923 47.768 25.1949 47.704C25.3976 47.6293 25.5683 47.5173 25.7069 47.368C25.8563 47.208 25.9309 46.9947 25.9309 46.728C25.9309 46.472 25.8509 46.2747 25.6909 46.136C25.5416 45.9867 25.3389 45.8693 25.0829 45.784C24.8269 45.688 24.5443 45.6027 24.2349 45.528C23.7763 45.4 23.3229 45.2453 22.8749 45.064C22.4376 44.872 22.0696 44.6053 21.7709 44.264C21.4829 43.912 21.3389 43.4373 21.3389 42.84C21.3389 42.3387 21.4776 41.912 21.7549 41.56C22.0429 41.1973 22.4163 40.92 22.8749 40.728C23.3336 40.5253 23.8243 40.424 24.3469 40.424C24.8483 40.424 25.3923 40.5307 25.9789 40.744C26.5656 40.9573 27.0509 41.2987 27.4349 41.768L26.4909 42.808ZM41.2352 40.6L38.4032 49H37.2672L35.1232 44.12L33.1232 49H32.0032L29.1392 40.6L30.8032 40.584L32.6912 46.376L34.7072 41.928H35.6992L37.6992 46.312L39.5712 40.6H41.2352ZM50.3577 47.896H50.3417C50.0004 48.2267 49.531 48.52 48.9337 48.776C48.3364 49.032 47.7124 49.16 47.0617 49.16C46.187 49.16 45.4137 48.9787 44.7417 48.616C44.0804 48.2427 43.563 47.736 43.1897 47.096C42.8164 46.4453 42.6297 45.7093 42.6297 44.888C42.6297 43.9493 42.827 43.1493 43.2217 42.488C43.6164 41.816 44.139 41.304 44.7897 40.952C45.4404 40.5893 46.1497 40.408 46.9177 40.408C47.6217 40.408 48.2617 40.584 48.8377 40.936C49.4137 41.2773 49.8724 41.752 50.2137 42.36C50.555 42.968 50.7257 43.6773 50.7257 44.488L50.7097 45.192H44.2777C44.3737 45.9493 44.683 46.552 45.2057 47C45.739 47.4373 46.411 47.656 47.2217 47.656C47.8084 47.656 48.283 47.5493 48.6457 47.336C49.0084 47.112 49.307 46.8987 49.5417 46.696L50.3577 47.896ZM46.9177 41.928C46.2884 41.928 45.739 42.0773 45.2697 42.376C44.8004 42.664 44.491 43.1653 44.3417 43.88H49.0457V43.768C49.0137 43.4053 48.891 43.0853 48.6777 42.808C48.475 42.5307 48.219 42.3173 47.9097 42.168C47.6004 42.008 47.2697 41.928 46.9177 41.928ZM60.3727 47.896H60.3567C60.0154 48.2267 59.546 48.52 58.9487 48.776C58.3514 49.032 57.7274 49.16 57.0767 49.16C56.202 49.16 55.4287 48.9787 54.7567 48.616C54.0954 48.2427 53.578 47.736 53.2047 47.096C52.8314 46.4453 52.6447 45.7093 52.6447 44.888C52.6447 43.9493 52.842 43.1493 53.2367 42.488C53.6314 41.816 54.154 41.304 54.8047 40.952C55.4554 40.5893 56.1647 40.408 56.9327 40.408C57.6367 40.408 58.2767 40.584 58.8527 40.936C59.4287 41.2773 59.8874 41.752 60.2287 42.36C60.57 42.968 60.7407 43.6773 60.7407 44.488L60.7247 45.192H54.2927C54.3887 45.9493 54.698 46.552 55.2207 47C55.754 47.4373 56.426 47.656 57.2367 47.656C57.8234 47.656 58.298 47.5493 58.6607 47.336C59.0234 47.112 59.322 46.8987 59.5567 46.696L60.3727 47.896ZM56.9327 41.928C56.3034 41.928 55.754 42.0773 55.2847 42.376C54.8154 42.664 54.506 43.1653 54.3567 43.88H59.0607V43.768C59.0287 43.4053 58.906 43.0853 58.6927 42.808C58.49 42.5307 58.234 42.3173 57.9247 42.168C57.6154 42.008 57.2847 41.928 56.9327 41.928ZM65.8597 49H64.2117V42.2H62.4677V40.6H64.2117V38.456H65.8597V40.6H67.8117V42.2H65.8597V49ZM79.3487 40.456C80.042 40.456 80.5967 40.616 81.0127 40.936C81.4287 41.2453 81.7274 41.672 81.9087 42.216C82.058 41.9493 82.2767 41.6827 82.5647 41.416C82.8527 41.1387 83.1887 40.9093 83.5727 40.728C83.9567 40.5467 84.3674 40.456 84.8047 40.456C85.53 40.456 86.0954 40.616 86.5007 40.936C86.906 41.2453 87.1887 41.6667 87.3487 42.2C87.5194 42.7227 87.6047 43.3093 87.6047 43.96V49H85.9407V44.056C85.9407 43.4373 85.8234 42.936 85.5887 42.552C85.354 42.168 84.9114 41.976 84.2607 41.976C83.642 41.976 83.13 42.1733 82.7247 42.568C82.33 42.952 82.1327 43.4213 82.1327 43.976V49H80.4687V44.024C80.4687 43.4267 80.3407 42.936 80.0847 42.552C79.8287 42.168 79.4074 41.976 78.8207 41.976C78.4154 41.976 78.0527 42.0667 77.7327 42.248C77.4127 42.4293 77.162 42.6693 76.9807 42.968C76.7994 43.256 76.7087 43.5813 76.7087 43.944V49H75.0447V40.6H76.7087V41.944C76.9647 41.56 77.322 41.2187 77.7807 40.92C78.25 40.6107 78.7727 40.456 79.3487 40.456ZM98.4991 44.792C98.4991 45.6453 98.3071 46.4027 97.9231 47.064C97.5497 47.7147 97.0377 48.2267 96.3871 48.6C95.7471 48.9733 95.0271 49.16 94.2271 49.16C93.4271 49.16 92.7017 48.9733 92.0511 48.6C91.4004 48.2267 90.8831 47.7147 90.4991 47.064C90.1257 46.4027 89.9391 45.6453 89.9391 44.792C89.9391 43.9387 90.1257 43.1867 90.4991 42.536C90.8831 41.8747 91.4004 41.3573 92.0511 40.984C92.7017 40.6107 93.4271 40.424 94.2271 40.424C95.0271 40.424 95.7471 40.6107 96.3871 40.984C97.0377 41.3573 97.5497 41.8747 97.9231 42.536C98.3071 43.1867 98.4991 43.9387 98.4991 44.792ZM96.8191 44.792C96.8297 44.2267 96.7177 43.7307 96.4831 43.304C96.2591 42.8667 95.9497 42.5307 95.5551 42.296C95.1604 42.0507 94.7177 41.928 94.2271 41.928C93.7364 41.928 93.2884 42.0507 92.8831 42.296C92.4884 42.5307 92.1737 42.8667 91.9391 43.304C91.7151 43.7307 91.6084 44.2267 91.6191 44.792C91.6084 45.3467 91.7151 45.8427 91.9391 46.28C92.1737 46.7067 92.4884 47.0427 92.8831 47.288C93.2884 47.5333 93.7364 47.656 94.2271 47.656C94.7177 47.656 95.1604 47.5333 95.5551 47.288C95.9497 47.0427 96.2591 46.7067 96.4831 46.28C96.7177 45.8427 96.8297 45.3467 96.8191 44.792ZM105.207 40.456C105.9 40.456 106.455 40.616 106.871 40.936C107.287 41.2453 107.585 41.672 107.767 42.216C107.916 41.9493 108.135 41.6827 108.423 41.416C108.711 41.1387 109.047 40.9093 109.431 40.728C109.815 40.5467 110.225 40.456 110.663 40.456C111.388 40.456 111.953 40.616 112.359 40.936C112.764 41.2453 113.047 41.6667 113.207 42.2C113.377 42.7227 113.463 43.3093 113.463 43.96V49H111.799V44.056C111.799 43.4373 111.681 42.936 111.447 42.552C111.212 42.168 110.769 41.976 110.119 41.976C109.5 41.976 108.988 42.1733 108.583 42.568C108.188 42.952 107.991 43.4213 107.991 43.976V49H106.327V44.024C106.327 43.4267 106.199 42.936 105.943 42.552C105.687 42.168 105.265 41.976 104.679 41.976C104.273 41.976 103.911 42.0667 103.591 42.248C103.271 42.4293 103.02 42.6693 102.839 42.968C102.657 43.256 102.567 43.5813 102.567 43.944V49H100.903V40.6H102.567V41.944C102.823 41.56 103.18 41.2187 103.639 40.92C104.108 40.6107 104.631 40.456 105.207 40.456ZM123.525 47.896H123.509C123.168 48.2267 122.699 48.52 122.101 48.776C121.504 49.032 120.88 49.16 120.229 49.16C119.355 49.16 118.581 48.9787 117.909 48.616C117.248 48.2427 116.731 47.736 116.357 47.096C115.984 46.4453 115.797 45.7093 115.797 44.888C115.797 43.9493 115.995 43.1493 116.389 42.488C116.784 41.816 117.307 41.304 117.957 40.952C118.608 40.5893 119.317 40.408 120.085 40.408C120.789 40.408 121.429 40.584 122.005 40.936C122.581 41.2773 123.04 41.752 123.381 42.36C123.723 42.968 123.893 43.6773 123.893 44.488L123.877 45.192H117.445C117.541 45.9493 117.851 46.552 118.373 47C118.907 47.4373 119.579 47.656 120.389 47.656C120.976 47.656 121.451 47.5493 121.813 47.336C122.176 47.112 122.475 46.8987 122.709 46.696L123.525 47.896ZM120.085 41.928C119.456 41.928 118.907 42.0773 118.437 42.376C117.968 42.664 117.659 43.1653 117.509 43.88H122.213V43.768C122.181 43.4053 122.059 43.0853 121.845 42.808C121.643 42.5307 121.387 42.3173 121.077 42.168C120.768 42.008 120.437 41.928 120.085 41.928ZM130.724 40.424C131.482 40.424 132.068 40.5787 132.484 40.888C132.9 41.1973 133.188 41.6133 133.348 42.136C133.519 42.6587 133.604 43.24 133.604 43.88V49H131.956V43.992C131.956 43.5867 131.903 43.224 131.796 42.904C131.69 42.584 131.508 42.3333 131.252 42.152C130.996 41.9707 130.639 41.896 130.18 41.928C129.754 41.928 129.375 42.0187 129.044 42.2C128.714 42.3813 128.452 42.6213 128.26 42.92C128.068 43.2187 127.972 43.5493 127.972 43.912V49H126.324V40.6H127.972V41.928C128.228 41.5333 128.602 41.1867 129.092 40.888C129.583 40.5787 130.127 40.424 130.724 40.424ZM139.168 49H137.52V42.2H135.776V40.6H137.52V38.456H139.168V40.6H141.12V42.2H139.168V49ZM151.073 49H149.425V42.2H147.681V40.6H149.425V38.456H151.073V40.6H153.025V42.2H151.073V49ZM163.135 44.792C163.135 45.6453 162.943 46.4027 162.559 47.064C162.186 47.7147 161.674 48.2267 161.023 48.6C160.383 48.9733 159.663 49.16 158.863 49.16C158.063 49.16 157.338 48.9733 156.687 48.6C156.037 48.2267 155.519 47.7147 155.135 47.064C154.762 46.4027 154.575 45.6453 154.575 44.792C154.575 43.9387 154.762 43.1867 155.135 42.536C155.519 41.8747 156.037 41.3573 156.687 40.984C157.338 40.6107 158.063 40.424 158.863 40.424C159.663 40.424 160.383 40.6107 161.023 40.984C161.674 41.3573 162.186 41.8747 162.559 42.536C162.943 43.1867 163.135 43.9387 163.135 44.792ZM161.455 44.792C161.466 44.2267 161.354 43.7307 161.119 43.304C160.895 42.8667 160.586 42.5307 160.191 42.296C159.797 42.0507 159.354 41.928 158.863 41.928C158.373 41.928 157.925 42.0507 157.519 42.296C157.125 42.5307 156.81 42.8667 156.575 43.304C156.351 43.7307 156.245 44.2267 156.255 44.792C156.245 45.3467 156.351 45.8427 156.575 46.28C156.81 46.7067 157.125 47.0427 157.519 47.288C157.925 47.5333 158.373 47.656 158.863 47.656C159.354 47.656 159.797 47.5333 160.191 47.288C160.586 47.0427 160.895 46.7067 161.119 46.28C161.354 45.8427 161.466 45.3467 161.455 44.792ZM166.723 50.392C167.043 50.6373 167.443 50.8347 167.923 50.984C168.403 51.1333 168.872 51.208 169.331 51.208C170.195 51.208 170.856 50.9947 171.315 50.568C171.774 50.152 172.003 49.5227 172.003 48.68V47.656C171.854 47.912 171.64 48.1573 171.363 48.392C171.086 48.616 170.76 48.8027 170.387 48.952C170.014 49.0907 169.624 49.16 169.219 49.16C168.44 49.16 167.736 48.9733 167.107 48.6C166.478 48.2267 165.976 47.7093 165.603 47.048C165.24 46.3867 165.059 45.6347 165.059 44.792C165.059 43.9387 165.24 43.1867 165.603 42.536C165.966 41.8747 166.456 41.3573 167.075 40.984C167.704 40.6107 168.403 40.424 169.171 40.424C169.811 40.424 170.376 40.568 170.867 40.856C171.368 41.1333 171.747 41.4373 172.003 41.768V40.6H173.651V48.488C173.651 49.4907 173.448 50.296 173.043 50.904C172.648 51.5227 172.12 51.9707 171.459 52.248C170.808 52.536 170.099 52.68 169.331 52.68C168.734 52.68 168.136 52.584 167.539 52.392C166.952 52.2107 166.478 51.9707 166.115 51.672L166.723 50.392ZM169.395 41.928C168.883 41.928 168.424 42.056 168.019 42.312C167.624 42.5573 167.31 42.8987 167.075 43.336C166.851 43.7627 166.739 44.248 166.739 44.792C166.739 45.336 166.851 45.8213 167.075 46.248C167.31 46.6747 167.624 47.016 168.019 47.272C168.424 47.5173 168.883 47.64 169.395 47.64C169.928 47.64 170.392 47.5173 170.787 47.272C171.192 47.0267 171.507 46.6907 171.731 46.264C171.955 45.8267 172.067 45.336 172.067 44.792C172.067 44.2373 171.955 43.7467 171.731 43.32C171.507 42.8933 171.192 42.5573 170.787 42.312C170.392 42.056 169.928 41.928 169.395 41.928ZM183.818 47.896H183.802C183.46 48.2267 182.991 48.52 182.394 48.776C181.796 49.032 181.172 49.16 180.522 49.16C179.647 49.16 178.874 48.9787 178.202 48.616C177.54 48.2427 177.023 47.736 176.65 47.096C176.276 46.4453 176.09 45.7093 176.09 44.888C176.09 43.9493 176.287 43.1493 176.682 42.488C177.076 41.816 177.599 41.304 178.25 40.952C178.9 40.5893 179.61 40.408 180.378 40.408C181.082 40.408 181.722 40.584 182.298 40.936C182.874 41.2773 183.332 41.752 183.674 42.36C184.015 42.968 184.186 43.6773 184.186 44.488L184.17 45.192H177.738C177.834 45.9493 178.143 46.552 178.666 47C179.199 47.4373 179.871 47.656 180.682 47.656C181.268 47.656 181.743 47.5493 182.106 47.336C182.468 47.112 182.767 46.8987 183.002 46.696L183.818 47.896ZM180.378 41.928C179.748 41.928 179.199 42.0773 178.73 42.376C178.26 42.664 177.951 43.1653 177.802 43.88H182.506V43.768C182.474 43.4053 182.351 43.0853 182.138 42.808C181.935 42.5307 181.679 42.3173 181.37 42.168C181.06 42.008 180.73 41.928 180.378 41.928ZM189.305 49H187.657V42.2H185.913V40.6H187.657V38.456H189.305V40.6H191.257V42.2H189.305V49ZM197.797 40.424C198.555 40.424 199.141 40.5787 199.557 40.888C199.973 41.1973 200.261 41.6133 200.421 42.136C200.592 42.6587 200.677 43.24 200.677 43.88V49H199.029V43.992C199.029 43.5867 198.976 43.224 198.869 42.904C198.763 42.584 198.581 42.3333 198.325 42.152C198.069 41.9707 197.712 41.896 197.253 41.928C196.827 41.928 196.448 42.0187 196.117 42.2C195.787 42.3813 195.525 42.6213 195.333 42.92C195.141 43.2187 195.045 43.5493 195.045 43.912V49H193.397V37.16H195.045V41.928C195.301 41.5333 195.675 41.1867 196.165 40.888C196.656 40.5787 197.2 40.424 197.797 40.424ZM210.769 47.896H210.753C210.412 48.2267 209.942 48.52 209.345 48.776C208.748 49.032 208.124 49.16 207.473 49.16C206.598 49.16 205.825 48.9787 205.153 48.616C204.492 48.2427 203.974 47.736 203.601 47.096C203.228 46.4453 203.041 45.7093 203.041 44.888C203.041 43.9493 203.238 43.1493 203.633 42.488C204.028 41.816 204.55 41.304 205.201 40.952C205.852 40.5893 206.561 40.408 207.329 40.408C208.033 40.408 208.673 40.584 209.249 40.936C209.825 41.2773 210.284 41.752 210.625 42.36C210.966 42.968 211.137 43.6773 211.137 44.488L211.121 45.192H204.689C204.785 45.9493 205.094 46.552 205.617 47C206.15 47.4373 206.822 47.656 207.633 47.656C208.22 47.656 208.694 47.5493 209.057 47.336C209.42 47.112 209.718 46.8987 209.953 46.696L210.769 47.896ZM207.329 41.928C206.7 41.928 206.15 42.0773 205.681 42.376C205.212 42.664 204.902 43.1653 204.753 43.88H209.457V43.768C209.425 43.4053 209.302 43.0853 209.089 42.808C208.886 42.5307 208.63 42.3173 208.321 42.168C208.012 42.008 207.681 41.928 207.329 41.928ZM218.272 42.376C218.165 42.3227 218.032 42.28 217.872 42.248C217.723 42.2053 217.563 42.184 217.392 42.184C217.051 42.184 216.715 42.2747 216.384 42.456C216.053 42.6267 215.776 42.8773 215.552 43.208C215.339 43.528 215.232 43.912 215.232 44.36V49H213.568V40.6H215.232V42.184C215.467 41.672 215.819 41.2507 216.288 40.92C216.768 40.5893 217.269 40.424 217.792 40.424C218.187 40.424 218.491 40.4773 218.704 40.584L218.272 42.376ZM226.981 45.144L226.661 38.936L226.613 37.032H228.389L228.341 38.936L228.021 45.144H226.981ZM227.509 49.08C226.933 49.08 226.469 48.68 226.469 48.04C226.469 47.4 226.933 46.968 227.509 46.968C228.069 46.968 228.533 47.4 228.533 48.04C228.533 48.68 228.069 49.08 227.509 49.08Z" fill="#BDA074"/>
</svg>
