<svg width="251" height="66" viewBox="0 0 251 66" fill="none" xmlns="http://www.w3.org/2000/svg">
<path fill-rule="evenodd" clip-rule="evenodd" d="M24 0C10.7452 0 0 10.7452 0 24V42C0 55.2548 10.7452 66 24 66H219.213H227H250.266L241.654 61.0082C247.339 56.6193 251 49.7372 251 42V24C251 10.7452 240.255 0 227 0H24Z" fill="#FEFBF6"/>
<path d="M52.4788 29H47.1348V27.4H48.9428V19.4H47.1348V17.8H52.4788V19.4H50.6708V27.4H52.4788V29ZM60.2634 22.808C59.9648 22.5093 59.6234 22.264 59.2394 22.072C58.8661 21.88 58.5194 21.784 58.1994 21.784C57.9754 21.784 57.7514 21.8107 57.5274 21.864C57.3141 21.9173 57.1328 22.0187 56.9834 22.168C56.8341 22.3067 56.7594 22.5147 56.7594 22.792C56.7701 23.176 56.9408 23.448 57.2714 23.608C57.6128 23.768 58.0341 23.912 58.5354 24.04C58.9728 24.1573 59.3994 24.3067 59.8154 24.488C60.2314 24.6587 60.5728 24.9147 60.8394 25.256C61.1168 25.5867 61.2554 26.056 61.2554 26.664C61.2554 27.1867 61.1061 27.6347 60.8074 28.008C60.5194 28.3813 60.1408 28.6693 59.6714 28.872C59.2128 29.064 58.7274 29.16 58.2154 29.16C57.6074 29.16 57.0048 29.0533 56.4074 28.84C55.8208 28.616 55.3194 28.2373 54.9034 27.704L56.0234 26.744C56.3114 27.0747 56.6368 27.336 56.9994 27.528C57.3728 27.7093 57.8261 27.8 58.3594 27.8C58.5621 27.8 58.7648 27.768 58.9674 27.704C59.1701 27.6293 59.3408 27.5173 59.4794 27.368C59.6288 27.208 59.7034 26.9947 59.7034 26.728C59.7034 26.472 59.6234 26.2747 59.4634 26.136C59.3141 25.9867 59.1114 25.8693 58.8554 25.784C58.5994 25.688 58.3168 25.6027 58.0074 25.528C57.5488 25.4 57.0954 25.2453 56.6474 25.064C56.2101 24.872 55.8421 24.6053 55.5434 24.264C55.2554 23.912 55.1114 23.4373 55.1114 22.84C55.1114 22.3387 55.2501 21.912 55.5274 21.56C55.8154 21.1973 56.1888 20.92 56.6474 20.728C57.1061 20.5253 57.5968 20.424 58.1194 20.424C58.6208 20.424 59.1648 20.5307 59.7514 20.744C60.3381 20.9573 60.8234 21.2987 61.2074 21.768L60.2634 22.808ZM69.9401 18.776C69.5667 18.776 69.2894 18.68 69.1081 18.488C68.9267 18.296 68.8361 18.0453 68.8361 17.736C68.8361 17.4693 68.9267 17.2293 69.1081 17.016C69.2894 16.8027 69.5667 16.696 69.9401 16.696C70.3134 16.696 70.5907 16.792 70.7721 16.984C70.9534 17.176 71.0441 17.4267 71.0441 17.736C71.0441 18.0027 70.9534 18.2427 70.7721 18.456C70.5907 18.6693 70.3134 18.776 69.9401 18.776ZM70.7881 29H69.1401V20.6H70.7881V29ZM76.6172 29H74.9692V22.2H73.2252V20.6H74.9692V18.456H76.6172V20.6H78.5692V22.2H76.6172V29ZM93.2262 27.336V29H86.2502V17.8H87.9782V27.336H93.2262ZM103.564 20.6V29H101.9V27.704C101.644 28.056 101.265 28.3867 100.764 28.696C100.262 29.0053 99.6811 29.16 99.0198 29.16C98.3158 29.16 97.6705 28.9733 97.0838 28.6C96.5078 28.2267 96.0491 27.7093 95.7078 27.048C95.3665 26.3867 95.1958 25.6293 95.1958 24.776C95.1958 23.9227 95.3718 23.1707 95.7238 22.52C96.0758 21.8587 96.5611 21.3467 97.1798 20.984C97.7985 20.6107 98.5025 20.424 99.2918 20.424C99.8785 20.424 100.39 20.552 100.828 20.808C101.276 21.064 101.633 21.3627 101.9 21.704V20.6H103.564ZM99.4038 27.64C99.9158 27.64 100.364 27.5173 100.748 27.272C101.132 27.016 101.43 26.6747 101.644 26.248C101.857 25.8107 101.964 25.32 101.964 24.776C101.964 24.2427 101.857 23.7627 101.644 23.336C101.43 22.9093 101.132 22.5733 100.748 22.328C100.364 22.072 99.9158 21.944 99.4038 21.944C98.9131 21.944 98.4758 22.0667 98.0918 22.312C97.7078 22.5573 97.4091 22.8933 97.1958 23.32C96.9825 23.7467 96.8758 24.232 96.8758 24.776C96.8758 25.32 96.9825 25.8107 97.1958 26.248C97.4091 26.6747 97.7078 27.016 98.0918 27.272C98.4758 27.5173 98.9131 27.64 99.4038 27.64ZM112.377 27.576V29H106.153V27.624L110.345 22.024H106.153V20.6H112.281V21.944L108.073 27.576H112.377ZM116.303 32.68L117.679 29.528L117.727 29.416L113.823 20.6H115.743L118.367 26.776C118.399 26.84 118.431 26.92 118.463 27.016C118.495 27.112 118.532 27.2187 118.575 27.336C118.617 27.2187 118.655 27.1067 118.687 27C118.729 26.8827 118.772 26.7707 118.815 26.664L121.007 20.6H122.959L119.503 29L118.079 32.68H116.303ZM134.756 17.8C135.62 17.8 136.377 17.9493 137.028 18.248C137.689 18.536 138.239 18.9413 138.676 19.464C139.113 19.976 139.444 20.5733 139.668 21.256C139.892 21.928 140.004 22.6427 140.004 23.4C140.004 24.424 139.807 25.3627 139.412 26.216C139.017 27.0587 138.431 27.736 137.652 28.248C136.873 28.7493 135.908 29 134.756 29H130.372V17.8H134.756ZM134.676 27.336C135.519 27.336 136.201 27.16 136.724 26.808C137.247 26.4453 137.631 25.9653 137.876 25.368C138.121 24.7707 138.244 24.1147 138.244 23.4C138.244 22.696 138.121 22.0453 137.876 21.448C137.631 20.8507 137.247 20.3707 136.724 20.008C136.201 19.6453 135.519 19.464 134.676 19.464H132.1V27.336H134.676ZM149.781 27.896H149.765C149.423 28.2267 148.954 28.52 148.357 28.776C147.759 29.032 147.135 29.16 146.485 29.16C145.61 29.16 144.837 28.9787 144.165 28.616C143.503 28.2427 142.986 27.736 142.613 27.096C142.239 26.4453 142.053 25.7093 142.053 24.888C142.053 23.9493 142.25 23.1493 142.645 22.488C143.039 21.816 143.562 21.304 144.213 20.952C144.863 20.5893 145.573 20.408 146.341 20.408C147.045 20.408 147.685 20.584 148.261 20.936C148.837 21.2773 149.295 21.752 149.637 22.36C149.978 22.968 150.149 23.6773 150.149 24.488L150.133 25.192H143.701C143.797 25.9493 144.106 26.552 144.629 27C145.162 27.4373 145.834 27.656 146.645 27.656C147.231 27.656 147.706 27.5493 148.069 27.336C148.431 27.112 148.73 26.8987 148.965 26.696L149.781 27.896ZM146.341 21.928C145.711 21.928 145.162 22.0773 144.693 22.376C144.223 22.664 143.914 23.1653 143.765 23.88H148.469V23.768C148.437 23.4053 148.314 23.0853 148.101 22.808C147.898 22.5307 147.642 22.3173 147.333 22.168C147.023 22.008 146.693 21.928 146.341 21.928ZM157.428 22.808C157.129 22.5093 156.788 22.264 156.404 22.072C156.03 21.88 155.684 21.784 155.364 21.784C155.14 21.784 154.916 21.8107 154.692 21.864C154.478 21.9173 154.297 22.0187 154.148 22.168C153.998 22.3067 153.924 22.5147 153.924 22.792C153.934 23.176 154.105 23.448 154.436 23.608C154.777 23.768 155.198 23.912 155.7 24.04C156.137 24.1573 156.564 24.3067 156.98 24.488C157.396 24.6587 157.737 24.9147 158.004 25.256C158.281 25.5867 158.42 26.056 158.42 26.664C158.42 27.1867 158.27 27.6347 157.972 28.008C157.684 28.3813 157.305 28.6693 156.836 28.872C156.377 29.064 155.892 29.16 155.38 29.16C154.772 29.16 154.169 29.0533 153.572 28.84C152.985 28.616 152.484 28.2373 152.068 27.704L153.188 26.744C153.476 27.0747 153.801 27.336 154.164 27.528C154.537 27.7093 154.99 27.8 155.524 27.8C155.726 27.8 155.929 27.768 156.132 27.704C156.334 27.6293 156.505 27.5173 156.644 27.368C156.793 27.208 156.868 26.9947 156.868 26.728C156.868 26.472 156.788 26.2747 156.628 26.136C156.478 25.9867 156.276 25.8693 156.02 25.784C155.764 25.688 155.481 25.6027 155.172 25.528C154.713 25.4 154.26 25.2453 153.812 25.064C153.374 24.872 153.006 24.6053 152.708 24.264C152.42 23.912 152.276 23.4373 152.276 22.84C152.276 22.3387 152.414 21.912 152.692 21.56C152.98 21.1973 153.353 20.92 153.812 20.728C154.27 20.5253 154.761 20.424 155.284 20.424C155.785 20.424 156.329 20.5307 156.916 20.744C157.502 20.9573 157.988 21.2987 158.372 21.768L157.428 22.808ZM165.724 22.808C165.425 22.5093 165.084 22.264 164.7 22.072C164.327 21.88 163.98 21.784 163.66 21.784C163.436 21.784 163.212 21.8107 162.988 21.864C162.775 21.9173 162.593 22.0187 162.444 22.168C162.295 22.3067 162.22 22.5147 162.22 22.792C162.231 23.176 162.401 23.448 162.732 23.608C163.073 23.768 163.495 23.912 163.996 24.04C164.433 24.1573 164.86 24.3067 165.276 24.488C165.692 24.6587 166.033 24.9147 166.3 25.256C166.577 25.5867 166.716 26.056 166.716 26.664C166.716 27.1867 166.567 27.6347 166.268 28.008C165.98 28.3813 165.601 28.6693 165.132 28.872C164.673 29.064 164.188 29.16 163.676 29.16C163.068 29.16 162.465 29.0533 161.868 28.84C161.281 28.616 160.78 28.2373 160.364 27.704L161.484 26.744C161.772 27.0747 162.097 27.336 162.46 27.528C162.833 27.7093 163.287 27.8 163.82 27.8C164.023 27.8 164.225 27.768 164.428 27.704C164.631 27.6293 164.801 27.5173 164.94 27.368C165.089 27.208 165.164 26.9947 165.164 26.728C165.164 26.472 165.084 26.2747 164.924 26.136C164.775 25.9867 164.572 25.8693 164.316 25.784C164.06 25.688 163.777 25.6027 163.468 25.528C163.009 25.4 162.556 25.2453 162.108 25.064C161.671 24.872 161.303 24.6053 161.004 24.264C160.716 23.912 160.572 23.4373 160.572 22.84C160.572 22.3387 160.711 21.912 160.988 21.56C161.276 21.1973 161.649 20.92 162.108 20.728C162.567 20.5253 163.057 20.424 163.58 20.424C164.081 20.424 164.625 20.5307 165.212 20.744C165.799 20.9573 166.284 21.2987 166.668 21.768L165.724 22.808ZM176.388 27.896H176.372C176.031 28.2267 175.562 28.52 174.964 28.776C174.367 29.032 173.743 29.16 173.092 29.16C172.218 29.16 171.444 28.9787 170.772 28.616C170.111 28.2427 169.594 27.736 169.22 27.096C168.847 26.4453 168.66 25.7093 168.66 24.888C168.66 23.9493 168.858 23.1493 169.252 22.488C169.647 21.816 170.17 21.304 170.82 20.952C171.471 20.5893 172.18 20.408 172.948 20.408C173.652 20.408 174.292 20.584 174.868 20.936C175.444 21.2773 175.903 21.752 176.244 22.36C176.586 22.968 176.756 23.6773 176.756 24.488L176.74 25.192H170.308C170.404 25.9493 170.714 26.552 171.236 27C171.77 27.4373 172.442 27.656 173.252 27.656C173.839 27.656 174.314 27.5493 174.676 27.336C175.039 27.112 175.338 26.8987 175.572 26.696L176.388 27.896ZM172.948 21.928C172.319 21.928 171.77 22.0773 171.3 22.376C170.831 22.664 170.522 23.1653 170.372 23.88H175.076V23.768C175.044 23.4053 174.922 23.0853 174.708 22.808C174.506 22.5307 174.25 22.3173 173.94 22.168C173.631 22.008 173.3 21.928 172.948 21.928ZM183.891 22.376C183.785 22.3227 183.651 22.28 183.491 22.248C183.342 22.2053 183.182 22.184 183.011 22.184C182.67 22.184 182.334 22.2747 182.003 22.456C181.673 22.6267 181.395 22.8773 181.171 23.208C180.958 23.528 180.851 23.912 180.851 24.36V29H179.187V20.6H180.851V22.184C181.086 21.672 181.438 21.2507 181.907 20.92C182.387 20.5893 182.889 20.424 183.411 20.424C183.806 20.424 184.11 20.4773 184.323 20.584L183.891 22.376ZM189.281 29H187.633V22.2H185.889V20.6H187.633V18.456H189.281V20.6H191.233V22.2H189.281V29ZM195.438 19.16C195.438 19.5653 195.326 19.944 195.102 20.296C194.888 20.648 194.606 20.952 194.254 21.208C193.902 21.464 193.534 21.6507 193.15 21.768L192.542 21.032C192.958 20.84 193.299 20.6213 193.566 20.376C193.832 20.1307 193.966 19.9173 193.966 19.736C193.966 19.5867 193.907 19.4587 193.79 19.352C193.683 19.2453 193.56 19.1387 193.422 19.032C193.283 18.9253 193.155 18.808 193.038 18.68C192.931 18.552 192.878 18.392 192.878 18.2C192.878 17.9333 192.968 17.7253 193.15 17.576C193.342 17.4267 193.576 17.352 193.854 17.352C194.248 17.352 194.611 17.5067 194.942 17.816C195.272 18.1253 195.438 18.5733 195.438 19.16ZM202.721 22.808C202.422 22.5093 202.081 22.264 201.697 22.072C201.324 21.88 200.977 21.784 200.657 21.784C200.433 21.784 200.209 21.8107 199.985 21.864C199.772 21.9173 199.59 22.0187 199.441 22.168C199.292 22.3067 199.217 22.5147 199.217 22.792C199.228 23.176 199.398 23.448 199.729 23.608C200.07 23.768 200.492 23.912 200.993 24.04C201.43 24.1573 201.857 24.3067 202.273 24.488C202.689 24.6587 203.03 24.9147 203.297 25.256C203.574 25.5867 203.713 26.056 203.713 26.664C203.713 27.1867 203.564 27.6347 203.265 28.008C202.977 28.3813 202.598 28.6693 202.129 28.872C201.67 29.064 201.185 29.16 200.673 29.16C200.065 29.16 199.462 29.0533 198.865 28.84C198.278 28.616 197.777 28.2373 197.361 27.704L198.481 26.744C198.769 27.0747 199.094 27.336 199.457 27.528C199.83 27.7093 200.284 27.8 200.817 27.8C201.02 27.8 201.222 27.768 201.425 27.704C201.628 27.6293 201.798 27.5173 201.937 27.368C202.086 27.208 202.161 26.9947 202.161 26.728C202.161 26.472 202.081 26.2747 201.921 26.136C201.772 25.9867 201.569 25.8693 201.313 25.784C201.057 25.688 200.774 25.6027 200.465 25.528C200.006 25.4 199.553 25.2453 199.105 25.064C198.668 24.872 198.3 24.6053 198.001 24.264C197.713 23.912 197.569 23.4373 197.569 22.84C197.569 22.3387 197.708 21.912 197.985 21.56C198.273 21.1973 198.646 20.92 199.105 20.728C199.564 20.5253 200.054 20.424 200.577 20.424C201.078 20.424 201.622 20.5307 202.209 20.744C202.796 20.9573 203.281 21.2987 203.665 21.768L202.721 22.808ZM30.3757 37.8L25.8637 49H24.1837L19.7037 37.8H21.6717L24.3437 44.6C24.4824 44.9627 24.6157 45.32 24.7437 45.672C24.8824 46.024 25.0104 46.3813 25.1277 46.744C25.245 46.3813 25.3677 46.024 25.4957 45.672C25.6237 45.3093 25.7517 44.952 25.8797 44.6L28.3597 37.8H30.3757ZM39.4201 40.6V49H37.7561V47.704C37.5001 48.056 37.1214 48.3867 36.6201 48.696C36.1187 49.0053 35.5374 49.16 34.8761 49.16C34.1721 49.16 33.5267 48.9733 32.9401 48.6C32.3641 48.2267 31.9054 47.7093 31.5641 47.048C31.2227 46.3867 31.0521 45.6293 31.0521 44.776C31.0521 43.9227 31.2281 43.1707 31.5801 42.52C31.9321 41.8587 32.4174 41.3467 33.0361 40.984C33.6547 40.6107 34.3587 40.424 35.1481 40.424C35.7347 40.424 36.2467 40.552 36.6841 40.808C37.1321 41.064 37.4894 41.3627 37.7561 41.704V40.6H39.4201ZM35.2601 47.64C35.7721 47.64 36.2201 47.5173 36.6041 47.272C36.9881 47.016 37.2867 46.6747 37.5001 46.248C37.7134 45.8107 37.8201 45.32 37.8201 44.776C37.8201 44.2427 37.7134 43.7627 37.5001 43.336C37.2867 42.9093 36.9881 42.5733 36.6041 42.328C36.2201 42.072 35.7721 41.944 35.2601 41.944C34.7694 41.944 34.3321 42.0667 33.9481 42.312C33.5641 42.5573 33.2654 42.8933 33.0521 43.32C32.8387 43.7467 32.7321 44.232 32.7321 44.776C32.7321 45.32 32.8387 45.8107 33.0521 46.248C33.2654 46.6747 33.5641 47.016 33.9481 47.272C34.3321 47.5173 34.7694 47.64 35.2601 47.64ZM42.3611 49V37.16H44.0091V49H42.3611ZM54.0608 47.896H54.0448C53.7035 48.2267 53.2341 48.52 52.6368 48.776C52.0395 49.032 51.4155 49.16 50.7648 49.16C49.8901 49.16 49.1168 48.9787 48.4448 48.616C47.7835 48.2427 47.2661 47.736 46.8928 47.096C46.5195 46.4453 46.3328 45.7093 46.3328 44.888C46.3328 43.9493 46.5301 43.1493 46.9248 42.488C47.3195 41.816 47.8421 41.304 48.4928 40.952C49.1435 40.5893 49.8528 40.408 50.6208 40.408C51.3248 40.408 51.9648 40.584 52.5408 40.936C53.1168 41.2773 53.5755 41.752 53.9168 42.36C54.2581 42.968 54.4288 43.6773 54.4288 44.488L54.4128 45.192H47.9808C48.0768 45.9493 48.3861 46.552 48.9088 47C49.4421 47.4373 50.1141 47.656 50.9248 47.656C51.5115 47.656 51.9861 47.5493 52.3488 47.336C52.7115 47.112 53.0101 46.8987 53.2448 46.696L54.0608 47.896ZM50.6208 41.928C49.9915 41.928 49.4421 42.0773 48.9728 42.376C48.5035 42.664 48.1941 43.1653 48.0448 43.88H52.7488V43.768C52.7168 43.4053 52.5941 43.0853 52.3808 42.808C52.1781 42.5307 51.9221 42.3173 51.6128 42.168C51.3035 42.008 50.9728 41.928 50.6208 41.928ZM61.2598 40.424C62.0171 40.424 62.6038 40.5787 63.0198 40.888C63.4358 41.1973 63.7238 41.6133 63.8838 42.136C64.0545 42.6587 64.1398 43.24 64.1398 43.88V49H62.4918V43.992C62.4918 43.5867 62.4385 43.224 62.3318 42.904C62.2251 42.584 62.0438 42.3333 61.7878 42.152C61.5318 41.9707 61.1745 41.896 60.7158 41.928C60.2891 41.928 59.9105 42.0187 59.5798 42.2C59.2491 42.3813 58.9878 42.6213 58.7958 42.92C58.6038 43.2187 58.5078 43.5493 58.5078 43.912V49H56.8598V40.6H58.5078V41.928C58.7638 41.5333 59.1371 41.1867 59.6278 40.888C60.1185 40.5787 60.6625 40.424 61.2598 40.424ZM69.7034 49H68.0554V42.2H66.3114V40.6H68.0554V38.456H69.7034V40.6H71.6554V42.2H69.7034V49ZM74.9001 38.776C74.5267 38.776 74.2494 38.68 74.0681 38.488C73.8867 38.296 73.7961 38.0453 73.7961 37.736C73.7961 37.4693 73.8867 37.2293 74.0681 37.016C74.2494 36.8027 74.5267 36.696 74.9001 36.696C75.2734 36.696 75.5507 36.792 75.7321 36.984C75.9134 37.176 76.0041 37.4267 76.0041 37.736C76.0041 38.0027 75.9134 38.2427 75.7321 38.456C75.5507 38.6693 75.2734 38.776 74.9001 38.776ZM75.7481 49H74.1001V40.6H75.7481V49ZM83.2892 40.424C84.0465 40.424 84.6332 40.5787 85.0492 40.888C85.4652 41.1973 85.7532 41.6133 85.9132 42.136C86.0839 42.6587 86.1692 43.24 86.1692 43.88V49H84.5212V43.992C84.5212 43.5867 84.4679 43.224 84.3612 42.904C84.2545 42.584 84.0732 42.3333 83.8172 42.152C83.5612 41.9707 83.2039 41.896 82.7452 41.928C82.3185 41.928 81.9399 42.0187 81.6092 42.2C81.2785 42.3813 81.0172 42.6213 80.8252 42.92C80.6332 43.2187 80.5372 43.5493 80.5372 43.912V49H78.8892V40.6H80.5372V41.928C80.7932 41.5333 81.1665 41.1867 81.6572 40.888C82.1479 40.5787 82.6919 40.424 83.2892 40.424ZM96.2608 47.896H96.2448C95.9035 48.2267 95.4341 48.52 94.8368 48.776C94.2395 49.032 93.6155 49.16 92.9648 49.16C92.0901 49.16 91.3168 48.9787 90.6448 48.616C89.9835 48.2427 89.4661 47.736 89.0928 47.096C88.7195 46.4453 88.5328 45.7093 88.5328 44.888C88.5328 43.9493 88.7301 43.1493 89.1248 42.488C89.5195 41.816 90.0421 41.304 90.6928 40.952C91.3435 40.5893 92.0528 40.408 92.8208 40.408C93.5248 40.408 94.1648 40.584 94.7408 40.936C95.3168 41.2773 95.7755 41.752 96.1168 42.36C96.4581 42.968 96.6288 43.6773 96.6288 44.488L96.6128 45.192H90.1808C90.2768 45.9493 90.5861 46.552 91.1088 47C91.6421 47.4373 92.3141 47.656 93.1248 47.656C93.7115 47.656 94.1861 47.5493 94.5488 47.336C94.9115 47.112 95.2101 46.8987 95.4448 46.696L96.2608 47.896ZM92.8208 41.928C92.1915 41.928 91.6421 42.0773 91.1728 42.376C90.7035 42.664 90.3941 43.1653 90.2448 43.88H94.9488V43.768C94.9168 43.4053 94.7941 43.0853 94.5808 42.808C94.3781 42.5307 94.1221 42.3173 93.8128 42.168C93.5035 42.008 93.1728 41.928 92.8208 41.928ZM101.124 39.16C101.124 39.5653 101.012 39.944 100.788 40.296C100.574 40.648 100.292 40.952 99.9398 41.208C99.5878 41.464 99.2198 41.6507 98.8358 41.768L98.2278 41.032C98.6438 40.84 98.9851 40.6213 99.2518 40.376C99.5185 40.1307 99.6518 39.9173 99.6518 39.736C99.6518 39.5867 99.5931 39.4587 99.4758 39.352C99.3691 39.2453 99.2465 39.1387 99.1078 39.032C98.9691 38.9253 98.8411 38.808 98.7238 38.68C98.6171 38.552 98.5638 38.392 98.5638 38.2C98.5638 37.9333 98.6545 37.7253 98.8358 37.576C99.0278 37.4267 99.2625 37.352 99.5398 37.352C99.9345 37.352 100.297 37.5067 100.628 37.816C100.958 38.1253 101.124 38.5733 101.124 39.16ZM108.407 42.808C108.109 42.5093 107.767 42.264 107.383 42.072C107.01 41.88 106.663 41.784 106.343 41.784C106.119 41.784 105.895 41.8107 105.671 41.864C105.458 41.9173 105.277 42.0187 105.127 42.168C104.978 42.3067 104.903 42.5147 104.903 42.792C104.914 43.176 105.085 43.448 105.415 43.608C105.757 43.768 106.178 43.912 106.679 44.04C107.117 44.1573 107.543 44.3067 107.959 44.488C108.375 44.6587 108.717 44.9147 108.983 45.256C109.261 45.5867 109.399 46.056 109.399 46.664C109.399 47.1867 109.25 47.6347 108.951 48.008C108.663 48.3813 108.285 48.6693 107.815 48.872C107.357 49.064 106.871 49.16 106.359 49.16C105.751 49.16 105.149 49.0533 104.551 48.84C103.965 48.616 103.463 48.2373 103.047 47.704L104.167 46.744C104.455 47.0747 104.781 47.336 105.143 47.528C105.517 47.7093 105.97 47.8 106.503 47.8C106.706 47.8 106.909 47.768 107.111 47.704C107.314 47.6293 107.485 47.5173 107.623 47.368C107.773 47.208 107.847 46.9947 107.847 46.728C107.847 46.472 107.767 46.2747 107.607 46.136C107.458 45.9867 107.255 45.8693 106.999 45.784C106.743 45.688 106.461 45.6027 106.151 45.528C105.693 45.4 105.239 45.2453 104.791 45.064C104.354 44.872 103.986 44.6053 103.687 44.264C103.399 43.912 103.255 43.4373 103.255 42.84C103.255 42.3387 103.394 41.912 103.671 41.56C103.959 41.1973 104.333 40.92 104.791 40.728C105.25 40.5253 105.741 40.424 106.263 40.424C106.765 40.424 107.309 40.5307 107.895 40.744C108.482 40.9573 108.967 41.2987 109.351 41.768L108.407 42.808ZM121.78 37.8C122.644 37.8 123.401 37.9493 124.052 38.248C124.713 38.536 125.262 38.9413 125.7 39.464C126.137 39.976 126.468 40.5733 126.692 41.256C126.916 41.928 127.028 42.6427 127.028 43.4C127.028 44.424 126.83 45.3627 126.436 46.216C126.041 47.0587 125.454 47.736 124.676 48.248C123.897 48.7493 122.932 49 121.78 49H117.396V37.8H121.78ZM121.7 47.336C122.542 47.336 123.225 47.16 123.748 46.808C124.27 46.4453 124.654 45.9653 124.9 45.368C125.145 44.7707 125.268 44.1147 125.268 43.4C125.268 42.696 125.145 42.0453 124.9 41.448C124.654 40.8507 124.27 40.3707 123.748 40.008C123.225 39.6453 122.542 39.464 121.7 39.464H119.124V47.336H121.7ZM136.805 47.896H136.789C136.447 48.2267 135.978 48.52 135.381 48.776C134.783 49.032 134.159 49.16 133.509 49.16C132.634 49.16 131.861 48.9787 131.189 48.616C130.527 48.2427 130.01 47.736 129.637 47.096C129.263 46.4453 129.077 45.7093 129.077 44.888C129.077 43.9493 129.274 43.1493 129.669 42.488C130.063 41.816 130.586 41.304 131.237 40.952C131.887 40.5893 132.597 40.408 133.365 40.408C134.069 40.408 134.709 40.584 135.285 40.936C135.861 41.2773 136.319 41.752 136.661 42.36C137.002 42.968 137.173 43.6773 137.173 44.488L137.157 45.192H130.725C130.821 45.9493 131.13 46.552 131.653 47C132.186 47.4373 132.858 47.656 133.669 47.656C134.255 47.656 134.73 47.5493 135.093 47.336C135.455 47.112 135.754 46.8987 135.989 46.696L136.805 47.896ZM133.365 41.928C132.735 41.928 132.186 42.0773 131.717 42.376C131.247 42.664 130.938 43.1653 130.789 43.88H135.493V43.768C135.461 43.4053 135.338 43.0853 135.125 42.808C134.922 42.5307 134.666 42.3173 134.357 42.168C134.047 42.008 133.717 41.928 133.365 41.928ZM144.452 42.808C144.153 42.5093 143.812 42.264 143.428 42.072C143.054 41.88 142.708 41.784 142.388 41.784C142.164 41.784 141.94 41.8107 141.716 41.864C141.502 41.9173 141.321 42.0187 141.172 42.168C141.022 42.3067 140.948 42.5147 140.948 42.792C140.958 43.176 141.129 43.448 141.46 43.608C141.801 43.768 142.222 43.912 142.724 44.04C143.161 44.1573 143.588 44.3067 144.004 44.488C144.42 44.6587 144.761 44.9147 145.028 45.256C145.305 45.5867 145.444 46.056 145.444 46.664C145.444 47.1867 145.294 47.6347 144.996 48.008C144.708 48.3813 144.329 48.6693 143.86 48.872C143.401 49.064 142.916 49.16 142.404 49.16C141.796 49.16 141.193 49.0533 140.596 48.84C140.009 48.616 139.508 48.2373 139.092 47.704L140.212 46.744C140.5 47.0747 140.825 47.336 141.188 47.528C141.561 47.7093 142.014 47.8 142.548 47.8C142.75 47.8 142.953 47.768 143.156 47.704C143.358 47.6293 143.529 47.5173 143.668 47.368C143.817 47.208 143.892 46.9947 143.892 46.728C143.892 46.472 143.812 46.2747 143.652 46.136C143.502 45.9867 143.3 45.8693 143.044 45.784C142.788 45.688 142.505 45.6027 142.196 45.528C141.737 45.4 141.284 45.2453 140.836 45.064C140.398 44.872 140.03 44.6053 139.732 44.264C139.444 43.912 139.3 43.4373 139.3 42.84C139.3 42.3387 139.438 41.912 139.716 41.56C140.004 41.1973 140.377 40.92 140.836 40.728C141.294 40.5253 141.785 40.424 142.308 40.424C142.809 40.424 143.353 40.5307 143.94 40.744C144.526 40.9573 145.012 41.2987 145.396 41.768L144.452 42.808ZM152.748 42.808C152.449 42.5093 152.108 42.264 151.724 42.072C151.35 41.88 151.004 41.784 150.684 41.784C150.46 41.784 150.236 41.8107 150.012 41.864C149.798 41.9173 149.617 42.0187 149.468 42.168C149.318 42.3067 149.244 42.5147 149.244 42.792C149.254 43.176 149.425 43.448 149.756 43.608C150.097 43.768 150.518 43.912 151.02 44.04C151.457 44.1573 151.884 44.3067 152.3 44.488C152.716 44.6587 153.057 44.9147 153.324 45.256C153.601 45.5867 153.74 46.056 153.74 46.664C153.74 47.1867 153.59 47.6347 153.292 48.008C153.004 48.3813 152.625 48.6693 152.156 48.872C151.697 49.064 151.212 49.16 150.7 49.16C150.092 49.16 149.489 49.0533 148.892 48.84C148.305 48.616 147.804 48.2373 147.388 47.704L148.508 46.744C148.796 47.0747 149.121 47.336 149.484 47.528C149.857 47.7093 150.31 47.8 150.844 47.8C151.046 47.8 151.249 47.768 151.452 47.704C151.654 47.6293 151.825 47.5173 151.964 47.368C152.113 47.208 152.188 46.9947 152.188 46.728C152.188 46.472 152.108 46.2747 151.948 46.136C151.798 45.9867 151.596 45.8693 151.34 45.784C151.084 45.688 150.801 45.6027 150.492 45.528C150.033 45.4 149.58 45.2453 149.132 45.064C148.694 44.872 148.326 44.6053 148.028 44.264C147.74 43.912 147.596 43.4373 147.596 42.84C147.596 42.3387 147.734 41.912 148.012 41.56C148.3 41.1973 148.673 40.92 149.132 40.728C149.59 40.5253 150.081 40.424 150.604 40.424C151.105 40.424 151.649 40.5307 152.236 40.744C152.822 40.9573 153.308 41.2987 153.692 41.768L152.748 42.808ZM163.412 47.896H163.396C163.055 48.2267 162.585 48.52 161.988 48.776C161.391 49.032 160.767 49.16 160.116 49.16C159.241 49.16 158.468 48.9787 157.796 48.616C157.135 48.2427 156.617 47.736 156.244 47.096C155.871 46.4453 155.684 45.7093 155.684 44.888C155.684 43.9493 155.881 43.1493 156.276 42.488C156.671 41.816 157.193 41.304 157.844 40.952C158.495 40.5893 159.204 40.408 159.972 40.408C160.676 40.408 161.316 40.584 161.892 40.936C162.468 41.2773 162.927 41.752 163.268 42.36C163.609 42.968 163.78 43.6773 163.78 44.488L163.764 45.192H157.332C157.428 45.9493 157.737 46.552 158.26 47C158.793 47.4373 159.465 47.656 160.276 47.656C160.863 47.656 161.337 47.5493 161.7 47.336C162.063 47.112 162.361 46.8987 162.596 46.696L163.412 47.896ZM159.972 41.928C159.343 41.928 158.793 42.0773 158.324 42.376C157.855 42.664 157.545 43.1653 157.396 43.88H162.1V43.768C162.068 43.4053 161.945 43.0853 161.732 42.808C161.529 42.5307 161.273 42.3173 160.964 42.168C160.655 42.008 160.324 41.928 159.972 41.928ZM170.915 42.376C170.808 42.3227 170.675 42.28 170.515 42.248C170.366 42.2053 170.206 42.184 170.035 42.184C169.694 42.184 169.358 42.2747 169.027 42.456C168.696 42.6267 168.419 42.8773 168.195 43.208C167.982 43.528 167.875 43.912 167.875 44.36V49H166.211V40.6H167.875V42.184C168.11 41.672 168.462 41.2507 168.931 40.92C169.411 40.5893 169.912 40.424 170.435 40.424C170.83 40.424 171.134 40.4773 171.347 40.584L170.915 42.376ZM176.305 49H174.657V42.2H172.913V40.6H174.657V38.456H176.305V40.6H178.257V42.2H176.305V49ZM190.61 37.8C191.698 37.8 192.519 38.04 193.074 38.52C193.628 39 193.906 39.6987 193.906 40.616C193.906 41.1173 193.783 41.5653 193.538 41.96C193.303 42.3547 192.951 42.664 192.482 42.888C192.834 43.0053 193.159 43.1867 193.458 43.432C193.767 43.6667 194.018 43.9707 194.21 44.344C194.402 44.7173 194.498 45.1707 194.498 45.704C194.498 46.3547 194.386 46.8933 194.162 47.32C193.938 47.7467 193.644 48.0827 193.282 48.328C192.919 48.5733 192.519 48.7493 192.082 48.856C191.644 48.952 191.207 49 190.77 49H185.938V37.8H190.61ZM190.322 39.464H187.666V42.44H190.514C190.951 42.4293 191.335 42.296 191.666 42.04C192.007 41.784 192.178 41.4213 192.178 40.952C192.178 40.4187 191.996 40.04 191.634 39.816C191.282 39.5813 190.844 39.464 190.322 39.464ZM190.594 44.104H187.666V47.336H190.674C191.282 47.336 191.778 47.2027 192.162 46.936C192.546 46.6587 192.738 46.2373 192.738 45.672C192.738 45.2667 192.626 44.952 192.402 44.728C192.178 44.504 191.9 44.344 191.57 44.248C191.25 44.152 190.924 44.104 190.594 44.104ZM205.085 44.792C205.085 45.6453 204.893 46.4027 204.509 47.064C204.135 47.7147 203.623 48.2267 202.973 48.6C202.333 48.9733 201.613 49.16 200.813 49.16C200.013 49.16 199.287 48.9733 198.637 48.6C197.986 48.2267 197.469 47.7147 197.085 47.064C196.711 46.4027 196.525 45.6453 196.525 44.792C196.525 43.9387 196.711 43.1867 197.085 42.536C197.469 41.8747 197.986 41.3573 198.637 40.984C199.287 40.6107 200.013 40.424 200.813 40.424C201.613 40.424 202.333 40.6107 202.973 40.984C203.623 41.3573 204.135 41.8747 204.509 42.536C204.893 43.1867 205.085 43.9387 205.085 44.792ZM203.405 44.792C203.415 44.2267 203.303 43.7307 203.069 43.304C202.845 42.8667 202.535 42.5307 202.141 42.296C201.746 42.0507 201.303 41.928 200.813 41.928C200.322 41.928 199.874 42.0507 199.469 42.296C199.074 42.5307 198.759 42.8667 198.525 43.304C198.301 43.7307 198.194 44.2267 198.205 44.792C198.194 45.3467 198.301 45.8427 198.525 46.28C198.759 46.7067 199.074 47.0427 199.469 47.288C199.874 47.5333 200.322 47.656 200.813 47.656C201.303 47.656 201.746 47.5333 202.141 47.288C202.535 47.0427 202.845 46.7067 203.069 46.28C203.303 45.8427 203.415 45.3467 203.405 44.792ZM206.312 49L209.544 44.792L206.296 40.6H208.376L210.648 43.56L212.568 40.6H214.52L211.544 44.744L214.808 49H212.792L210.488 46.008L208.248 49.016L206.312 49ZM222.784 45.144C222.304 42.472 226.064 41.768 226.064 39.944C226.064 38.84 225.28 38.04 223.648 38.04C222.544 38.04 221.536 38.52 220.608 39.48L219.76 38.696C220.816 37.576 222.064 36.824 223.792 36.824C226.048 36.824 227.504 37.992 227.504 39.832C227.504 42.248 223.68 42.744 224.096 45.144H222.784ZM223.472 49.08C222.896 49.08 222.448 48.68 222.448 48.04C222.448 47.4 222.912 46.968 223.472 46.968C224.032 46.968 224.496 47.4 224.496 48.04C224.496 48.68 224.032 49.08 223.472 49.08Z" fill="#BDA074"/>
</svg>
