<svg width="255" height="66" viewBox="0 0 255 66" fill="none" xmlns="http://www.w3.org/2000/svg">
<path fill-rule="evenodd" clip-rule="evenodd" d="M231 0C244.255 0 255 10.7452 255 24V42C255 55.2548 244.255 66 231 66H24C22.1312 66 20.3123 65.7864 18.5664 65.3823L19.2104 66H0.443666L7.39719 59.3306C2.83844 54.9621 0 48.8125 0 42V24C0 10.7452 10.7452 0 24 0H231Z" fill="#FEFBF6"/>
<path d="M30.1288 29H24.7848V27.4H26.5928V19.4H24.7848V17.8H30.1288V19.4H28.3208V27.4H30.1288V29ZM46.0618 17.16V29H44.4138V27.816C44.1685 28.1467 43.8058 28.456 43.3258 28.744C42.8458 29.0213 42.3018 29.16 41.6938 29.16C40.9365 29.16 40.2538 28.9733 39.6458 28.6C39.0378 28.2267 38.5578 27.7093 38.2058 27.048C37.8538 26.3867 37.6778 25.6347 37.6778 24.792C37.6778 23.9387 37.8538 23.1867 38.2058 22.536C38.5578 21.8747 39.0325 21.3573 39.6298 20.984C40.2271 20.6107 40.8991 20.424 41.6458 20.424C42.2431 20.424 42.7818 20.5467 43.2618 20.792C43.7525 21.0373 44.1365 21.3253 44.4138 21.656V17.16H46.0618ZM41.9178 27.736C42.4298 27.736 42.8778 27.608 43.2618 27.352C43.6458 27.096 43.9445 26.744 44.1578 26.296C44.3711 25.848 44.4778 25.3467 44.4778 24.792C44.4778 24.2267 44.3711 23.7253 44.1578 23.288C43.9445 22.84 43.6458 22.488 43.2618 22.232C42.8778 21.976 42.4298 21.848 41.9178 21.848C41.4165 21.848 40.9738 21.976 40.5898 22.232C40.2058 22.488 39.9018 22.84 39.6778 23.288C39.4645 23.7253 39.3578 24.2267 39.3578 24.792C39.3578 25.3467 39.4645 25.848 39.6778 26.296C39.9018 26.744 40.2058 27.096 40.5898 27.352C40.9738 27.608 41.4165 27.736 41.9178 27.736ZM57.0184 24.792C57.0184 25.6453 56.8264 26.4027 56.4424 27.064C56.0691 27.7147 55.5571 28.2267 54.9064 28.6C54.2664 28.9733 53.5464 29.16 52.7464 29.16C51.9464 29.16 51.2211 28.9733 50.5704 28.6C49.9198 28.2267 49.4024 27.7147 49.0184 27.064C48.6451 26.4027 48.4584 25.6453 48.4584 24.792C48.4584 23.9387 48.6451 23.1867 49.0184 22.536C49.4024 21.8747 49.9198 21.3573 50.5704 20.984C51.2211 20.6107 51.9464 20.424 52.7464 20.424C53.5464 20.424 54.2664 20.6107 54.9064 20.984C55.5571 21.3573 56.0691 21.8747 56.4424 22.536C56.8264 23.1867 57.0184 23.9387 57.0184 24.792ZM55.3384 24.792C55.3491 24.2267 55.2371 23.7307 55.0024 23.304C54.7784 22.8667 54.4691 22.5307 54.0744 22.296C53.6798 22.0507 53.2371 21.928 52.7464 21.928C52.2558 21.928 51.8078 22.0507 51.4024 22.296C51.0078 22.5307 50.6931 22.8667 50.4584 23.304C50.2344 23.7307 50.1278 24.2267 50.1384 24.792C50.1278 25.3467 50.2344 25.8427 50.4584 26.28C50.6931 26.7067 51.0078 27.0427 51.4024 27.288C51.8078 27.5333 52.2558 27.656 52.7464 27.656C53.2371 27.656 53.6798 27.5333 54.0744 27.288C54.4691 27.0427 54.7784 26.7067 55.0024 26.28C55.2371 25.8427 55.3491 25.3467 55.3384 24.792ZM63.8542 20.424C64.6115 20.424 65.1982 20.5787 65.6142 20.888C66.0302 21.1973 66.3182 21.6133 66.4782 22.136C66.6489 22.6587 66.7342 23.24 66.7342 23.88V29H65.0862V23.992C65.0862 23.5867 65.0329 23.224 64.9262 22.904C64.8195 22.584 64.6382 22.3333 64.3822 22.152C64.1262 21.9707 63.7689 21.896 63.3102 21.928C62.8835 21.928 62.5049 22.0187 62.1742 22.2C61.8435 22.3813 61.5822 22.6213 61.3902 22.92C61.1982 23.2187 61.1022 23.5493 61.1022 23.912V29H59.4542V20.6H61.1022V21.928C61.3582 21.5333 61.7315 21.1867 62.2222 20.888C62.7129 20.5787 63.2569 20.424 63.8542 20.424ZM71.6738 19.16C71.6738 19.5653 71.5618 19.944 71.3378 20.296C71.1245 20.648 70.8418 20.952 70.4898 21.208C70.1378 21.464 69.7698 21.6507 69.3858 21.768L68.7778 21.032C69.1938 20.84 69.5351 20.6213 69.8018 20.376C70.0685 20.1307 70.2018 19.9173 70.2018 19.736C70.2018 19.5867 70.1431 19.4587 70.0258 19.352C69.9191 19.2453 69.7965 19.1387 69.6578 19.032C69.5191 18.9253 69.3911 18.808 69.2738 18.68C69.1671 18.552 69.1138 18.392 69.1138 18.2C69.1138 17.9333 69.2045 17.7253 69.3858 17.576C69.5778 17.4267 69.8125 17.352 70.0898 17.352C70.4845 17.352 70.8471 17.5067 71.1778 17.816C71.5085 18.1253 71.6738 18.5733 71.6738 19.16ZM76.7972 29H75.1492V22.2H73.4052V20.6H75.1492V18.456H76.7972V20.6H78.7492V22.2H76.7972V29ZM86.0142 29V17.16H87.6622V24.36L91.4542 20.6H93.6782L89.7422 24.296L93.7902 29H91.6782L88.5742 25.384L87.6622 26.248V29H86.0142ZM100.148 20.424C100.905 20.424 101.492 20.5787 101.908 20.888C102.324 21.1973 102.612 21.6133 102.772 22.136C102.943 22.6587 103.028 23.24 103.028 23.88V29H101.38V23.992C101.38 23.5867 101.327 23.224 101.22 22.904C101.113 22.584 100.932 22.3333 100.676 22.152C100.42 21.9707 100.063 21.896 99.6039 21.928C99.1773 21.928 98.7986 22.0187 98.4679 22.2C98.1373 22.3813 97.8759 22.6213 97.6839 22.92C97.4919 23.2187 97.3959 23.5493 97.3959 23.912V29H95.7479V20.6H97.3959V21.928C97.6519 21.5333 98.0253 21.1867 98.5159 20.888C99.0066 20.5787 99.5506 20.424 100.148 20.424ZM113.952 24.792C113.952 25.6453 113.76 26.4027 113.376 27.064C113.002 27.7147 112.49 28.2267 111.84 28.6C111.2 28.9733 110.48 29.16 109.68 29.16C108.88 29.16 108.154 28.9733 107.504 28.6C106.853 28.2267 106.336 27.7147 105.952 27.064C105.578 26.4027 105.392 25.6453 105.392 24.792C105.392 23.9387 105.578 23.1867 105.952 22.536C106.336 21.8747 106.853 21.3573 107.504 20.984C108.154 20.6107 108.88 20.424 109.68 20.424C110.48 20.424 111.2 20.6107 111.84 20.984C112.49 21.3573 113.002 21.8747 113.376 22.536C113.76 23.1867 113.952 23.9387 113.952 24.792ZM112.272 24.792C112.282 24.2267 112.17 23.7307 111.936 23.304C111.712 22.8667 111.402 22.5307 111.008 22.296C110.613 22.0507 110.17 21.928 109.68 21.928C109.189 21.928 108.741 22.0507 108.336 22.296C107.941 22.5307 107.626 22.8667 107.392 23.304C107.168 23.7307 107.061 24.2267 107.072 24.792C107.061 25.3467 107.168 25.8427 107.392 26.28C107.626 26.7067 107.941 27.0427 108.336 27.288C108.741 27.5333 109.189 27.656 109.68 27.656C110.17 27.656 110.613 27.5333 111.008 27.288C111.402 27.0427 111.712 26.7067 111.936 26.28C112.17 25.8427 112.282 25.3467 112.272 24.792ZM127.371 20.6L124.539 29H123.403L121.259 24.12L119.259 29H118.139L115.275 20.6L116.939 20.584L118.827 26.376L120.843 21.928H121.835L123.835 26.312L125.707 20.6H127.371ZM131.255 28.936C131.255 29.384 131.154 29.8053 130.951 30.2C130.748 30.5947 130.482 30.936 130.151 31.224C129.831 31.512 129.49 31.7253 129.127 31.864L128.519 31.128C128.892 30.9147 129.196 30.6693 129.431 30.392C129.666 30.1147 129.783 29.8747 129.783 29.672C129.783 29.512 129.735 29.368 129.639 29.24C129.543 29.1227 129.436 29.0107 129.319 28.904C129.202 28.7867 129.095 28.6587 128.999 28.52C128.903 28.3707 128.855 28.1893 128.855 27.976C128.855 27.7093 128.951 27.5013 129.143 27.352C129.335 27.2027 129.564 27.128 129.831 27.128C130.194 27.128 130.519 27.2827 130.807 27.592C131.106 27.9013 131.255 28.3493 131.255 28.936ZM138.145 20.424C138.891 20.424 139.558 20.6107 140.145 20.984C140.742 21.3467 141.211 21.8587 141.553 22.52C141.894 23.1707 142.065 23.9227 142.065 24.776C142.065 25.6293 141.894 26.3867 141.553 27.048C141.211 27.7093 140.747 28.2267 140.161 28.6C139.574 28.9733 138.918 29.16 138.193 29.16C137.595 29.16 137.051 29.032 136.561 28.776C136.081 28.5093 135.702 28.2107 135.425 27.88V28.952H133.777V17.16H135.425V21.816C135.67 21.464 136.038 21.144 136.529 20.856C137.019 20.568 137.558 20.424 138.145 20.424ZM137.921 21.928C137.419 21.928 136.971 22.0507 136.577 22.296C136.193 22.5413 135.889 22.8827 135.665 23.32C135.451 23.7467 135.345 24.232 135.345 24.776C135.345 25.32 135.451 25.8107 135.665 26.248C135.889 26.6747 136.193 27.016 136.577 27.272C136.971 27.528 137.419 27.656 137.921 27.656C138.422 27.656 138.865 27.528 139.249 27.272C139.633 27.016 139.931 26.6747 140.145 26.248C140.369 25.8107 140.481 25.32 140.481 24.776C140.481 24.232 140.369 23.7467 140.145 23.32C139.931 22.8827 139.633 22.5413 139.249 22.296C138.865 22.0507 138.422 21.928 137.921 21.928ZM150.223 25.656V20.6H151.871V29H150.223V27.656C149.977 28.0507 149.615 28.4027 149.135 28.712C148.665 29.0107 148.1 29.16 147.439 29.16C146.564 29.16 145.855 28.8613 145.311 28.264C144.767 27.6667 144.495 26.84 144.495 25.784V20.6H146.143V25.336C146.143 25.7627 146.207 26.1573 146.335 26.52C146.473 26.8827 146.687 27.176 146.975 27.4C147.273 27.6133 147.652 27.72 148.111 27.72C148.687 27.72 149.183 27.5387 149.599 27.176C150.015 26.8133 150.223 26.3067 150.223 25.656ZM157.51 29H155.862V22.2H154.118V20.6H155.862V18.456H157.51V20.6H159.462V22.2H157.51V29ZM172.071 29H166.727V27.4H168.535V19.4H166.727V17.8H172.071V19.4H170.263V27.4H172.071V29ZM177.072 19.16C177.072 19.5653 176.96 19.944 176.736 20.296C176.523 20.648 176.24 20.952 175.888 21.208C175.536 21.464 175.168 21.6507 174.784 21.768L174.176 21.032C174.592 20.84 174.933 20.6213 175.2 20.376C175.467 20.1307 175.6 19.9173 175.6 19.736C175.6 19.5867 175.541 19.4587 175.424 19.352C175.317 19.2453 175.195 19.1387 175.056 19.032C174.917 18.9253 174.789 18.808 174.672 18.68C174.565 18.552 174.512 18.392 174.512 18.2C174.512 17.9333 174.603 17.7253 174.784 17.576C174.976 17.4267 175.211 17.352 175.488 17.352C175.883 17.352 176.245 17.5067 176.576 17.816C176.907 18.1253 177.072 18.5733 177.072 19.16ZM180.483 20.6L182.931 26.6L185.475 20.6H187.171L183.443 29H182.259L178.707 20.6H180.483ZM196.301 27.896H196.285C195.943 28.2267 195.474 28.52 194.877 28.776C194.279 29.032 193.655 29.16 193.005 29.16C192.13 29.16 191.357 28.9787 190.685 28.616C190.023 28.2427 189.506 27.736 189.133 27.096C188.759 26.4453 188.573 25.7093 188.573 24.888C188.573 23.9493 188.77 23.1493 189.165 22.488C189.559 21.816 190.082 21.304 190.733 20.952C191.383 20.5893 192.093 20.408 192.861 20.408C193.565 20.408 194.205 20.584 194.781 20.936C195.357 21.2773 195.815 21.752 196.157 22.36C196.498 22.968 196.669 23.6773 196.669 24.488L196.653 25.192H190.221C190.317 25.9493 190.626 26.552 191.149 27C191.682 27.4373 192.354 27.656 193.165 27.656C193.751 27.656 194.226 27.5493 194.589 27.336C194.951 27.112 195.25 26.8987 195.485 26.696L196.301 27.896ZM192.861 21.928C192.231 21.928 191.682 22.0773 191.213 22.376C190.743 22.664 190.434 23.1653 190.285 23.88H194.989V23.768C194.957 23.4053 194.834 23.0853 194.621 22.808C194.418 22.5307 194.162 22.3173 193.853 22.168C193.543 22.008 193.213 21.928 192.861 21.928ZM205.376 30.392C205.696 30.6373 206.096 30.8347 206.576 30.984C207.056 31.1333 207.526 31.208 207.984 31.208C208.848 31.208 209.51 30.9947 209.968 30.568C210.427 30.152 210.656 29.5227 210.656 28.68V27.656C210.507 27.912 210.294 28.1573 210.016 28.392C209.739 28.616 209.414 28.8027 209.04 28.952C208.667 29.0907 208.278 29.16 207.872 29.16C207.094 29.16 206.39 28.9733 205.76 28.6C205.131 28.2267 204.63 27.7093 204.256 27.048C203.894 26.3867 203.712 25.6347 203.712 24.792C203.712 23.9387 203.894 23.1867 204.256 22.536C204.619 21.8747 205.11 21.3573 205.728 20.984C206.358 20.6107 207.056 20.424 207.824 20.424C208.464 20.424 209.03 20.568 209.52 20.856C210.022 21.1333 210.4 21.4373 210.656 21.768V20.6H212.304V28.488C212.304 29.4907 212.102 30.296 211.696 30.904C211.302 31.5227 210.774 31.9707 210.112 32.248C209.462 32.536 208.752 32.68 207.984 32.68C207.387 32.68 206.79 32.584 206.192 32.392C205.606 32.2107 205.131 31.9707 204.768 31.672L205.376 30.392ZM208.048 21.928C207.536 21.928 207.078 22.056 206.672 22.312C206.278 22.5573 205.963 22.8987 205.728 23.336C205.504 23.7627 205.392 24.248 205.392 24.792C205.392 25.336 205.504 25.8213 205.728 26.248C205.963 26.6747 206.278 27.016 206.672 27.272C207.078 27.5173 207.536 27.64 208.048 27.64C208.582 27.64 209.046 27.5173 209.44 27.272C209.846 27.0267 210.16 26.6907 210.384 26.264C210.608 25.8267 210.72 25.336 210.72 24.792C210.72 24.2373 210.608 23.7467 210.384 23.32C210.16 22.8933 209.846 22.5573 209.44 22.312C209.046 22.056 208.582 21.928 208.048 21.928ZM223.303 24.792C223.303 25.6453 223.111 26.4027 222.727 27.064C222.353 27.7147 221.841 28.2267 221.191 28.6C220.551 28.9733 219.831 29.16 219.031 29.16C218.231 29.16 217.505 28.9733 216.855 28.6C216.204 28.2267 215.687 27.7147 215.303 27.064C214.929 26.4027 214.743 25.6453 214.743 24.792C214.743 23.9387 214.929 23.1867 215.303 22.536C215.687 21.8747 216.204 21.3573 216.855 20.984C217.505 20.6107 218.231 20.424 219.031 20.424C219.831 20.424 220.551 20.6107 221.191 20.984C221.841 21.3573 222.353 21.8747 222.727 22.536C223.111 23.1867 223.303 23.9387 223.303 24.792ZM221.623 24.792C221.633 24.2267 221.521 23.7307 221.287 23.304C221.063 22.8667 220.753 22.5307 220.359 22.296C219.964 22.0507 219.521 21.928 219.031 21.928C218.54 21.928 218.092 22.0507 217.687 22.296C217.292 22.5307 216.977 22.8667 216.743 23.304C216.519 23.7307 216.412 24.2267 216.423 24.792C216.412 25.3467 216.519 25.8427 216.743 26.28C216.977 26.7067 217.292 27.0427 217.687 27.288C218.092 27.5333 218.54 27.656 219.031 27.656C219.521 27.656 219.964 27.5333 220.359 27.288C220.753 27.0427 221.063 26.7067 221.287 26.28C221.521 25.8427 221.633 25.3467 221.623 24.792ZM228.427 29H226.779V22.2H225.035V20.6H226.779V18.456H228.427V20.6H230.379V22.2H228.427V29ZM44.9047 40.6V49H43.2407V47.704C42.9847 48.056 42.6061 48.3867 42.1047 48.696C41.6034 49.0053 41.0221 49.16 40.3607 49.16C39.6567 49.16 39.0114 48.9733 38.4247 48.6C37.8487 48.2267 37.3901 47.7093 37.0487 47.048C36.7074 46.3867 36.5367 45.6293 36.5367 44.776C36.5367 43.9227 36.7127 43.1707 37.0647 42.52C37.4167 41.8587 37.9021 41.3467 38.5207 40.984C39.1394 40.6107 39.8434 40.424 40.6327 40.424C41.2194 40.424 41.7314 40.552 42.1687 40.808C42.6167 41.064 42.9741 41.3627 43.2407 41.704V40.6H44.9047ZM40.7447 47.64C41.2567 47.64 41.7047 47.5173 42.0887 47.272C42.4727 47.016 42.7714 46.6747 42.9847 46.248C43.1981 45.8107 43.3047 45.32 43.3047 44.776C43.3047 44.2427 43.1981 43.7627 42.9847 43.336C42.7714 42.9093 42.4727 42.5733 42.0887 42.328C41.7047 42.072 41.2567 41.944 40.7447 41.944C40.2541 41.944 39.8167 42.0667 39.4327 42.312C39.0487 42.5573 38.7501 42.8933 38.5367 43.32C38.3234 43.7467 38.2167 44.232 38.2167 44.776C38.2167 45.32 38.3234 45.8107 38.5367 46.248C38.7501 46.6747 39.0487 47.016 39.4327 47.272C39.8167 47.5173 40.2541 47.64 40.7447 47.64ZM57.8181 42.808C57.5195 42.5093 57.1781 42.264 56.7941 42.072C56.4208 41.88 56.0741 41.784 55.7541 41.784C55.5301 41.784 55.3061 41.8107 55.0821 41.864C54.8688 41.9173 54.6875 42.0187 54.5381 42.168C54.3888 42.3067 54.3141 42.5147 54.3141 42.792C54.3248 43.176 54.4955 43.448 54.8261 43.608C55.1675 43.768 55.5888 43.912 56.0901 44.04C56.5275 44.1573 56.9541 44.3067 57.3701 44.488C57.7861 44.6587 58.1275 44.9147 58.3941 45.256C58.6715 45.5867 58.8101 46.056 58.8101 46.664C58.8101 47.1867 58.6608 47.6347 58.3621 48.008C58.0741 48.3813 57.6955 48.6693 57.2261 48.872C56.7675 49.064 56.2821 49.16 55.7701 49.16C55.1621 49.16 54.5595 49.0533 53.9621 48.84C53.3755 48.616 52.8741 48.2373 52.4581 47.704L53.5781 46.744C53.8661 47.0747 54.1915 47.336 54.5541 47.528C54.9275 47.7093 55.3808 47.8 55.9141 47.8C56.1168 47.8 56.3195 47.768 56.5221 47.704C56.7248 47.6293 56.8955 47.5173 57.0341 47.368C57.1835 47.208 57.2581 46.9947 57.2581 46.728C57.2581 46.472 57.1781 46.2747 57.0181 46.136C56.8688 45.9867 56.6661 45.8693 56.4101 45.784C56.1541 45.688 55.8715 45.6027 55.5621 45.528C55.1035 45.4 54.6501 45.2453 54.2021 45.064C53.7648 44.872 53.3968 44.6053 53.0981 44.264C52.8101 43.912 52.6661 43.4373 52.6661 42.84C52.6661 42.3387 52.8048 41.912 53.0821 41.56C53.3701 41.1973 53.7435 40.92 54.2021 40.728C54.6608 40.5253 55.1515 40.424 55.6741 40.424C56.1755 40.424 56.7195 40.5307 57.3061 40.744C57.8928 40.9573 58.3781 41.2987 58.7621 41.768L57.8181 42.808ZM65.6504 40.456C66.397 40.456 67.0637 40.6427 67.6504 41.016C68.2477 41.3787 68.717 41.8853 69.0584 42.536C69.3997 43.1867 69.5704 43.9387 69.5704 44.792C69.5704 45.6347 69.3997 46.3867 69.0584 47.048C68.717 47.6987 68.253 48.2107 67.6664 48.584C67.0797 48.9573 66.4237 49.144 65.6984 49.144C65.101 49.144 64.557 49.016 64.0664 48.76C63.5864 48.504 63.2077 48.2107 62.9304 47.88V52.52H61.2664V40.584H62.9304V41.816C63.1757 41.464 63.5437 41.1493 64.0344 40.872C64.525 40.5947 65.0637 40.456 65.6504 40.456ZM65.4264 41.976C64.925 41.976 64.477 42.0987 64.0824 42.344C63.6984 42.5893 63.3944 42.9253 63.1704 43.352C62.957 43.768 62.8504 44.248 62.8504 44.792C62.8504 45.3253 62.957 45.8053 63.1704 46.232C63.3944 46.6587 63.6984 47 64.0824 47.256C64.477 47.5013 64.925 47.624 65.4264 47.624C65.9277 47.624 66.3704 47.5013 66.7544 47.256C67.1384 47 67.437 46.6587 67.6504 46.232C67.8744 45.8053 67.9864 45.3253 67.9864 44.792C67.9864 44.248 67.8744 43.768 67.6504 43.352C67.437 42.9253 67.1384 42.5893 66.7544 42.344C66.3704 42.0987 65.9277 41.976 65.4264 41.976ZM79.2161 47.896H79.2001C78.8588 48.2267 78.3895 48.52 77.7921 48.776C77.1948 49.032 76.5708 49.16 75.9201 49.16C75.0455 49.16 74.2721 48.9787 73.6001 48.616C72.9388 48.2427 72.4215 47.736 72.0481 47.096C71.6748 46.4453 71.4881 45.7093 71.4881 44.888C71.4881 43.9493 71.6855 43.1493 72.0801 42.488C72.4748 41.816 72.9975 41.304 73.6481 40.952C74.2988 40.5893 75.0081 40.408 75.7761 40.408C76.4801 40.408 77.1201 40.584 77.6961 40.936C78.2721 41.2773 78.7308 41.752 79.0721 42.36C79.4135 42.968 79.5841 43.6773 79.5841 44.488L79.5681 45.192H73.1361C73.2321 45.9493 73.5415 46.552 74.0641 47C74.5975 47.4373 75.2695 47.656 76.0801 47.656C76.6668 47.656 77.1415 47.5493 77.5041 47.336C77.8668 47.112 78.1655 46.8987 78.4001 46.696L79.2161 47.896ZM75.7761 41.928C75.1468 41.928 74.5975 42.0773 74.1281 42.376C73.6588 42.664 73.3495 43.1653 73.2001 43.88H77.9041V43.768C77.8721 43.4053 77.7495 43.0853 77.5361 42.808C77.3335 42.5307 77.0775 42.3173 76.7681 42.168C76.4588 42.008 76.1281 41.928 75.7761 41.928ZM83.0711 44.792C83.0711 45.3467 83.1938 45.8427 83.4391 46.28C83.6951 46.7067 84.0258 47.048 84.4311 47.304C84.8471 47.5493 85.2898 47.672 85.7591 47.672C86.2925 47.672 86.7565 47.5333 87.1511 47.256C87.5458 46.9787 87.8658 46.6907 88.1111 46.392L89.0231 47.512C88.8205 47.8 88.5431 48.072 88.1911 48.328C87.8391 48.5733 87.4391 48.776 86.9911 48.936C86.5431 49.0853 86.0738 49.16 85.5831 49.16C84.8151 49.16 84.1218 48.968 83.5031 48.584C82.8845 48.2 82.3938 47.6773 82.0311 47.016C81.6791 46.3547 81.5031 45.6133 81.5031 44.792C81.5031 43.96 81.6791 43.2187 82.0311 42.568C82.3938 41.9067 82.8845 41.384 83.5031 41C84.1218 40.616 84.8151 40.424 85.5831 40.424C86.3618 40.424 87.0551 40.584 87.6631 40.904C88.2711 41.2133 88.7245 41.6187 89.0231 42.12L88.1111 43.24C87.8658 42.8773 87.5138 42.568 87.0551 42.312C86.6071 42.0453 86.1698 41.912 85.7431 41.912C85.2418 41.912 84.7885 42.04 84.3831 42.296C83.9778 42.5413 83.6578 42.8827 83.4231 43.32C83.1885 43.7467 83.0711 44.2373 83.0711 44.792ZM92.3216 38.776C91.9483 38.776 91.671 38.68 91.4896 38.488C91.3083 38.296 91.2176 38.0453 91.2176 37.736C91.2176 37.4693 91.3083 37.2293 91.4896 37.016C91.671 36.8027 91.9483 36.696 92.3216 36.696C92.695 36.696 92.9723 36.792 93.1536 36.984C93.335 37.176 93.4256 37.4267 93.4256 37.736C93.4256 38.0027 93.335 38.2427 93.1536 38.456C92.9723 38.6693 92.695 38.776 92.3216 38.776ZM93.1696 49H91.5216V40.6H93.1696V49ZM104.135 40.6V49H102.471V47.704C102.215 48.056 101.836 48.3867 101.335 48.696C100.833 49.0053 100.252 49.16 99.5908 49.16C98.8868 49.16 98.2414 48.9733 97.6548 48.6C97.0788 48.2267 96.6201 47.7093 96.2788 47.048C95.9374 46.3867 95.7668 45.6293 95.7668 44.776C95.7668 43.9227 95.9428 43.1707 96.2948 42.52C96.6468 41.8587 97.1321 41.3467 97.7508 40.984C98.3694 40.6107 99.0734 40.424 99.8628 40.424C100.449 40.424 100.961 40.552 101.399 40.808C101.847 41.064 102.204 41.3627 102.471 41.704V40.6H104.135ZM99.9748 47.64C100.487 47.64 100.935 47.5173 101.319 47.272C101.703 47.016 102.001 46.6747 102.215 46.248C102.428 45.8107 102.535 45.32 102.535 44.776C102.535 44.2427 102.428 43.7627 102.215 43.336C102.001 42.9093 101.703 42.5733 101.319 42.328C100.935 42.072 100.487 41.944 99.9748 41.944C99.4841 41.944 99.0468 42.0667 98.6628 42.312C98.2788 42.5573 97.9801 42.8933 97.7668 43.32C97.5534 43.7467 97.4468 44.232 97.4468 44.776C97.4468 45.32 97.5534 45.8107 97.7668 46.248C97.9801 46.6747 98.2788 47.016 98.6628 47.272C99.0468 47.5173 99.4841 47.64 99.9748 47.64ZM107.076 49V37.16H108.724V49H107.076ZM121.688 42.808C121.389 42.5093 121.048 42.264 120.664 42.072C120.291 41.88 119.944 41.784 119.624 41.784C119.4 41.784 119.176 41.8107 118.952 41.864C118.739 41.9173 118.557 42.0187 118.408 42.168C118.259 42.3067 118.184 42.5147 118.184 42.792C118.195 43.176 118.365 43.448 118.696 43.608C119.037 43.768 119.459 43.912 119.96 44.04C120.397 44.1573 120.824 44.3067 121.24 44.488C121.656 44.6587 121.997 44.9147 122.264 45.256C122.541 45.5867 122.68 46.056 122.68 46.664C122.68 47.1867 122.531 47.6347 122.232 48.008C121.944 48.3813 121.565 48.6693 121.096 48.872C120.637 49.064 120.152 49.16 119.64 49.16C119.032 49.16 118.429 49.0533 117.832 48.84C117.245 48.616 116.744 48.2373 116.328 47.704L117.448 46.744C117.736 47.0747 118.061 47.336 118.424 47.528C118.797 47.7093 119.251 47.8 119.784 47.8C119.987 47.8 120.189 47.768 120.392 47.704C120.595 47.6293 120.765 47.5173 120.904 47.368C121.053 47.208 121.128 46.9947 121.128 46.728C121.128 46.472 121.048 46.2747 120.888 46.136C120.739 45.9867 120.536 45.8693 120.28 45.784C120.024 45.688 119.741 45.6027 119.432 45.528C118.973 45.4 118.52 45.2453 118.072 45.064C117.635 44.872 117.267 44.6053 116.968 44.264C116.68 43.912 116.536 43.4373 116.536 42.84C116.536 42.3387 116.675 41.912 116.952 41.56C117.24 41.1973 117.613 40.92 118.072 40.728C118.531 40.5253 119.021 40.424 119.544 40.424C120.045 40.424 120.589 40.5307 121.176 40.744C121.763 40.9573 122.248 41.2987 122.632 41.768L121.688 42.808ZM130.864 45.656V40.6H132.512V49H130.864V47.656C130.619 48.0507 130.256 48.4027 129.776 48.712C129.307 49.0107 128.742 49.16 128.08 49.16C127.206 49.16 126.496 48.8613 125.952 48.264C125.408 47.6667 125.136 46.84 125.136 45.784V40.6H126.784V45.336C126.784 45.7627 126.848 46.1573 126.976 46.52C127.115 46.8827 127.328 47.176 127.616 47.4C127.915 47.6133 128.294 47.72 128.752 47.72C129.328 47.72 129.824 47.5387 130.24 47.176C130.656 46.8133 130.864 46.3067 130.864 45.656ZM140.168 42.376C140.061 42.3227 139.928 42.28 139.768 42.248C139.619 42.2053 139.459 42.184 139.288 42.184C138.947 42.184 138.611 42.2747 138.28 42.456C137.949 42.6267 137.672 42.8773 137.448 43.208C137.235 43.528 137.128 43.912 137.128 44.36V49H135.464V40.6H137.128V42.184C137.363 41.672 137.715 41.2507 138.184 40.92C138.664 40.5893 139.165 40.424 139.688 40.424C140.083 40.424 140.387 40.4773 140.6 40.584L140.168 42.376ZM146.941 40.456C147.688 40.456 148.354 40.6427 148.941 41.016C149.538 41.3787 150.008 41.8853 150.349 42.536C150.69 43.1867 150.861 43.9387 150.861 44.792C150.861 45.6347 150.69 46.3867 150.349 47.048C150.008 47.6987 149.544 48.2107 148.957 48.584C148.37 48.9573 147.714 49.144 146.989 49.144C146.392 49.144 145.848 49.016 145.357 48.76C144.877 48.504 144.498 48.2107 144.221 47.88V52.52H142.557V40.584H144.221V41.816C144.466 41.464 144.834 41.1493 145.325 40.872C145.816 40.5947 146.354 40.456 146.941 40.456ZM146.717 41.976C146.216 41.976 145.768 42.0987 145.373 42.344C144.989 42.5893 144.685 42.9253 144.461 43.352C144.248 43.768 144.141 44.248 144.141 44.792C144.141 45.3253 144.248 45.8053 144.461 46.232C144.685 46.6587 144.989 47 145.373 47.256C145.768 47.5013 146.216 47.624 146.717 47.624C147.218 47.624 147.661 47.5013 148.045 47.256C148.429 47 148.728 46.6587 148.941 46.232C149.165 45.8053 149.277 45.3253 149.277 44.792C149.277 44.248 149.165 43.768 148.941 43.352C148.728 42.9253 148.429 42.5893 148.045 42.344C147.661 42.0987 147.218 41.976 146.717 41.976ZM157.995 42.376C157.888 42.3227 157.755 42.28 157.595 42.248C157.445 42.2053 157.285 42.184 157.115 42.184C156.773 42.184 156.437 42.2747 156.107 42.456C155.776 42.6267 155.499 42.8773 155.275 43.208C155.061 43.528 154.955 43.912 154.955 44.36V49H153.291V40.6H154.955V42.184C155.189 41.672 155.541 41.2507 156.011 40.92C156.491 40.5893 156.992 40.424 157.515 40.424C157.909 40.424 158.213 40.4773 158.427 40.584L157.995 42.376ZM161.488 38.776C161.115 38.776 160.837 38.68 160.656 38.488C160.475 38.296 160.384 38.0453 160.384 37.736C160.384 37.4693 160.475 37.2293 160.656 37.016C160.837 36.8027 161.115 36.696 161.488 36.696C161.861 36.696 162.139 36.792 162.32 36.984C162.501 37.176 162.592 37.4267 162.592 37.736C162.592 38.0027 162.501 38.2427 162.32 38.456C162.139 38.6693 161.861 38.776 161.488 38.776ZM162.336 49H160.688V40.6H162.336V49ZM170.325 42.808C170.026 42.5093 169.685 42.264 169.301 42.072C168.928 41.88 168.581 41.784 168.261 41.784C168.037 41.784 167.813 41.8107 167.589 41.864C167.376 41.9173 167.194 42.0187 167.045 42.168C166.896 42.3067 166.821 42.5147 166.821 42.792C166.832 43.176 167.002 43.448 167.333 43.608C167.674 43.768 168.096 43.912 168.597 44.04C169.034 44.1573 169.461 44.3067 169.877 44.488C170.293 44.6587 170.634 44.9147 170.901 45.256C171.178 45.5867 171.317 46.056 171.317 46.664C171.317 47.1867 171.168 47.6347 170.869 48.008C170.581 48.3813 170.202 48.6693 169.733 48.872C169.274 49.064 168.789 49.16 168.277 49.16C167.669 49.16 167.066 49.0533 166.469 48.84C165.882 48.616 165.381 48.2373 164.965 47.704L166.085 46.744C166.373 47.0747 166.698 47.336 167.061 47.528C167.434 47.7093 167.888 47.8 168.421 47.8C168.624 47.8 168.826 47.768 169.029 47.704C169.232 47.6293 169.402 47.5173 169.541 47.368C169.69 47.208 169.765 46.9947 169.765 46.728C169.765 46.472 169.685 46.2747 169.525 46.136C169.376 45.9867 169.173 45.8693 168.917 45.784C168.661 45.688 168.378 45.6027 168.069 45.528C167.61 45.4 167.157 45.2453 166.709 45.064C166.272 44.872 165.904 44.6053 165.605 44.264C165.317 43.912 165.173 43.4373 165.173 42.84C165.173 42.3387 165.312 41.912 165.589 41.56C165.877 41.1973 166.25 40.92 166.709 40.728C167.168 40.5253 167.658 40.424 168.181 40.424C168.682 40.424 169.226 40.5307 169.813 40.744C170.4 40.9573 170.885 41.2987 171.269 41.768L170.325 42.808ZM180.989 47.896H180.973C180.632 48.2267 180.163 48.52 179.565 48.776C178.968 49.032 178.344 49.16 177.693 49.16C176.819 49.16 176.045 48.9787 175.373 48.616C174.712 48.2427 174.195 47.736 173.821 47.096C173.448 46.4453 173.261 45.7093 173.261 44.888C173.261 43.9493 173.459 43.1493 173.853 42.488C174.248 41.816 174.771 41.304 175.421 40.952C176.072 40.5893 176.781 40.408 177.549 40.408C178.253 40.408 178.893 40.584 179.469 40.936C180.045 41.2773 180.504 41.752 180.845 42.36C181.187 42.968 181.357 43.6773 181.357 44.488L181.341 45.192H174.909C175.005 45.9493 175.315 46.552 175.837 47C176.371 47.4373 177.043 47.656 177.853 47.656C178.44 47.656 178.915 47.5493 179.277 47.336C179.64 47.112 179.939 46.8987 180.173 46.696L180.989 47.896ZM177.549 41.928C176.92 41.928 176.371 42.0773 175.901 42.376C175.432 42.664 175.123 43.1653 174.973 43.88H179.677V43.768C179.645 43.4053 179.523 43.0853 179.309 42.808C179.107 42.5307 178.851 42.3173 178.541 42.168C178.232 42.008 177.901 41.928 177.549 41.928ZM191.601 49H189.953V42.2H188.209V40.6H189.953V38.456H191.601V40.6H193.553V42.2H191.601V49ZM203.663 44.792C203.663 45.6453 203.471 46.4027 203.087 47.064C202.714 47.7147 202.202 48.2267 201.551 48.6C200.911 48.9733 200.191 49.16 199.391 49.16C198.591 49.16 197.866 48.9733 197.215 48.6C196.564 48.2267 196.047 47.7147 195.663 47.064C195.29 46.4027 195.103 45.6453 195.103 44.792C195.103 43.9387 195.29 43.1867 195.663 42.536C196.047 41.8747 196.564 41.3573 197.215 40.984C197.866 40.6107 198.591 40.424 199.391 40.424C200.191 40.424 200.911 40.6107 201.551 40.984C202.202 41.3573 202.714 41.8747 203.087 42.536C203.471 43.1867 203.663 43.9387 203.663 44.792ZM201.983 44.792C201.994 44.2267 201.882 43.7307 201.647 43.304C201.423 42.8667 201.114 42.5307 200.719 42.296C200.324 42.0507 199.882 41.928 199.391 41.928C198.9 41.928 198.452 42.0507 198.047 42.296C197.652 42.5307 197.338 42.8667 197.103 43.304C196.879 43.7307 196.772 44.2267 196.783 44.792C196.772 45.3467 196.879 45.8427 197.103 46.28C197.338 46.7067 197.652 47.0427 198.047 47.288C198.452 47.5333 198.9 47.656 199.391 47.656C199.882 47.656 200.324 47.5333 200.719 47.288C201.114 47.0427 201.423 46.7067 201.647 46.28C201.882 45.8427 201.994 45.3467 201.983 44.792ZM214.147 44.792C214.147 45.6453 213.955 46.4027 213.571 47.064C213.198 47.7147 212.686 48.2267 212.035 48.6C211.395 48.9733 210.675 49.16 209.875 49.16C209.075 49.16 208.35 48.9733 207.699 48.6C207.048 48.2267 206.531 47.7147 206.147 47.064C205.774 46.4027 205.587 45.6453 205.587 44.792C205.587 43.9387 205.774 43.1867 206.147 42.536C206.531 41.8747 207.048 41.3573 207.699 40.984C208.35 40.6107 209.075 40.424 209.875 40.424C210.675 40.424 211.395 40.6107 212.035 40.984C212.686 41.3573 213.198 41.8747 213.571 42.536C213.955 43.1867 214.147 43.9387 214.147 44.792ZM212.467 44.792C212.478 44.2267 212.366 43.7307 212.131 43.304C211.907 42.8667 211.598 42.5307 211.203 42.296C210.808 42.0507 210.366 41.928 209.875 41.928C209.384 41.928 208.936 42.0507 208.531 42.296C208.136 42.5307 207.822 42.8667 207.587 43.304C207.363 43.7307 207.256 44.2267 207.267 44.792C207.256 45.3467 207.363 45.8427 207.587 46.28C207.822 46.7067 208.136 47.0427 208.531 47.288C208.936 47.5333 209.384 47.656 209.875 47.656C210.366 47.656 210.808 47.5333 211.203 47.288C211.598 47.0427 211.907 46.7067 212.131 46.28C212.366 45.8427 212.478 45.3467 212.467 44.792ZM217.255 49.176C216.881 49.176 216.604 49.0693 216.423 48.856C216.241 48.632 216.151 48.3387 216.151 47.976C216.151 47.6667 216.241 47.3893 216.423 47.144C216.604 46.8987 216.881 46.776 217.255 46.776C217.628 46.776 217.905 46.888 218.087 47.112C218.268 47.3253 218.359 47.6133 218.359 47.976C218.359 48.2747 218.268 48.552 218.087 48.808C217.905 49.0533 217.628 49.176 217.255 49.176Z" fill="#BDA074"/>
</svg>
