<svg width="339" height="262" viewBox="0 0 339 262" fill="none" xmlns="http://www.w3.org/2000/svg">
<mask id="path-1-inside-1_407_494" fill="white">
<path fill-rule="evenodd" clip-rule="evenodd" d="M160.1 39.3392C161.053 40.2921 161.975 41.2641 162.866 42.2541C163.251 42.5409 163.619 42.8589 163.969 43.2082L169.706 48.9455L175.443 43.2083C175.792 42.8589 176.161 42.5407 176.546 42.2538C177.437 41.264 178.359 40.2921 179.312 39.3393C208.786 9.86578 256.572 9.86578 286.045 39.3393C315.519 68.8129 315.519 116.599 286.045 146.072C285.092 147.025 284.12 147.947 283.13 148.839C282.844 149.223 282.525 149.592 282.176 149.941L176.777 255.34C174.336 257.781 170.947 258.697 167.796 258.086C167.687 258.065 167.579 258.042 167.471 258.018C165.699 257.613 164.015 256.721 162.634 255.34L57.2355 149.941C56.886 149.592 56.5678 149.223 56.2808 148.838C55.2911 147.947 54.3193 147.025 53.3666 146.072C23.8931 116.599 23.8931 68.8127 53.3666 39.3392C82.8401 9.86567 130.626 9.86566 160.1 39.3392Z"/>
</mask>
<path fill-rule="evenodd" clip-rule="evenodd" d="M160.1 39.3392C161.053 40.2921 161.975 41.2641 162.866 42.2541C163.251 42.5409 163.619 42.8589 163.969 43.2082L169.706 48.9455L175.443 43.2083C175.792 42.8589 176.161 42.5407 176.546 42.2538C177.437 41.264 178.359 40.2921 179.312 39.3393C208.786 9.86578 256.572 9.86578 286.045 39.3393C315.519 68.8129 315.519 116.599 286.045 146.072C285.092 147.025 284.12 147.947 283.13 148.839C282.844 149.223 282.525 149.592 282.176 149.941L176.777 255.34C174.336 257.781 170.947 258.697 167.796 258.086C167.687 258.065 167.579 258.042 167.471 258.018C165.699 257.613 164.015 256.721 162.634 255.34L57.2355 149.941C56.886 149.592 56.5678 149.223 56.2808 148.838C55.2911 147.947 54.3193 147.025 53.3666 146.072C23.8931 116.599 23.8931 68.8127 53.3666 39.3392C82.8401 9.86567 130.626 9.86566 160.1 39.3392Z" fill="#FFE2D4"/>
<path d="M162.866 42.2541L161.38 43.5923C161.468 43.69 161.565 43.7788 161.67 43.8574L162.866 42.2541ZM169.706 48.9455L168.292 50.3597C169.073 51.1407 170.339 51.1407 171.12 50.3597L169.706 48.9455ZM176.546 42.2538L177.742 43.8572C177.847 43.7786 177.944 43.6898 178.032 43.592L176.546 42.2538ZM179.312 39.3393L177.898 37.9251L179.312 39.3393ZM286.045 39.3393L284.631 40.7535L286.045 39.3393ZM283.13 148.839L281.792 147.352C281.694 147.44 281.606 147.538 281.527 147.643L283.13 148.839ZM282.176 149.941L283.59 151.356L282.176 149.941ZM176.777 255.34L175.363 253.926L176.777 255.34ZM167.796 258.086L168.176 256.123L168.176 256.123L167.796 258.086ZM167.471 258.018L167.027 259.968L167.027 259.968L167.471 258.018ZM162.634 255.34L161.22 256.754L162.634 255.34ZM57.2355 149.941L58.6497 148.527L57.2355 149.941ZM56.2808 148.838L57.8843 147.643C57.8057 147.537 57.7168 147.44 57.6191 147.352L56.2808 148.838ZM164.352 40.9159C163.438 39.9 162.492 38.9026 161.514 37.925L158.686 40.7534C159.614 41.6816 160.512 42.6283 161.38 43.5923L164.352 40.9159ZM165.383 41.794C164.965 41.3763 164.523 40.9951 164.062 40.6507L161.67 43.8574C161.978 44.0867 162.274 44.3416 162.554 44.6224L165.383 41.794ZM171.12 47.5312L165.383 41.794L162.554 44.6224L168.292 50.3597L171.12 47.5312ZM174.029 41.7941L168.292 47.5312L171.12 50.3597L176.857 44.6225L174.029 41.7941ZM175.351 40.6504C174.889 40.9948 174.447 41.3762 174.029 41.7941L176.857 44.6225C177.138 44.3416 177.434 44.0866 177.742 43.8572L175.351 40.6504ZM177.898 37.9251C176.92 38.9026 175.974 39.8998 175.06 40.9156L178.032 43.592C178.9 42.6281 179.798 41.6816 180.726 40.7535L177.898 37.9251ZM287.459 37.9251C257.205 7.67051 208.152 7.67051 177.898 37.9251L180.726 40.7535C209.419 12.061 255.938 12.061 284.631 40.7535L287.459 37.9251ZM287.459 147.487C317.714 117.232 317.714 68.1797 287.459 37.9251L284.631 40.7535C313.323 69.446 313.323 115.966 284.631 144.658L287.459 147.487ZM284.469 150.325C285.484 149.41 286.482 148.464 287.459 147.487L284.631 144.658C283.703 145.586 282.756 146.484 281.792 147.352L284.469 150.325ZM283.59 151.356C284.008 150.938 284.389 150.496 284.734 150.034L281.527 147.643C281.298 147.951 281.043 148.246 280.762 148.527L283.59 151.356ZM178.191 256.755L283.59 151.356L280.762 148.527L175.363 253.926L178.191 256.755ZM167.415 260.05C171.192 260.781 175.261 259.685 178.191 256.755L175.363 253.926C173.411 255.878 170.703 256.612 168.176 256.123L167.415 260.05ZM167.027 259.968C167.156 259.997 167.285 260.024 167.415 260.05L168.176 256.123C168.089 256.106 168.003 256.088 167.916 256.068L167.027 259.968ZM161.22 256.754C162.875 258.409 164.898 259.482 167.027 259.968L167.916 256.068C166.5 255.745 165.155 255.033 164.049 253.926L161.22 256.754ZM55.8213 151.356L161.22 256.754L164.049 253.926L58.6497 148.527L55.8213 151.356ZM54.6774 150.033C55.0219 150.495 55.4033 150.938 55.8213 151.356L58.6497 148.527C58.3687 148.246 58.1137 147.95 57.8843 147.643L54.6774 150.033ZM51.9524 147.487C52.9298 148.464 53.927 149.41 54.9426 150.324L57.6191 147.352C56.6553 146.484 55.7088 145.586 54.7808 144.658L51.9524 147.487ZM51.9524 37.925C21.6978 68.1796 21.6978 117.232 51.9524 147.487L54.7808 144.658C26.0883 115.966 26.0883 69.4459 54.7808 40.7534L51.9524 37.925ZM161.514 37.925C131.259 7.6704 82.207 7.67041 51.9524 37.925L54.7808 40.7534C83.4733 12.0609 129.993 12.0609 158.686 40.7534L161.514 37.925Z" fill="#CA7C61" mask="url(#path-1-inside-1_407_494)"/>
<path d="M174.506 100.614C174.7 97.8979 175.588 95.2794 177.084 93.0137C178.58 90.748 180.633 88.9126 183.041 87.6866C185.45 86.4606 188.132 85.886 190.826 86.0187C193.52 86.1515 196.134 86.9872 198.413 88.4442C198.673 88.6163 198.883 88.856 199.02 89.1382C199.157 89.4204 199.216 89.7346 199.191 90.0479C199.167 90.3612 199.059 90.6619 198.879 90.9186C198.699 91.1752 198.454 91.3782 198.17 91.5063C194.209 93.3053 190.846 96.2205 188.486 99.9017C186.127 103.583 184.87 107.874 184.867 112.258C184.867 112.77 184.867 113.282 184.919 113.785C184.943 114.103 184.88 114.421 184.737 114.706C184.595 114.991 184.378 115.231 184.111 115.4C183.843 115.569 183.535 115.662 183.219 115.667C182.903 115.672 182.592 115.59 182.319 115.43C179.765 113.955 177.676 111.782 176.294 109.16C174.911 106.538 174.291 103.576 174.506 100.614ZM223 145.77C223.006 147.77 222.457 149.731 221.416 151.432C220.374 153.133 218.881 154.506 217.107 155.394L216.916 155.481L200.09 162.717C199.923 162.79 199.751 162.849 199.574 162.892L171.841 169.891C171.566 169.962 171.284 169.998 171 170H125.933C124.094 170 122.331 169.263 121.031 167.95C119.73 166.637 119 164.857 119 163.001V145.504C119 143.647 119.73 141.867 121.031 140.554C122.331 139.242 124.094 138.505 125.933 138.505H138.366L148.168 128.605C149.453 127.302 150.981 126.269 152.664 125.565C154.348 124.862 156.152 124.502 157.974 124.507H179.667C181.498 124.506 183.305 124.925 184.953 125.73C186.602 126.535 188.048 127.706 189.184 129.156C190.32 130.606 191.116 132.296 191.513 134.101C191.91 135.906 191.897 137.777 191.475 139.576L209.606 135.368C211.184 134.946 212.837 134.896 214.438 135.221C216.039 135.546 217.544 136.237 218.838 137.242C220.132 138.247 221.181 139.539 221.902 141.017C222.624 142.496 222.999 144.122 223 145.77ZM216.067 145.77C216.066 145.192 215.933 144.621 215.679 144.102C215.425 143.584 215.055 143.132 214.6 142.78C214.144 142.429 213.615 142.189 213.052 142.078C212.49 141.967 211.909 141.988 211.356 142.14L211.222 142.175L182.189 148.916C181.934 148.973 181.674 149.002 181.413 149.003H167.533C166.614 149.003 165.732 148.634 165.082 147.978C164.432 147.322 164.067 146.432 164.067 145.504C164.067 144.575 164.432 143.685 165.082 143.029C165.732 142.373 166.614 142.004 167.533 142.004H179.667C181.046 142.004 182.368 141.451 183.344 140.467C184.319 139.482 184.867 138.147 184.867 136.755C184.867 135.363 184.319 134.027 183.344 133.043C182.368 132.059 181.046 131.506 179.667 131.506H157.974C157.063 131.503 156.161 131.682 155.319 132.035C154.478 132.387 153.714 132.904 153.073 133.557L143.267 143.452V163.001H170.567L197.62 156.173L214.086 149.095C214.686 148.776 215.187 148.298 215.536 147.712C215.885 147.126 216.069 146.454 216.067 145.77ZM191.8 112.258C191.8 115.373 192.715 118.418 194.429 121.007C196.143 123.597 198.58 125.615 201.43 126.807C204.281 127.999 207.417 128.311 210.443 127.703C213.469 127.096 216.249 125.596 218.431 123.394C220.613 121.191 222.098 118.385 222.7 115.331C223.302 112.276 222.993 109.109 221.812 106.232C220.632 103.354 218.632 100.895 216.067 99.1645C213.501 97.4341 210.485 96.5105 207.4 96.5105C203.263 96.5105 199.295 98.1697 196.369 101.123C193.444 104.076 191.8 108.082 191.8 112.258Z" fill="#CA7C61"/>
</svg>
