<svg width="136" height="158" viewBox="0 0 136 158" fill="none" xmlns="http://www.w3.org/2000/svg">
<path d="M57.7653 68.2327C57.5036 71.6446 59.2011 78.4469 68.0852 78.3607" stroke="#FEFBF6" stroke-width="2" stroke-linecap="round" stroke-linejoin="round"/>
<path d="M51.1479 59.9363C55.4833 44.1335 61.8043 37.9563 67.6373 37.6331C73.4703 37.3098 81.2103 43.2358 84.912 59.9363C88.6136 76.6368 79.3033 85.795 67.6373 86.1183C55.9713 86.4416 46.7731 75.8826 51.1479 59.9363Z" stroke="#FEFBF6" stroke-width="2" stroke-linecap="round" stroke-linejoin="round"/>
<path d="M58.9996 42.8049C57.3544 39.6444 53.7499 33.5173 45.7631 33.8621C37.7764 34.2069 31.9285 46.4682 30.8442 52.6097C28.5259 63.2046 29.5878 83.08 52.3814 77.822" stroke="#FEFBF6" stroke-width="2" stroke-linecap="round" stroke-linejoin="round"/>
<path d="M76.6107 42.1247C78.278 38.9049 81.931 32.663 90.025 33.0142C98.1191 33.3655 104.046 45.8567 105.144 52.1133C107.494 62.9068 106.418 83.1548 83.3178 77.7983" stroke="#FEFBF6" stroke-width="2" stroke-linecap="round" stroke-linejoin="round"/>
<circle cx="68" cy="60" r="59" stroke="#FEFBF6" stroke-width="2"/>
<path d="M21.34 136.9L20 137.34C19.82 136.6 19.36 135.46 18.98 134.62L20.26 134.24C20.68 135.08 21.14 136.18 21.34 136.9ZM19.52 141.54H23.68C23.68 141.54 23.68 142.02 23.66 142.22C23.52 148.76 23.38 150.96 22.88 151.66C22.56 152.08 22.22 152.24 21.7 152.3C21.2 152.36 20.4 152.36 19.56 152.3C19.52 151.9 19.38 151.32 19.16 150.92C19.98 151 20.72 151.02 21.04 151.02C21.3 151.02 21.48 150.96 21.62 150.74C21.96 150.3 22.1 148.38 22.22 142.9H19.52V143.04C19.52 146.32 19.12 149.7 16.48 152.52C16.22 152.2 15.74 151.8 15.38 151.56C17.8 148.98 18.1 145.84 18.1 143.02V138.88H15.74V137.5H24.56V138.88H19.52V141.54ZM31.02 139.36H27.28C27.24 139.42 27.22 139.5 27.2 139.56C27.62 141.9 28.22 144.04 29.1 145.86C30.04 144.06 30.64 141.92 31.02 139.36ZM33.96 139.36H32.5C32 142.58 31.18 145.2 29.94 147.36C31.02 149.06 32.38 150.4 34.14 151.22C33.8 151.52 33.34 152.08 33.1 152.5C31.42 151.62 30.08 150.32 29.04 148.7C27.84 150.28 26.28 151.56 24.3 152.58C24.16 152.24 23.72 151.6 23.44 151.28C25.52 150.32 27.08 149 28.24 147.32C27.42 145.7 26.8 143.82 26.3 141.76C25.88 142.68 25.38 143.5 24.86 144.24C24.62 143.96 24.04 143.38 23.7 143.12C25.32 141.02 26.42 137.68 27.04 134.26L28.54 134.5C28.3 135.68 28.04 136.86 27.72 137.98H33.96V139.36ZM44.62 143.42L44.82 144.72C44.02 144.98 43.2 145.22 42.4 145.48V152.54H40.98V145.94C39.74 146.32 38.56 146.7 37.54 147.02L37.2 145.58C38.22 145.3 39.56 144.94 40.98 144.5V139.72H39.12C38.88 140.96 38.56 142.1 38.2 143C37.96 142.82 37.38 142.46 37.08 142.3C37.84 140.54 38.22 137.88 38.46 135.34L39.76 135.54C39.66 136.46 39.54 137.4 39.38 138.3H40.98V134.28H42.4V138.3H44.68V139.72H42.4V144.08L44.62 143.42ZM52.44 139.62H47.42C47.96 142.18 48.76 144.48 49.92 146.38C51.12 144.56 51.9 142.32 52.44 139.62ZM55.44 139.62H53.96C53.3 142.92 52.32 145.54 50.8 147.66C52.08 149.28 53.7 150.54 55.74 151.3C55.44 151.6 54.98 152.16 54.76 152.56C52.76 151.72 51.16 150.44 49.88 148.82C48.5 150.38 46.78 151.6 44.58 152.58C44.4 152.24 43.9 151.62 43.62 151.32C45.9 150.42 47.68 149.2 49.02 147.6C47.88 145.8 47.06 143.66 46.46 141.22C46.04 142 45.6 142.7 45.12 143.3C44.88 143.04 44.32 142.5 43.98 142.26C45.56 140.34 46.74 137.34 47.42 134.26L48.86 134.54C48.58 135.78 48.22 137.02 47.78 138.2H55.44V139.62ZM68.74 150.2H76.92V151.66H59.12V150.2H67.18V142.14H60.38V140.68H67.18V134.34H68.74V140.68H75.64V142.14H68.74V150.2ZM88.7 134.5L89.3 135.6C87.2 136.26 83.8 136.66 81.04 136.82C81 136.5 80.88 136.02 80.76 135.72C83.5 135.52 86.82 135.12 88.7 134.5ZM88.1 139.46L87.22 139.04C87.64 138.32 88.22 137.12 88.52 136.28L89.56 136.74C89.1 137.72 88.54 138.78 88.1 139.46ZM86.02 138.74L84.96 139.2C84.86 138.62 84.52 137.7 84.2 137L85.22 136.58C85.56 137.26 85.9 138.14 86.02 138.74ZM83 139.16L81.94 139.64C81.82 139.02 81.48 138.1 81.12 137.4L82.14 137C82.5 137.66 82.88 138.56 83 139.16ZM84.58 145.46H85.92C85.88 145.98 85.84 146.48 85.78 146.94H89.52V148.1H85.56C85.52 148.26 85.48 148.42 85.42 148.58C86.82 149.42 88.5 150.58 89.34 151.44L88.48 152.36C87.74 151.58 86.32 150.52 85 149.64C84.32 150.98 83.14 151.9 81.12 152.54C80.98 152.22 80.62 151.7 80.32 151.48C82.68 150.8 83.72 149.76 84.2 148.1H80.64V146.94H84.44C84.5 146.5 84.56 145.98 84.58 145.46ZM86.78 142.66L87.82 142.22C88.6 143.2 89.4 144.54 89.74 145.42L88.64 145.92C88.52 145.62 88.36 145.24 88.16 144.84C82.34 145.46 81.68 145.54 81.26 145.76C81.22 145.48 81.06 144.84 80.94 144.48C81.36 144.42 81.84 144.12 82.5 143.72C82.78 143.54 83.4 143.1 84.1 142.54C82.04 142.66 81.64 142.74 81.42 142.82C81.38 142.56 81.22 141.92 81.08 141.56C81.34 141.52 81.6 141.34 81.94 141.08C82.28 140.82 83.42 139.8 84.18 138.7L85.16 139.36C84.46 140.16 83.7 140.94 82.96 141.54L85.42 141.46C86.02 140.94 86.64 140.34 87.2 139.76L88.14 140.5C86.64 141.94 85.06 143.2 83.52 144.2L87.58 143.86C87.34 143.42 87.06 143 86.78 142.66ZM91.92 147.5V150.22H94.4V147.5H91.92ZM94.4 142.22V139.6H91.92V142.22H94.4ZM94.4 146.22V143.5H91.92V146.22H94.4ZM98.72 150.22V151.58H91.92V152.52H90.56V141.32C90.22 141.9 89.86 142.46 89.48 142.94C89.28 142.68 88.76 142.08 88.44 141.82C89.94 140 91.1 137.16 91.76 134.28L93.16 134.6C92.86 135.84 92.46 137.08 92.02 138.26H95.3C95.02 137.42 94.4 136.14 93.88 135.18L95.08 134.8C95.7 135.78 96.34 137.06 96.64 137.9L95.68 138.26H98.5V139.6H95.74V142.22H98.18V143.5H95.74V146.22H98.18V147.5H95.74V150.22H98.72ZM106.34 136.96L107.72 137.3C107.56 137.76 107.38 138.24 107.16 138.68C107.9 139.8 109 140.38 110.46 140.66V136.44H103.32V135.18H118.32L118.58 135.12L119.62 135.44C119.16 136.6 118.58 137.94 118.04 138.78L116.78 138.44C117.08 137.92 117.42 137.18 117.72 136.44H111.92V138.04H116.66V139.14H111.92V140.84C112.6 140.9 113.38 140.92 114.2 140.92C115 140.92 119.26 140.92 120.32 140.88C120.1 141.22 119.86 141.84 119.78 142.24H114.2C110.48 142.24 108.1 141.84 106.6 139.76C105.6 141.44 104.26 142.78 102.68 143.74C102.56 143.4 102.22 142.66 101.96 142.32C103.96 141.22 105.58 139.36 106.34 136.96ZM111.94 150.3L116.08 150.18C115.54 149.8 114.98 149.38 114.5 149.04L115.4 148.28H111.94V150.3ZM105.74 147.12H110.5V145.12H105.74V147.12ZM116.66 145.12H111.94V147.12H116.66V145.12ZM118.14 148.28H115.54C117.14 149.38 119.16 150.9 120.22 151.82L119.26 152.78C118.8 152.36 118.18 151.84 117.52 151.32C112.16 151.56 106.46 151.82 102.72 151.92L102.6 150.5C104.62 150.48 107.42 150.42 110.5 150.34V148.28H104.32V143.98H110.5V142.68H111.94V143.98H118.14V148.28Z" fill="#FEFBF6"/>
</svg>
