<svg width="136" height="158" viewBox="0 0 136 158" fill="none" xmlns="http://www.w3.org/2000/svg">
<path d="M68.5532 72.2091C71.4154 71.8298 77.0363 69.6021 76.6225 63.7259C73.7948 63.5535 68.2221 65.0087 68.5532 72.2091Z" stroke="#FEFBF6" stroke-width="2" stroke-linecap="round" stroke-linejoin="round"/>
<path d="M68.5532 81.4298C71.4154 81.0505 77.0363 78.8228 76.6225 72.9466C73.7948 72.7742 68.2221 74.2294 68.5532 81.4298Z" stroke="#FEFBF6" stroke-width="2" stroke-linecap="round" stroke-linejoin="round"/>
<path d="M59.9663 64.2573C60.3457 67.1195 62.5734 72.7405 68.4495 72.3266C68.6219 69.4989 67.1667 63.9262 59.9663 64.2573Z" stroke="#FEFBF6" stroke-width="2" stroke-linecap="round" stroke-linejoin="round"/>
<path d="M59.9663 73.4777C60.3457 76.3399 62.5734 81.9609 68.4495 81.5471C68.6219 78.7194 67.1667 73.1467 59.9663 73.4777Z" stroke="#FEFBF6" stroke-width="2" stroke-linecap="round" stroke-linejoin="round"/>
<path d="M68.4496 88.6581V63.519M68.4496 63.519C66.5874 61.4844 63.9804 56.7531 68.4496 54.1047C70.3807 55.3807 73.0843 59.0498 68.4496 63.519Z" stroke="#FEFBF6" stroke-width="2" stroke-linecap="round" stroke-linejoin="round"/>
<path d="M42.6894 50.0701L41.9652 78.6232C39.241 82.382 35.8822 90.6238 44.2412 93.5204H92.0367C95.83 92.9687 101.782 89.2168 95.2437 78.6232L94.4161 50.0701" stroke="#FEFBF6" stroke-width="2" stroke-linecap="round" stroke-linejoin="round"/>
<path d="M44.2417 39.2075C44.9659 35.3481 48.2557 27.7165 54.7939 27.1922C61.3322 26.6679 65.2082 27.3015 67.2083 28.0661C71.9672 29.8853 76.2088 34.1383 79.002 34.1383C82.6243 34.1383 91.9337 32.8722 92.4509 39.2075" stroke="#FEFBF6" stroke-width="2" stroke-linecap="round" stroke-linejoin="round"/>
<rect x="37" y="39.2074" width="62.6927" height="10.7591" rx="5.37957" stroke="#FEFBF6" stroke-width="2" stroke-linecap="round" stroke-linejoin="round"/>
<circle cx="68" cy="60" r="59" stroke="#FEFBF6" stroke-width="2"/>
<path d="M9.1 149.54H19.02V143.96H9.1V149.54ZM19.02 137.1H9.1V142.5H19.02V137.1ZM7.6 135.64H20.58V152.22H19.02V151H9.1V152.3H7.6V135.64ZM44.28 139.94H38.1C39.54 143.32 42.06 146.48 44.82 148.04C44.44 148.36 43.92 148.9 43.68 149.3C40.72 147.44 38.14 143.84 36.64 139.94H36.36V147.32H41V148.8H36.36V152.52H34.82V148.8H30.18V147.32H34.82V139.94H34.5C32.96 143.84 30.38 147.4 27.5 149.36C27.26 149 26.78 148.46 26.44 148.18C29.08 146.56 31.54 143.32 33 139.94H26.96V138.46H34.82V134.28H36.36V138.46H44.28V139.94ZM60.04 140.8V138.86H56.3V140.8H60.04ZM60.04 144.04V142.06H56.3V144.04H60.04ZM60.04 147.38V145.3H56.3V147.38H60.04ZM54.86 149.82V140.32C54.38 140.94 53.88 141.5 53.38 142C53.2 141.7 52.74 141.02 52.46 140.72C54.2 139.2 55.7 136.82 56.6 134.3L57.96 134.68C57.6 135.66 57.16 136.64 56.66 137.56H60.64C60.34 136.8 59.86 135.86 59.44 135.1L60.8 134.7C61.36 135.58 61.96 136.72 62.26 137.56H65.76V138.86H61.46V140.8H65.1V142.06H61.46V144.04H65.06V145.3H61.46V147.38H66.1V148.66H56.3V149.82H54.86ZM51.6 137.6L50.26 138.06C50.02 137.18 49.56 135.82 49.24 134.78L50.54 134.38C50.9 135.42 51.36 136.74 51.6 137.6ZM52.28 143.54L52.96 143.82C52.58 145.58 52 147.52 51.32 148.98C51.7 149.2 52.18 149.58 52.92 150.02C54.34 150.88 56.14 151.02 58.52 151.02C61.08 151.02 64.32 150.82 66.56 150.6C66.36 151 66.14 151.7 66.1 152.14C64.62 152.24 60.82 152.36 58.46 152.36C55.82 152.36 54.08 152.14 52.6 151.26C51.8 150.78 51.06 150.1 50.6 150.1C50.16 150.1 49.48 151.36 48.9 152.62L47.88 151.28C48.58 150.28 49.28 149.46 49.88 149.06C50.48 147.92 51 146.34 51.32 144.9H48.7C49.26 143.72 49.88 142.02 50.42 140.44H48.2V139.1H52.3C51.8 140.54 51.18 142.22 50.64 143.6H52.02L52.28 143.54ZM72.92 148.84H84.68V137.82H72.92V148.84ZM71.42 136.34H86.26V151.94H84.68V150.34H72.92V152.04H71.42V136.34ZM107.82 147.82V139.46H106.38V147.82H107.82ZM101.62 139.46V147.82H102.96V139.46H101.62ZM105.44 141.44V139.46H103.9V141.44H105.44ZM103.9 145.62V147.82H105.44V145.62H103.9ZM105.44 144.6V142.48H103.9V144.6H105.44ZM100.46 138.34H103.54C103.64 137.74 103.74 137.02 103.82 136.4H99.96V135.22H109.3V136.4H105.22C105.08 137.06 104.92 137.76 104.78 138.34H109.02V149.68H107.82V148.96H101.62V149.74H100.46V138.34ZM97.84 137.48L98.8 137.7C98.68 138.1 98.54 138.52 98.36 138.92C98.94 139.42 99.6 139.98 99.94 140.36L99.26 141.12C98.94 140.78 98.44 140.26 97.94 139.82C97.74 140.24 97.5 140.64 97.24 140.96C97.06 140.82 96.68 140.56 96.44 140.44C97.04 139.64 97.54 138.54 97.84 137.48ZM92.94 137.52L93.9 137.76C93.78 138.16 93.62 138.58 93.46 138.96C93.94 139.42 94.46 139.96 94.72 140.32L94.04 141.04C93.8 140.74 93.44 140.28 93.04 139.88C92.66 140.58 92.24 141.22 91.8 141.74C91.68 141.52 91.38 141.04 91.18 140.86C91.92 139.98 92.58 138.76 92.94 137.52ZM99.76 142.8L99.04 143.84C98.38 143.3 96.68 142.1 95.72 141.52C94.68 142.54 93.16 143.58 91.92 144.14C91.72 143.84 91.36 143.4 91.08 143.16C92.42 142.7 94.06 141.7 95.04 140.8V137.06H91.44V135.92H95.04V134.3H96.32V135.92H99.62V137.06H96.32V140.74C97.12 141.16 99.2 142.44 99.76 142.8ZM97.4 145.66H94.48C94.24 146.04 94 146.4 93.72 146.78C94.2 147.64 94.72 148.32 95.34 148.86C96.22 147.98 96.92 146.92 97.4 145.66ZM98.2 144.48L98.98 144.88C98.42 146.8 97.5 148.36 96.34 149.62C98.08 150.66 100.3 150.94 102.98 150.94C103.74 150.94 108.66 150.94 109.66 150.9C109.44 151.24 109.18 151.86 109.1 152.24H102.96C99.8 152.24 97.3 151.86 95.4 150.5C94.36 151.4 93.2 152.08 91.96 152.58C91.8 152.26 91.42 151.72 91.18 151.52C92.36 151.08 93.46 150.5 94.44 149.7C93.88 149.16 93.4 148.5 92.98 147.72C92.62 148.1 92.28 148.48 91.92 148.8C91.78 148.54 91.44 147.94 91.22 147.7C91.62 147.34 92.02 146.94 92.4 146.48C92.2 146 92.02 145.48 91.86 144.92L92.84 144.52C92.94 144.86 93.04 145.18 93.16 145.48C93.66 144.74 94.12 143.94 94.46 143.12L95.62 143.42C95.46 143.8 95.3 144.16 95.1 144.54H97.96L98.2 144.48ZM119.46 135.48L120.78 135.82C120.26 137.3 119.64 139.16 119.1 140.28L118.1 139.96C118.58 138.8 119.16 136.82 119.46 135.48ZM115.42 139.92L114.24 140.22C114.14 139.04 113.7 137.2 113.16 135.8L114.24 135.54C114.82 136.92 115.28 138.76 115.42 139.92ZM114.82 143.5L115.82 143.86C115.38 146.04 114.46 148.8 113.36 150.22C113.22 149.74 112.86 149.08 112.64 148.66C113.52 147.5 114.44 145.28 114.82 143.5ZM120.24 142.34H117.52V152.54H116.12V142.34H113.02V140.94H116.12V134.28H117.52V140.94H120.24V141.62C121.52 140.08 122.34 137.84 122.76 135.4L124.16 135.62C123.6 138.58 122.56 141.18 121.04 142.92C120.9 142.72 120.54 142.4 120.24 142.14V142.34ZM117.78 144.08L118.56 143.52C118.96 144.06 120.34 146.62 120.66 147.24L119.64 148.32C119.26 147.32 118.18 144.86 117.78 144.08ZM124.76 134.92H128.3C128.74 137.86 129.82 140.58 131.32 141.96C130.98 142.2 130.44 142.72 130.18 143.08C130.04 142.94 129.9 142.78 129.78 142.62C129.78 142.76 129.78 142.96 129.76 143.08C129.48 148.92 129.2 150.98 128.62 151.68C128.28 152.12 127.94 152.26 127.38 152.3C126.9 152.36 126.04 152.36 125.16 152.3C125.14 151.9 125 151.34 124.78 150.96C125.64 151.04 126.4 151.06 126.74 151.06C127.06 151.06 127.2 151.02 127.38 150.8C127.78 150.36 128.08 148.56 128.28 143.8H125.1C124.66 147.9 123.56 150.74 121 152.6C120.84 152.32 120.32 151.76 120.04 151.54C122.36 149.98 123.34 147.4 123.68 143.8H121.5V142.42H129.62C128.48 140.88 127.62 138.68 127.18 136.28H124.76V134.92Z" fill="#FEFBF6"/>
</svg>
