<svg width="186" height="37" viewBox="0 0 186 37" fill="none" xmlns="http://www.w3.org/2000/svg">
<path d="M7.36683 3.80997H7.35829C7.35829 3.80997 7.36114 3.80997 7.36683 3.80997ZM15.5873 26.3056C16.3499 26.2709 16.9702 25.944 17.4482 25.3249C17.9319 24.7 18.1738 23.9884 18.1738 23.1899V26.6528H17.9775C17.9775 26.6528 17.9746 26.6528 17.9689 26.6528C17.9632 26.6528 17.9575 26.6528 17.9518 26.6528C17.5706 26.6644 17.1864 26.6673 16.7994 26.6615C16.6116 26.6557 16.421 26.6528 16.2275 26.6528C16.034 26.6528 15.8405 26.6528 15.647 26.6528C14.6625 26.6528 13.678 26.6528 12.6935 26.6528C11.322 26.6528 9.95333 26.6528 8.58752 26.6528C8.24607 26.6528 7.90746 26.6528 7.5717 26.6528H0C0.745504 26.6528 1.38573 26.3664 1.92067 25.7936C2.00603 25.7068 2.08286 25.6113 2.15115 25.5072C2.34464 25.2468 2.49545 24.9517 2.60357 24.6219C2.67755 24.4021 2.72593 24.1735 2.74869 23.9363C2.75438 23.8958 2.76007 23.8553 2.76576 23.8148V6.59589C2.76007 6.57275 2.75723 6.54671 2.75723 6.51778C2.67755 5.8524 2.44138 5.28249 2.04871 4.80804C1.96335 4.7039 1.8723 4.60554 1.77555 4.51296C1.26906 4.03852 0.677213 3.80129 0 3.80129H4.4218C4.4218 3.80129 4.42465 3.80129 4.43034 3.80129H4.81447L7.31561 3.80997H7.35829C6.95424 3.85047 6.58149 3.97487 6.24004 4.18316C5.79046 4.46089 5.43478 4.84855 5.173 5.34613C5.173 5.34613 5.15024 5.39242 5.10471 5.485C5.05918 5.57757 5.00796 5.71933 4.95106 5.91026C4.88846 6.10698 4.84577 6.30949 4.82301 6.51778C4.82301 6.54671 4.82017 6.57275 4.81447 6.59589V23.9016C4.82017 23.9132 4.82301 23.9247 4.82301 23.9363C4.92545 24.7579 5.24983 25.4233 5.79615 25.9324C5.90997 26.0424 6.02947 26.1378 6.15467 26.2188C6.2002 26.2478 6.24573 26.2767 6.29125 26.3056C7.21887 26.3056 8.14648 26.3056 9.07409 26.3056C10.4456 26.3056 11.8142 26.3056 13.18 26.3056C13.9825 26.3056 14.7849 26.3056 15.5873 26.3056Z" fill="#CA7C61"/>
<path d="M185.417 24.1706C185.428 24.1996 185.434 24.2285 185.434 24.2574C185.434 24.2748 185.431 24.2921 185.426 24.3095C185.147 24.9922 184.74 25.539 184.205 25.9498C183.659 26.3722 183.047 26.5834 182.37 26.5834C181.909 26.5834 181.473 26.4792 181.063 26.2709C180.449 25.9585 179.951 25.4782 179.57 24.8302C179.194 24.1822 179.006 23.4503 179.006 22.6345V11.9074C178.784 11.9074 178.56 11.9074 178.332 11.9074C177.16 11.9074 175.984 11.9074 174.806 11.9074C174.738 11.9074 174.693 11.8784 174.67 11.8206C174.641 11.7627 174.641 11.7049 174.67 11.647C174.693 11.5891 174.738 11.5602 174.806 11.5602C175.239 11.5602 175.671 11.5602 176.104 11.5602C177.071 11.5602 178.039 11.5602 179.006 11.5602V5.91894C178.631 5.98259 178.278 5.94787 177.948 5.81479C177.931 5.80901 177.911 5.80322 177.888 5.79744C177.803 5.73958 177.76 5.66147 177.76 5.56311C177.76 5.49368 177.786 5.43292 177.837 5.38085C177.888 5.32878 177.948 5.30274 178.016 5.30274C178.044 5.30274 178.073 5.30853 178.101 5.3201C178.113 5.32588 178.127 5.33167 178.144 5.33746C178.383 5.44739 178.642 5.50235 178.921 5.50235C179.217 5.50235 179.493 5.4416 179.749 5.3201C180.011 5.19859 180.235 5.02791 180.423 4.80804C180.423 4.80226 180.426 4.79936 180.432 4.79936C180.688 4.49271 180.898 4.15423 181.063 3.78394V11.5602C181.285 11.5602 181.505 11.5602 181.721 11.5602C182.899 11.5602 184.074 11.5602 185.246 11.5602C185.32 11.5602 185.369 11.5891 185.391 11.647C185.42 11.7049 185.42 11.7627 185.391 11.8206C185.369 11.8784 185.32 11.9074 185.246 11.9074C184.814 11.9074 184.384 11.9074 183.957 11.9074C183.314 11.9074 182.671 11.9074 182.028 11.9074C181.704 11.9074 181.382 11.9074 181.063 11.9074V21.8794C181.063 22.6547 181.2 23.349 181.473 23.9623C181.752 24.5756 182.116 25.0212 182.566 25.2989C182.577 25.3047 182.591 25.3133 182.609 25.3249C182.626 25.3307 182.64 25.3394 182.651 25.351C182.668 25.3567 182.685 25.3625 182.702 25.3683C182.737 25.3857 182.771 25.403 182.805 25.4204C182.998 25.5014 183.2 25.5419 183.411 25.5419C183.496 25.5419 183.582 25.5332 183.667 25.5159C183.678 25.5159 183.69 25.5159 183.701 25.5159C183.787 25.4985 183.869 25.4754 183.949 25.4464C184.182 25.3596 184.398 25.2237 184.598 25.0385C184.734 24.8997 184.851 24.7405 184.948 24.5612C185.01 24.4512 185.058 24.3326 185.093 24.2053C185.098 24.2053 185.101 24.2025 185.101 24.1967C185.101 24.1967 185.101 24.1938 185.101 24.188C185.135 24.1186 185.189 24.0838 185.263 24.0838C185.269 24.0838 185.275 24.0838 185.28 24.0838C185.343 24.0896 185.389 24.1186 185.417 24.1706Z" fill="#CA7C61"/>
<path d="M98.4406 14.8148C98.4577 15.2719 98.4463 15.729 98.4065 16.1861C98.0992 19.1253 96.7931 21.6075 94.4883 23.6325C94.016 24.0376 93.5152 24.4021 92.9859 24.7261C92.9859 24.7261 92.9859 24.729 92.9859 24.7348C91.3128 25.8514 89.4149 26.4966 87.2922 26.6701C87.2524 26.6701 87.2154 26.6701 87.1813 26.6701H85.235C85.235 26.6701 85.1951 26.6701 85.1155 26.6701C85.0415 26.6759 84.9447 26.6788 84.8252 26.6788C84.7057 26.6788 84.5862 26.6788 84.4667 26.6788C84.3472 26.6788 84.2448 26.6788 84.1594 26.6788C84.0797 26.6788 84.0399 26.6788 84.0399 26.6788C83.4822 26.6788 82.9956 26.6788 82.5802 26.6788H82.4351C82.27 26.6788 82.1875 26.6788 82.1875 26.6788H77.7657C78.5112 26.6788 79.1514 26.3924 79.6864 25.8196C79.7717 25.727 79.8486 25.6316 79.9169 25.5332C79.9453 25.4985 79.9709 25.4638 79.9937 25.4291C80.1189 25.2381 80.2242 25.0298 80.3095 24.8042C80.3323 24.7521 80.3522 24.7 80.3693 24.648C80.4433 24.4281 80.4916 24.1996 80.5144 23.9623C80.5201 23.9218 80.5258 23.8784 80.5315 23.8322V6.62193C80.5258 6.593 80.5229 6.56696 80.5229 6.54382C80.4888 6.23717 80.4177 5.95076 80.3095 5.68461C80.19 5.36638 80.025 5.07998 79.8144 4.8254C79.8087 4.81383 79.8002 4.80226 79.7888 4.79069C79.7091 4.7039 79.6266 4.62 79.5413 4.539C79.0348 4.06455 78.4429 3.82733 77.7657 3.82733H81.9997C82.0111 3.82154 82.0225 3.81865 82.0339 3.81865H86.3618C86.8227 3.81865 87.2837 3.82733 87.7447 3.84469C88.2056 3.86205 88.6637 3.90833 89.119 3.98355C90.9458 4.31335 92.5904 5.04816 94.053 6.18799C94.053 6.18799 94.0558 6.18799 94.0615 6.18799C95.2054 7.15423 96.1358 8.29985 96.8529 9.62482C97.8203 11.2391 98.3496 12.9691 98.4406 14.8148ZM87.2837 26.2709C87.3747 26.2593 87.4686 26.2507 87.5654 26.2449C88.6865 26.0308 89.7222 25.6026 90.6726 24.9604C91.623 24.3182 92.4538 23.5052 93.1652 22.5216C93.8766 21.538 94.4314 20.4271 94.8298 19.189C95.2281 17.9508 95.4273 16.6374 95.4273 15.2487C95.4273 15.1157 95.4245 14.9826 95.4188 14.8495V14.8061C95.3505 12.9951 94.9664 11.3432 94.2664 9.85047C93.5664 8.35192 92.6331 7.11084 91.4665 6.12723C90.3055 5.14363 88.9909 4.51585 87.5227 4.24392C87.3065 4.22077 87.0874 4.20341 86.8654 4.19184C86.6378 4.17449 86.4073 4.16581 86.174 4.16581C86.0658 4.16002 85.9577 4.15713 85.8496 4.15713C85.7016 4.15713 85.5537 4.15713 85.4057 4.15713C85.3089 4.16291 85.2094 4.16581 85.1069 4.16581C84.9021 4.16581 84.7 4.16581 84.5009 4.16581H84.0655C84.0598 4.17159 84.0513 4.17738 84.0399 4.18316C84.0285 4.18895 84.0171 4.19763 84.0057 4.2092C83.5562 4.48692 83.2005 4.87458 82.9387 5.37217C82.7566 5.72511 82.6399 6.11566 82.5887 6.54382C82.5887 6.56696 82.5859 6.593 82.5802 6.62193V23.9276C82.5859 23.9392 82.5887 23.9508 82.5887 23.9623C82.6912 24.7782 83.0155 25.4435 83.5619 25.9585C83.6757 26.0626 83.7952 26.1581 83.9204 26.2449C83.9488 26.2622 83.9801 26.2796 84.0143 26.297C84.02 26.3027 84.0285 26.3085 84.0399 26.3143C84.0399 26.3143 84.0427 26.3172 84.0484 26.323H86.1313C86.5183 26.323 86.9024 26.3056 87.2837 26.2709Z" fill="#CA7C61"/>
<path d="M20.4615 20.621C20.7119 19.5795 21.1786 18.7116 21.8615 18.0173C22.5444 17.2998 23.3639 16.7328 24.3199 16.3162C24.1378 15.7608 24.0468 15.1822 24.0468 14.5805C24.0468 14.511 24.0468 14.2796 24.0468 13.8862C24.0695 13.4696 24.2516 12.9373 24.5931 12.2892C24.9345 11.6412 25.4353 11.0973 26.0955 10.6576C26.7556 10.2179 27.632 9.99801 28.7247 9.99801C29.3848 9.99801 30.0336 10.1022 30.6709 10.3105C31.3311 10.5187 31.9115 10.8543 32.4123 11.3172C32.9359 11.7569 33.357 12.3471 33.6757 13.0877C33.9944 13.8283 34.1537 14.7309 34.1537 15.7955V26.6615H31.627V15.7261C31.1034 15.5178 30.4205 15.4136 29.5783 15.4136C28.7816 15.4136 27.9507 15.5294 27.0857 15.7608C26.2207 15.9922 25.4353 16.3741 24.7297 16.9064C25.0256 17.5081 25.4126 18.0173 25.8906 18.4339C26.3686 18.8505 26.9036 19.1861 27.4954 19.4406C28.6108 19.9498 29.3051 20.54 29.5783 21.2111C29.8514 21.8823 29.988 22.4609 29.988 22.9469C29.988 23.1321 29.9311 23.5139 29.8173 24.0925C29.7262 24.5785 29.3962 25.1224 28.8271 25.7241C28.2808 26.3259 27.6662 26.673 26.9832 26.7656C26.6646 26.835 26.3345 26.8698 25.993 26.8698H25.6174C24.0695 26.8698 22.8062 26.4532 21.8273 25.62C21.0761 24.972 20.6095 24.1041 20.4274 23.0163C20.3591 22.5998 20.3249 22.2063 20.3249 21.836C20.3249 21.3731 20.3705 20.9681 20.4615 20.621ZM22.92 23.5024C23.1248 24.4744 23.546 25.215 24.1833 25.7241C24.8435 26.2102 25.5492 26.4532 26.3003 26.4532C26.5052 26.4532 26.6646 26.4416 26.7784 26.4185C27.2109 26.3722 27.6206 26.2217 28.0076 25.9672C28.3946 25.7126 28.7247 25.4117 28.9978 25.0646C29.271 24.6943 29.4758 24.3124 29.6124 23.9189C29.7718 23.5255 29.8401 23.1552 29.8173 22.808C29.8173 22.7386 29.8173 22.6345 29.8173 22.4956C29.8173 22.3336 29.7945 22.16 29.749 21.9749C29.7035 21.7666 29.601 21.5467 29.4417 21.3153C29.3051 21.0607 29.0889 20.7945 28.7929 20.5168C28.6336 20.3548 28.4401 20.2044 28.2125 20.0655C28.0076 19.9267 27.78 19.7878 27.5296 19.6489C26.915 19.3712 26.3459 19.0125 25.8223 18.5728C25.3215 18.133 24.9118 17.6123 24.5931 17.0106C23.8419 17.6123 23.3297 18.3066 23.0566 19.0935C22.7834 19.8804 22.6468 20.6094 22.6468 21.2806C22.6468 21.9054 22.7379 22.646 22.92 23.5024ZM24.4565 16.2468C25.1166 15.9691 25.8906 15.7376 26.7784 15.5525C27.6662 15.3442 28.5425 15.2401 29.4076 15.2401C30.227 15.2401 30.9669 15.3442 31.627 15.5525V15.2748C31.627 14.3953 31.5246 13.6084 31.3197 12.9141C31.2286 12.5901 31.1034 12.2661 30.9441 11.9421C30.8075 11.6181 30.614 11.3288 30.3636 11.0742C30.136 10.8196 29.8514 10.6229 29.51 10.484C29.1913 10.322 28.8157 10.241 28.3832 10.241C27.5865 10.241 26.8922 10.4262 26.3003 10.7965C25.7085 11.1436 25.2305 11.6065 24.8662 12.1851C24.5248 12.7637 24.3313 13.2844 24.2858 13.7473C24.2403 14.187 24.2175 14.4995 24.2175 14.6846C24.2175 15.2401 24.2972 15.7608 24.4565 16.2468Z" fill="#CA7C61"/>
<path d="M101.352 14.9276C101.738 14.1176 102.217 13.4117 102.786 12.81C103.377 12.2082 104.015 11.7106 104.698 11.3172C105.381 10.9006 106.086 10.5882 106.815 10.3799C107.543 10.1716 108.249 10.0443 108.932 9.99801H109.376C109.922 9.99801 110.537 10.0906 111.219 10.2757C111.925 10.4377 112.597 10.727 113.234 11.1436C113.871 11.5602 114.429 12.1272 114.907 12.8447C115.408 13.539 115.715 14.4185 115.829 15.4831H112.688C113.166 15.5988 113.621 15.8187 114.054 16.1427C114.486 16.4667 114.862 16.8717 115.18 17.3577C115.499 17.8206 115.738 18.3297 115.897 18.8852C116.079 19.4175 116.148 19.9498 116.102 20.4821C116.102 20.5978 116.102 20.7135 116.102 20.8293C116.102 20.945 116.091 21.0607 116.068 21.1764C116.023 21.7782 115.852 22.4146 115.556 23.0858C115.283 23.7569 114.873 24.3702 114.327 24.9257C113.78 25.4811 113.086 25.944 112.244 26.3143C111.424 26.6846 110.457 26.8698 109.341 26.8698C108.226 26.8698 107.145 26.7193 106.098 26.4185C105.073 26.1176 104.151 25.6431 103.332 24.9951C102.535 24.324 101.886 23.4908 101.386 22.4956C100.885 21.4773 100.612 20.2507 100.566 18.8158V18.6422C100.566 17.2304 100.828 15.9922 101.352 14.9276ZM103.127 19.1629C103.218 20.1349 103.446 21.0607 103.81 21.9402C104.174 22.8196 104.641 23.5949 105.21 24.2661C105.802 24.9141 106.496 25.4349 107.293 25.8283C108.09 26.1986 108.977 26.3837 109.956 26.3837H110.366C111.049 26.3375 111.698 26.187 112.312 25.9324C112.95 25.6779 113.507 25.3307 113.985 24.891C114.486 24.4281 114.896 23.8958 115.214 23.2941C115.556 22.6923 115.772 22.0212 115.863 21.2806C115.886 21.1186 115.897 20.9681 115.897 20.8293C115.92 20.6904 115.932 20.5515 115.932 20.4127C115.977 19.8572 115.886 19.2786 115.658 18.6769C115.453 18.0752 115.146 17.5313 114.736 17.0453C114.349 16.5592 113.871 16.1658 113.302 15.8649C112.756 15.5641 112.164 15.4368 111.527 15.4831H103.298C103.116 16.27 103.025 17.0337 103.025 17.7743C103.025 18.214 103.059 18.6769 103.127 19.1629ZM103.332 15.3442H113.507C113.416 14.5573 113.177 13.8399 112.79 13.1918C112.426 12.5207 111.993 11.9652 111.493 11.5255C110.992 11.0626 110.468 10.727 109.922 10.5187C109.376 10.2873 108.898 10.2063 108.488 10.2757C108.146 10.2757 107.805 10.3105 107.464 10.3799C106.394 10.6113 105.506 11.2015 104.8 12.1504C104.095 13.0993 103.605 14.1639 103.332 15.3442Z" fill="#CA7C61"/>
<path d="M144.784 14.9276C145.171 14.1176 145.649 13.4117 146.218 12.81C146.81 12.2082 147.448 11.7106 148.13 11.3172C148.813 10.9006 149.519 10.5882 150.247 10.3799C150.976 10.1716 151.682 10.0443 152.364 9.99801H152.808C153.355 9.99801 153.969 10.0906 154.652 10.2757C155.358 10.4377 156.029 10.727 156.667 11.1436C157.304 11.5602 157.862 12.1272 158.34 12.8447C158.841 13.539 159.148 14.4185 159.262 15.4831H156.12C156.598 15.5988 157.054 15.8187 157.486 16.1427C157.919 16.4667 158.294 16.8717 158.613 17.3577C158.932 17.8206 159.171 18.3297 159.33 18.8852C159.512 19.4175 159.58 19.9498 159.535 20.4821C159.535 20.5978 159.535 20.7135 159.535 20.8293C159.535 20.945 159.524 21.0607 159.501 21.1764C159.455 21.7782 159.285 22.4146 158.989 23.0858C158.715 23.7569 158.306 24.3702 157.759 24.9257C157.213 25.4811 156.519 25.944 155.677 26.3143C154.857 26.6846 153.89 26.8698 152.774 26.8698C151.659 26.8698 150.578 26.7193 149.53 26.4185C148.506 26.1176 147.584 25.6431 146.765 24.9951C145.968 24.324 145.319 23.4908 144.818 22.4956C144.318 21.4773 144.044 20.2507 143.999 18.8158V18.6422C143.999 17.2304 144.261 15.9922 144.784 14.9276ZM146.56 19.1629C146.651 20.1349 146.878 21.0607 147.243 21.9402C147.607 22.8196 148.074 23.5949 148.643 24.2661C149.234 24.9141 149.929 25.4349 150.725 25.8283C151.522 26.1986 152.41 26.3837 153.389 26.3837H153.799C154.481 26.3375 155.13 26.187 155.745 25.9324C156.382 25.6779 156.94 25.3307 157.418 24.891C157.919 24.4281 158.328 23.8958 158.647 23.2941C158.989 22.6923 159.205 22.0212 159.296 21.2806C159.319 21.1186 159.33 20.9681 159.33 20.8293C159.353 20.6904 159.364 20.5515 159.364 20.4127C159.41 19.8572 159.319 19.2786 159.091 18.6769C158.886 18.0752 158.579 17.5313 158.169 17.0453C157.782 16.5592 157.304 16.1658 156.735 15.8649C156.189 15.5641 155.597 15.4368 154.959 15.4831H146.73C146.548 16.27 146.457 17.0337 146.457 17.7743C146.457 18.214 146.491 18.6769 146.56 19.1629ZM146.765 15.3442H156.94C156.849 14.5573 156.61 13.8399 156.223 13.1918C155.859 12.5207 155.426 11.9652 154.925 11.5255C154.425 11.0626 153.901 10.727 153.355 10.5187C152.808 10.2873 152.33 10.2063 151.921 10.2757C151.579 10.2757 151.238 10.3105 150.896 10.3799C149.826 10.6113 148.939 11.2015 148.233 12.1504C147.527 13.0993 147.038 14.1639 146.765 15.3442Z" fill="#CA7C61"/>
<path d="M162.881 9.99801H165.408V13.9556C165.886 12.6827 166.387 11.7106 166.91 11.0395C167.434 10.3452 168.185 9.99801 169.164 9.99801C170.029 9.99801 170.735 10.1716 171.281 10.5187C171.85 10.8428 172.408 11.3519 172.954 12.0462C172.84 12.2082 172.738 12.3587 172.647 12.4975C172.556 12.6364 172.465 12.7868 172.374 12.9488C172.191 13.2034 172.009 13.4696 171.827 13.7473C171.668 14.025 171.509 14.2796 171.349 14.511C171.281 14.0019 171.133 13.5043 170.905 13.0183C170.7 12.5322 170.461 12.1041 170.188 11.7338C169.915 11.3635 169.608 11.0742 169.266 10.8659C168.948 10.6345 168.629 10.5187 168.31 10.5187C168.196 10.5187 168.105 10.5303 168.037 10.5535C167.718 10.5997 167.434 10.7502 167.183 11.0048C166.933 11.2362 166.694 11.5371 166.466 11.9074C166.262 12.2545 166.068 12.6595 165.886 13.1224C165.727 13.5621 165.567 14.0019 165.408 14.4416V26.6615H162.881V9.99801Z" fill="#CA7C61"/>
<path d="M119.107 12.6364C119.38 11.8958 119.881 11.2941 120.609 10.8312C121.361 10.3452 122.385 10.1022 123.682 10.1022C124.616 10.1022 125.424 10.403 126.107 11.0048C126.812 11.6065 127.427 12.3818 127.951 13.3307C128.474 14.2565 128.929 15.2979 129.316 16.4551C129.726 17.6123 130.102 18.7463 130.443 19.8572C130.807 20.945 131.16 21.9517 131.502 22.8775C131.866 23.8032 132.264 24.4975 132.697 24.9604C133.129 25.4927 133.653 25.8862 134.267 26.1407C134.882 26.3722 135.519 26.4879 136.18 26.4879C136.68 26.4879 137.158 26.43 137.614 26.3143C138.092 26.1755 138.513 25.9903 138.877 25.7589C139.264 25.5043 139.571 25.2034 139.799 24.8563C140.049 24.5091 140.209 24.1272 140.277 23.7106C140.3 23.6412 140.311 23.5255 140.311 23.3635C140.357 22.9469 140.254 22.565 140.004 22.2179C139.753 21.8707 139.401 21.5583 138.945 21.2806C138.513 20.9797 138.001 20.702 137.409 20.4474C136.817 20.1928 136.191 19.9498 135.531 19.7184C134.871 19.4638 134.245 19.1861 133.653 18.8852C133.061 18.5843 132.526 18.2256 132.048 17.809C131.593 17.3924 131.229 16.918 130.955 16.3857C130.682 15.8302 130.546 15.1706 130.546 14.4069V14.2333C130.568 13.539 130.705 12.9373 130.955 12.4281C131.206 11.8958 131.536 11.4676 131.946 11.1436C132.355 10.7965 132.822 10.5419 133.346 10.3799C133.869 10.1947 134.427 10.1022 135.019 10.1022C135.906 10.1022 136.828 10.2989 137.784 10.6923C138.763 11.0626 139.662 11.6296 140.482 12.3934L140.379 12.4975C139.492 11.6875 138.604 11.1205 137.716 10.7965C136.851 10.4493 136.032 10.2757 135.258 10.2757C134.165 10.2757 133.255 10.5535 132.526 11.1089C131.82 11.6644 131.422 12.3471 131.331 13.1571V13.4349C131.263 14.106 131.468 14.673 131.946 15.1359C132.424 15.5756 133.038 15.9807 133.789 16.351C134.541 16.6981 135.349 17.0337 136.214 17.3577C137.102 17.6586 137.921 18.0173 138.672 18.4339C139.423 18.8273 140.049 19.3018 140.55 19.8572C141.051 20.4127 141.29 21.107 141.267 21.9402V22.1832C141.244 22.9006 141.074 23.5371 140.755 24.0925C140.459 24.648 140.072 25.1224 139.594 25.5159C139.139 25.8862 138.615 26.1755 138.023 26.3837C137.432 26.5689 136.828 26.6615 136.214 26.6615C134.825 26.6615 133.687 26.2102 132.799 25.3076C132.458 25.0067 132.139 24.5438 131.843 23.9189C131.547 23.2941 131.251 22.5882 130.955 21.8013C130.659 20.9913 130.364 20.1349 130.068 19.2323C129.794 18.3297 129.499 17.4387 129.18 16.5592C128.52 14.6846 127.734 13.1687 126.824 12.0115C125.913 10.8312 124.889 10.241 123.751 10.241C123.66 10.241 123.569 10.241 123.478 10.241C123.387 10.241 123.296 10.2526 123.204 10.2757C122.089 10.4377 121.224 10.7849 120.609 11.3172C120.018 11.8264 119.687 12.4397 119.619 13.1571V13.4349C119.551 14.106 119.756 14.673 120.234 15.1359C120.712 15.5756 121.326 15.9807 122.078 16.351C122.829 16.6981 123.637 17.0337 124.502 17.3577C125.39 17.6586 126.209 18.0173 126.96 18.4339C127.712 18.8273 128.338 19.3018 128.838 19.8572C129.339 20.4127 129.578 21.107 129.555 21.9402V22.1832C129.533 22.8775 129.373 23.5024 129.077 24.0578C128.781 24.6133 128.395 25.0877 127.916 25.4811C127.461 25.8514 126.926 26.1407 126.312 26.349C125.72 26.5573 125.105 26.6615 124.468 26.6615C123.717 26.6615 123.056 26.5342 122.487 26.2796C121.918 26.025 121.44 25.701 121.053 25.3076C120.689 24.9141 120.416 24.4975 120.234 24.0578C120.074 23.5949 120.018 23.1783 120.063 22.808C120.063 22.5072 120.131 22.0212 120.268 21.35C120.427 20.702 120.996 19.8804 121.975 18.8852C121.065 18.4223 120.313 17.8322 119.722 17.1147C119.13 16.3972 118.834 15.4368 118.834 14.2333C118.834 13.7241 118.925 13.1918 119.107 12.6364ZM120.473 24.0925C120.769 24.81 121.27 25.3886 121.975 25.8283C122.681 26.2449 123.478 26.4647 124.365 26.4879C124.934 26.4879 125.458 26.4185 125.936 26.2796C126.437 26.1176 126.869 25.9093 127.234 25.6547C127.621 25.4001 127.928 25.1108 128.155 24.7868C128.383 24.4397 128.52 24.0809 128.565 23.7106C128.588 23.6181 128.599 23.4908 128.599 23.3288C128.645 22.7733 128.474 22.2989 128.087 21.9054C127.723 21.512 127.222 21.1533 126.585 20.8293C125.97 20.5052 125.265 20.2044 124.468 19.9267C123.694 19.6258 122.92 19.3018 122.146 18.9546C121.213 19.8804 120.655 20.6788 120.473 21.35C120.313 21.9286 120.234 22.4146 120.234 22.808C120.234 23.3172 120.313 23.7454 120.473 24.0925Z" fill="#CA7C61"/>
<path d="M47.1631 10.1716H38.456V9.99801H49.9288L39.6853 26.5226H49.6557V26.6615H36.9195L47.1631 10.1716Z" fill="#CA7C61"/>
<path d="M50.9873 32.8755C50.8849 31.4869 51.6361 30.2025 52.9336 29.6123L60.1041 26.2796C58.4993 22.0096 56.6896 17.7049 55.0165 13.4349C54.4701 12.0115 54.0604 11.2131 53.4116 10.727H54.9311H56.4506C55.7335 11.5255 56.075 12.5322 56.4506 13.5043C57.2359 15.6566 59.0797 20.621 60.7529 24.7521L66.0795 11.8727C66.0454 11.4561 65.8405 11.0395 65.499 10.727H67.377C67.0014 11.0048 66.7283 11.3519 66.4551 11.8379C63.4162 19.2323 60.3773 26.592 57.3042 33.9517C56.7579 35.2015 55.5628 35.9999 54.2653 35.9999C52.5239 35.9999 51.1239 34.646 50.9873 32.8755ZM52.4897 30.2719C51.5337 30.9662 51.8068 32.8061 53.1385 33.9864C53.8214 34.6113 54.6409 34.9238 55.3579 34.9238C56.0067 34.9238 56.553 34.6808 56.8262 34.16C56.8945 34.0559 56.9286 33.9517 56.9969 33.8129L59.8992 26.7309L53.0702 29.9247C52.8653 30.0289 52.6604 30.133 52.4897 30.2719Z" fill="#CA7C61"/>
<path d="M7.35829 3.80997H7.36683C7.36114 3.80997 7.35829 3.80997 7.35829 3.80997ZM7.35829 3.80997H7.31561L4.81447 3.80129H4.43034C4.42465 3.80129 4.4218 3.80129 4.4218 3.80129H0C0.677213 3.80129 1.26906 4.03852 1.77555 4.51296C1.8723 4.60554 1.96335 4.7039 2.04871 4.80804C2.44138 5.28249 2.67755 5.8524 2.75723 6.51778C2.75723 6.54671 2.76007 6.57275 2.76576 6.59589V23.8148C2.76007 23.8553 2.75438 23.8958 2.74869 23.9363C2.72593 24.1735 2.67755 24.4021 2.60357 24.6219C2.49545 24.9517 2.34464 25.2468 2.15115 25.5072C2.08286 25.6113 2.00603 25.7068 1.92067 25.7936C1.38573 26.3664 0.745504 26.6528 0 26.6528H7.5717C7.90746 26.6528 8.24607 26.6528 8.58752 26.6528C9.95333 26.6528 11.322 26.6528 12.6935 26.6528C13.678 26.6528 14.6625 26.6528 15.647 26.6528C15.8405 26.6528 16.034 26.6528 16.2275 26.6528C16.421 26.6528 16.6116 26.6557 16.7994 26.6615C17.1864 26.6673 17.5706 26.6644 17.9518 26.6528C17.9575 26.6528 17.9632 26.6528 17.9689 26.6528C17.9746 26.6528 17.9775 26.6528 17.9775 26.6528H18.1738V23.1899C18.1738 23.9884 17.9319 24.7 17.4482 25.3249C16.9702 25.944 16.3499 26.2709 15.5873 26.3056C14.7849 26.3056 13.9825 26.3056 13.18 26.3056C11.8142 26.3056 10.4456 26.3056 9.07409 26.3056C8.14648 26.3056 7.21887 26.3056 6.29125 26.3056C6.24573 26.2767 6.2002 26.2478 6.15467 26.2188C6.02947 26.1378 5.90997 26.0424 5.79615 25.9324C5.24983 25.4233 4.92545 24.7579 4.82301 23.9363C4.82301 23.9247 4.82017 23.9132 4.81447 23.9016V6.59589C4.82017 6.57275 4.82301 6.54671 4.82301 6.51778C4.84577 6.30949 4.88846 6.10698 4.95106 5.91026C5.00796 5.71933 5.05918 5.57757 5.10471 5.485C5.15024 5.39242 5.173 5.34613 5.173 5.34613C5.43478 4.84855 5.79046 4.46089 6.24004 4.18316C6.58149 3.97487 6.95424 3.85047 7.35829 3.80997ZM185.417 24.1706C185.428 24.1996 185.434 24.2285 185.434 24.2574C185.434 24.2748 185.431 24.2921 185.426 24.3095C185.147 24.9922 184.74 25.539 184.205 25.9498C183.659 26.3722 183.047 26.5834 182.37 26.5834C181.909 26.5834 181.473 26.4792 181.063 26.2709C180.449 25.9585 179.951 25.4782 179.57 24.8302C179.194 24.1822 179.006 23.4503 179.006 22.6345V11.9074C178.784 11.9074 178.56 11.9074 178.332 11.9074C177.16 11.9074 175.984 11.9074 174.806 11.9074C174.738 11.9074 174.693 11.8784 174.67 11.8206C174.641 11.7627 174.641 11.7049 174.67 11.647C174.693 11.5891 174.738 11.5602 174.806 11.5602C175.239 11.5602 175.671 11.5602 176.104 11.5602C177.071 11.5602 178.039 11.5602 179.006 11.5602V5.91894C178.631 5.98259 178.278 5.94787 177.948 5.81479C177.931 5.80901 177.911 5.80322 177.888 5.79744C177.803 5.73958 177.76 5.66147 177.76 5.56311C177.76 5.49368 177.786 5.43292 177.837 5.38085C177.888 5.32878 177.948 5.30274 178.016 5.30274C178.044 5.30274 178.073 5.30853 178.101 5.3201C178.113 5.32588 178.127 5.33167 178.144 5.33746C178.383 5.44739 178.642 5.50235 178.921 5.50235C179.217 5.50235 179.493 5.4416 179.749 5.3201C180.011 5.19859 180.235 5.02791 180.423 4.80804C180.423 4.80226 180.426 4.79936 180.432 4.79936C180.688 4.49271 180.898 4.15423 181.063 3.78394V11.5602C181.285 11.5602 181.505 11.5602 181.721 11.5602C182.899 11.5602 184.074 11.5602 185.246 11.5602C185.32 11.5602 185.369 11.5891 185.391 11.647C185.42 11.7049 185.42 11.7627 185.391 11.8206C185.369 11.8784 185.32 11.9074 185.246 11.9074C184.814 11.9074 184.384 11.9074 183.957 11.9074C183.314 11.9074 182.671 11.9074 182.028 11.9074C181.704 11.9074 181.382 11.9074 181.063 11.9074V21.8794C181.063 22.6547 181.2 23.349 181.473 23.9623C181.752 24.5756 182.116 25.0212 182.566 25.2989C182.577 25.3047 182.591 25.3133 182.609 25.3249C182.626 25.3307 182.64 25.3394 182.651 25.351C182.668 25.3567 182.685 25.3625 182.702 25.3683C182.737 25.3857 182.771 25.403 182.805 25.4204C182.998 25.5014 183.2 25.5419 183.411 25.5419C183.496 25.5419 183.582 25.5332 183.667 25.5159C183.678 25.5159 183.69 25.5159 183.701 25.5159C183.787 25.4985 183.869 25.4754 183.949 25.4464C184.182 25.3596 184.398 25.2237 184.598 25.0385C184.734 24.8997 184.851 24.7405 184.948 24.5612C185.01 24.4512 185.058 24.3326 185.093 24.2053C185.098 24.2053 185.101 24.2025 185.101 24.1967C185.101 24.1967 185.101 24.1938 185.101 24.188C185.135 24.1186 185.189 24.0838 185.263 24.0838C185.269 24.0838 185.275 24.0838 185.28 24.0838C185.343 24.0896 185.389 24.1186 185.417 24.1706ZM98.4406 14.8148C98.4577 15.2719 98.4463 15.729 98.4065 16.1861C98.0992 19.1253 96.7931 21.6075 94.4883 23.6325C94.016 24.0376 93.5152 24.4021 92.9859 24.7261C92.9859 24.7261 92.9859 24.729 92.9859 24.7348C91.3128 25.8514 89.4149 26.4966 87.2922 26.6701C87.2524 26.6701 87.2154 26.6701 87.1813 26.6701H85.235C85.235 26.6701 85.1951 26.6701 85.1155 26.6701C85.0415 26.6759 84.9447 26.6788 84.8252 26.6788C84.7057 26.6788 84.5862 26.6788 84.4667 26.6788C84.3472 26.6788 84.2448 26.6788 84.1594 26.6788C84.0797 26.6788 84.0399 26.6788 84.0399 26.6788C83.4822 26.6788 82.9956 26.6788 82.5802 26.6788H82.4351C82.27 26.6788 82.1875 26.6788 82.1875 26.6788H77.7657C78.5112 26.6788 79.1514 26.3924 79.6864 25.8196C79.7717 25.727 79.8486 25.6316 79.9169 25.5332C79.9453 25.4985 79.9709 25.4638 79.9937 25.4291C80.1189 25.2381 80.2242 25.0298 80.3095 24.8042C80.3323 24.7521 80.3522 24.7 80.3693 24.648C80.4433 24.4281 80.4916 24.1996 80.5144 23.9623C80.5201 23.9218 80.5258 23.8784 80.5315 23.8322V6.62193C80.5258 6.593 80.5229 6.56696 80.5229 6.54382C80.4888 6.23717 80.4177 5.95076 80.3095 5.68461C80.19 5.36638 80.025 5.07998 79.8144 4.8254C79.8087 4.81383 79.8002 4.80226 79.7888 4.79069C79.7091 4.7039 79.6266 4.62 79.5413 4.539C79.0348 4.06455 78.4429 3.82733 77.7657 3.82733H81.9997C82.0111 3.82154 82.0225 3.81865 82.0339 3.81865H86.3618C86.8227 3.81865 87.2837 3.82733 87.7447 3.84469C88.2056 3.86205 88.6637 3.90833 89.119 3.98355C90.9458 4.31335 92.5904 5.04816 94.053 6.18799C94.053 6.18799 94.0558 6.18799 94.0615 6.18799C95.2054 7.15423 96.1358 8.29985 96.8529 9.62482C97.8203 11.2391 98.3496 12.9691 98.4406 14.8148ZM87.2837 26.2709C87.3747 26.2593 87.4686 26.2507 87.5654 26.2449C88.6865 26.0308 89.7222 25.6026 90.6726 24.9604C91.623 24.3182 92.4538 23.5052 93.1652 22.5216C93.8766 21.538 94.4314 20.4271 94.8298 19.189C95.2281 17.9508 95.4273 16.6374 95.4273 15.2487C95.4273 15.1157 95.4245 14.9826 95.4188 14.8495V14.8061C95.3505 12.9951 94.9664 11.3432 94.2664 9.85047C93.5664 8.35192 92.6331 7.11084 91.4665 6.12723C90.3055 5.14363 88.9909 4.51585 87.5227 4.24392C87.3065 4.22077 87.0874 4.20341 86.8654 4.19184C86.6378 4.17449 86.4073 4.16581 86.174 4.16581C86.0658 4.16002 85.9577 4.15713 85.8496 4.15713C85.7016 4.15713 85.5537 4.15713 85.4057 4.15713C85.3089 4.16291 85.2094 4.16581 85.1069 4.16581C84.9021 4.16581 84.7 4.16581 84.5009 4.16581H84.0655C84.0598 4.17159 84.0513 4.17738 84.0399 4.18316C84.0285 4.18895 84.0171 4.19763 84.0057 4.2092C83.5562 4.48692 83.2005 4.87458 82.9387 5.37217C82.7566 5.72511 82.6399 6.11566 82.5887 6.54382C82.5887 6.56696 82.5859 6.593 82.5802 6.62193V23.9276C82.5859 23.9392 82.5887 23.9508 82.5887 23.9623C82.6912 24.7782 83.0155 25.4435 83.5619 25.9585C83.6757 26.0626 83.7952 26.1581 83.9204 26.2449C83.9488 26.2622 83.9801 26.2796 84.0143 26.297C84.02 26.3027 84.0285 26.3085 84.0399 26.3143C84.0399 26.3143 84.0427 26.3172 84.0484 26.323H86.1313C86.5183 26.323 86.9024 26.3056 87.2837 26.2709ZM20.4615 20.621C20.7119 19.5795 21.1786 18.7116 21.8615 18.0173C22.5444 17.2998 23.3639 16.7328 24.3199 16.3162C24.1378 15.7608 24.0468 15.1822 24.0468 14.5805C24.0468 14.511 24.0468 14.2796 24.0468 13.8862C24.0695 13.4696 24.2516 12.9373 24.5931 12.2892C24.9345 11.6412 25.4353 11.0973 26.0955 10.6576C26.7556 10.2179 27.632 9.99801 28.7247 9.99801C29.3848 9.99801 30.0336 10.1022 30.6709 10.3105C31.3311 10.5187 31.9115 10.8543 32.4123 11.3172C32.9359 11.7569 33.357 12.3471 33.6757 13.0877C33.9944 13.8283 34.1537 14.7309 34.1537 15.7955V26.6615H31.627V15.7261C31.1034 15.5178 30.4205 15.4136 29.5783 15.4136C28.7816 15.4136 27.9507 15.5294 27.0857 15.7608C26.2207 15.9922 25.4353 16.3741 24.7297 16.9064C25.0256 17.5081 25.4126 18.0173 25.8906 18.4339C26.3686 18.8505 26.9036 19.1861 27.4954 19.4406C28.6108 19.9498 29.3051 20.54 29.5783 21.2111C29.8514 21.8823 29.988 22.4609 29.988 22.9469C29.988 23.1321 29.9311 23.5139 29.8173 24.0925C29.7262 24.5785 29.3962 25.1224 28.8271 25.7241C28.2808 26.3259 27.6662 26.673 26.9832 26.7656C26.6646 26.835 26.3345 26.8698 25.993 26.8698H25.6174C24.0695 26.8698 22.8062 26.4532 21.8273 25.62C21.0761 24.972 20.6095 24.1041 20.4274 23.0163C20.3591 22.5998 20.3249 22.2063 20.3249 21.836C20.3249 21.3731 20.3705 20.9681 20.4615 20.621ZM22.92 23.5024C23.1248 24.4744 23.546 25.215 24.1833 25.7241C24.8435 26.2102 25.5492 26.4532 26.3003 26.4532C26.5052 26.4532 26.6646 26.4416 26.7784 26.4185C27.2109 26.3722 27.6206 26.2217 28.0076 25.9672C28.3946 25.7126 28.7247 25.4117 28.9978 25.0646C29.271 24.6943 29.4758 24.3124 29.6124 23.9189C29.7718 23.5255 29.8401 23.1552 29.8173 22.808C29.8173 22.7386 29.8173 22.6345 29.8173 22.4956C29.8173 22.3336 29.7945 22.16 29.749 21.9749C29.7035 21.7666 29.601 21.5467 29.4417 21.3153C29.3051 21.0607 29.0889 20.7945 28.7929 20.5168C28.6336 20.3548 28.4401 20.2044 28.2125 20.0655C28.0076 19.9267 27.78 19.7878 27.5296 19.6489C26.915 19.3712 26.3459 19.0125 25.8223 18.5728C25.3215 18.133 24.9118 17.6123 24.5931 17.0106C23.8419 17.6123 23.3297 18.3066 23.0566 19.0935C22.7834 19.8804 22.6468 20.6094 22.6468 21.2806C22.6468 21.9054 22.7379 22.646 22.92 23.5024ZM24.4565 16.2468C25.1166 15.9691 25.8906 15.7376 26.7784 15.5525C27.6662 15.3442 28.5425 15.2401 29.4076 15.2401C30.227 15.2401 30.9669 15.3442 31.627 15.5525V15.2748C31.627 14.3953 31.5246 13.6084 31.3197 12.9141C31.2286 12.5901 31.1034 12.2661 30.9441 11.9421C30.8075 11.6181 30.614 11.3288 30.3636 11.0742C30.136 10.8196 29.8514 10.6229 29.51 10.484C29.1913 10.322 28.8157 10.241 28.3832 10.241C27.5865 10.241 26.8922 10.4262 26.3003 10.7965C25.7085 11.1436 25.2305 11.6065 24.8662 12.1851C24.5248 12.7637 24.3313 13.2844 24.2858 13.7473C24.2403 14.187 24.2175 14.4995 24.2175 14.6846C24.2175 15.2401 24.2972 15.7608 24.4565 16.2468ZM101.352 14.9276C101.738 14.1176 102.217 13.4117 102.786 12.81C103.377 12.2082 104.015 11.7106 104.698 11.3172C105.381 10.9006 106.086 10.5882 106.815 10.3799C107.543 10.1716 108.249 10.0443 108.932 9.99801H109.376C109.922 9.99801 110.537 10.0906 111.219 10.2757C111.925 10.4377 112.597 10.727 113.234 11.1436C113.871 11.5602 114.429 12.1272 114.907 12.8447C115.408 13.539 115.715 14.4185 115.829 15.4831H112.688C113.166 15.5988 113.621 15.8187 114.054 16.1427C114.486 16.4667 114.862 16.8717 115.18 17.3577C115.499 17.8206 115.738 18.3297 115.897 18.8852C116.079 19.4175 116.148 19.9498 116.102 20.4821C116.102 20.5978 116.102 20.7135 116.102 20.8293C116.102 20.945 116.091 21.0607 116.068 21.1764C116.023 21.7782 115.852 22.4146 115.556 23.0858C115.283 23.7569 114.873 24.3702 114.327 24.9257C113.78 25.4811 113.086 25.944 112.244 26.3143C111.424 26.6846 110.457 26.8698 109.341 26.8698C108.226 26.8698 107.145 26.7193 106.098 26.4185C105.073 26.1176 104.151 25.6431 103.332 24.9951C102.535 24.324 101.886 23.4908 101.386 22.4956C100.885 21.4773 100.612 20.2507 100.566 18.8158V18.6422C100.566 17.2304 100.828 15.9922 101.352 14.9276ZM103.127 19.1629C103.218 20.1349 103.446 21.0607 103.81 21.9402C104.174 22.8196 104.641 23.5949 105.21 24.2661C105.802 24.9141 106.496 25.4349 107.293 25.8283C108.09 26.1986 108.977 26.3837 109.956 26.3837H110.366C111.049 26.3375 111.698 26.187 112.312 25.9324C112.95 25.6779 113.507 25.3307 113.985 24.891C114.486 24.4281 114.896 23.8958 115.214 23.2941C115.556 22.6923 115.772 22.0212 115.863 21.2806C115.886 21.1186 115.897 20.9681 115.897 20.8293C115.92 20.6904 115.932 20.5515 115.932 20.4127C115.977 19.8572 115.886 19.2786 115.658 18.6769C115.453 18.0752 115.146 17.5313 114.736 17.0453C114.349 16.5592 113.871 16.1658 113.302 15.8649C112.756 15.5641 112.164 15.4368 111.527 15.4831H103.298C103.116 16.27 103.025 17.0337 103.025 17.7743C103.025 18.214 103.059 18.6769 103.127 19.1629ZM103.332 15.3442H113.507C113.416 14.5573 113.177 13.8399 112.79 13.1918C112.426 12.5207 111.993 11.9652 111.493 11.5255C110.992 11.0626 110.468 10.727 109.922 10.5187C109.376 10.2873 108.898 10.2063 108.488 10.2757C108.146 10.2757 107.805 10.3105 107.464 10.3799C106.394 10.6113 105.506 11.2015 104.8 12.1504C104.095 13.0993 103.605 14.1639 103.332 15.3442ZM144.784 14.9276C145.171 14.1176 145.649 13.4117 146.218 12.81C146.81 12.2082 147.448 11.7106 148.13 11.3172C148.813 10.9006 149.519 10.5882 150.247 10.3799C150.976 10.1716 151.682 10.0443 152.364 9.99801H152.808C153.355 9.99801 153.969 10.0906 154.652 10.2757C155.358 10.4377 156.029 10.727 156.667 11.1436C157.304 11.5602 157.862 12.1272 158.34 12.8447C158.841 13.539 159.148 14.4185 159.262 15.4831H156.12C156.598 15.5988 157.054 15.8187 157.486 16.1427C157.919 16.4667 158.294 16.8717 158.613 17.3577C158.932 17.8206 159.171 18.3297 159.33 18.8852C159.512 19.4175 159.58 19.9498 159.535 20.4821C159.535 20.5978 159.535 20.7135 159.535 20.8293C159.535 20.945 159.524 21.0607 159.501 21.1764C159.455 21.7782 159.285 22.4146 158.989 23.0858C158.715 23.7569 158.306 24.3702 157.759 24.9257C157.213 25.4811 156.519 25.944 155.677 26.3143C154.857 26.6846 153.89 26.8698 152.774 26.8698C151.659 26.8698 150.578 26.7193 149.53 26.4185C148.506 26.1176 147.584 25.6431 146.765 24.9951C145.968 24.324 145.319 23.4908 144.818 22.4956C144.318 21.4773 144.044 20.2507 143.999 18.8158V18.6422C143.999 17.2304 144.261 15.9922 144.784 14.9276ZM146.56 19.1629C146.651 20.1349 146.878 21.0607 147.243 21.9402C147.607 22.8196 148.074 23.5949 148.643 24.2661C149.234 24.9141 149.929 25.4349 150.725 25.8283C151.522 26.1986 152.41 26.3837 153.389 26.3837H153.799C154.481 26.3375 155.13 26.187 155.745 25.9324C156.382 25.6779 156.94 25.3307 157.418 24.891C157.919 24.4281 158.328 23.8958 158.647 23.2941C158.989 22.6923 159.205 22.0212 159.296 21.2806C159.319 21.1186 159.33 20.9681 159.33 20.8293C159.353 20.6904 159.364 20.5515 159.364 20.4127C159.41 19.8572 159.319 19.2786 159.091 18.6769C158.886 18.0752 158.579 17.5313 158.169 17.0453C157.782 16.5592 157.304 16.1658 156.735 15.8649C156.189 15.5641 155.597 15.4368 154.959 15.4831H146.73C146.548 16.27 146.457 17.0337 146.457 17.7743C146.457 18.214 146.491 18.6769 146.56 19.1629ZM146.765 15.3442H156.94C156.849 14.5573 156.61 13.8399 156.223 13.1918C155.859 12.5207 155.426 11.9652 154.925 11.5255C154.425 11.0626 153.901 10.727 153.355 10.5187C152.808 10.2873 152.33 10.2063 151.921 10.2757C151.579 10.2757 151.238 10.3105 150.896 10.3799C149.826 10.6113 148.939 11.2015 148.233 12.1504C147.527 13.0993 147.038 14.1639 146.765 15.3442ZM162.881 9.99801H165.408V13.9556C165.886 12.6827 166.387 11.7106 166.91 11.0395C167.434 10.3452 168.185 9.99801 169.164 9.99801C170.029 9.99801 170.735 10.1716 171.281 10.5187C171.85 10.8428 172.408 11.3519 172.954 12.0462C172.84 12.2082 172.738 12.3587 172.647 12.4975C172.556 12.6364 172.465 12.7868 172.374 12.9488C172.191 13.2034 172.009 13.4696 171.827 13.7473C171.668 14.025 171.509 14.2796 171.349 14.511C171.281 14.0019 171.133 13.5043 170.905 13.0183C170.7 12.5322 170.461 12.1041 170.188 11.7338C169.915 11.3635 169.608 11.0742 169.266 10.8659C168.948 10.6345 168.629 10.5187 168.31 10.5187C168.196 10.5187 168.105 10.5303 168.037 10.5535C167.718 10.5997 167.434 10.7502 167.183 11.0048C166.933 11.2362 166.694 11.5371 166.466 11.9074C166.262 12.2545 166.068 12.6595 165.886 13.1224C165.727 13.5621 165.567 14.0019 165.408 14.4416V26.6615H162.881V9.99801ZM119.107 12.6364C119.38 11.8958 119.881 11.2941 120.609 10.8312C121.361 10.3452 122.385 10.1022 123.682 10.1022C124.616 10.1022 125.424 10.403 126.107 11.0048C126.812 11.6065 127.427 12.3818 127.951 13.3307C128.474 14.2565 128.929 15.2979 129.316 16.4551C129.726 17.6123 130.102 18.7463 130.443 19.8572C130.807 20.945 131.16 21.9517 131.502 22.8775C131.866 23.8032 132.264 24.4975 132.697 24.9604C133.129 25.4927 133.653 25.8862 134.267 26.1407C134.882 26.3722 135.519 26.4879 136.18 26.4879C136.68 26.4879 137.158 26.43 137.614 26.3143C138.092 26.1755 138.513 25.9903 138.877 25.7589C139.264 25.5043 139.571 25.2034 139.799 24.8563C140.049 24.5091 140.209 24.1272 140.277 23.7106C140.3 23.6412 140.311 23.5255 140.311 23.3635C140.357 22.9469 140.254 22.565 140.004 22.2179C139.753 21.8707 139.401 21.5583 138.945 21.2806C138.513 20.9797 138.001 20.702 137.409 20.4474C136.817 20.1928 136.191 19.9498 135.531 19.7184C134.871 19.4638 134.245 19.1861 133.653 18.8852C133.061 18.5843 132.526 18.2256 132.048 17.809C131.593 17.3924 131.229 16.918 130.955 16.3857C130.682 15.8302 130.546 15.1706 130.546 14.4069V14.2333C130.568 13.539 130.705 12.9373 130.955 12.4281C131.206 11.8958 131.536 11.4676 131.946 11.1436C132.355 10.7965 132.822 10.5419 133.346 10.3799C133.869 10.1947 134.427 10.1022 135.019 10.1022C135.906 10.1022 136.828 10.2989 137.784 10.6923C138.763 11.0626 139.662 11.6296 140.482 12.3934L140.379 12.4975C139.492 11.6875 138.604 11.1205 137.716 10.7965C136.851 10.4493 136.032 10.2757 135.258 10.2757C134.165 10.2757 133.255 10.5535 132.526 11.1089C131.82 11.6644 131.422 12.3471 131.331 13.1571V13.4349C131.263 14.106 131.468 14.673 131.946 15.1359C132.424 15.5756 133.038 15.9807 133.789 16.351C134.541 16.6981 135.349 17.0337 136.214 17.3577C137.102 17.6586 137.921 18.0173 138.672 18.4339C139.423 18.8273 140.049 19.3018 140.55 19.8572C141.051 20.4127 141.29 21.107 141.267 21.9402V22.1832C141.244 22.9006 141.074 23.5371 140.755 24.0925C140.459 24.648 140.072 25.1224 139.594 25.5159C139.139 25.8862 138.615 26.1755 138.023 26.3837C137.432 26.5689 136.828 26.6615 136.214 26.6615C134.825 26.6615 133.687 26.2102 132.799 25.3076C132.458 25.0067 132.139 24.5438 131.843 23.9189C131.547 23.2941 131.251 22.5882 130.955 21.8013C130.659 20.9913 130.364 20.1349 130.068 19.2323C129.794 18.3297 129.499 17.4387 129.18 16.5592C128.52 14.6846 127.734 13.1687 126.824 12.0115C125.913 10.8312 124.889 10.241 123.751 10.241C123.66 10.241 123.569 10.241 123.478 10.241C123.387 10.241 123.296 10.2526 123.204 10.2757C122.089 10.4377 121.224 10.7849 120.609 11.3172C120.018 11.8264 119.687 12.4397 119.619 13.1571V13.4349C119.551 14.106 119.756 14.673 120.234 15.1359C120.712 15.5756 121.326 15.9807 122.078 16.351C122.829 16.6981 123.637 17.0337 124.502 17.3577C125.39 17.6586 126.209 18.0173 126.96 18.4339C127.712 18.8273 128.338 19.3018 128.838 19.8572C129.339 20.4127 129.578 21.107 129.555 21.9402V22.1832C129.533 22.8775 129.373 23.5024 129.077 24.0578C128.781 24.6133 128.395 25.0877 127.916 25.4811C127.461 25.8514 126.926 26.1407 126.312 26.349C125.72 26.5573 125.105 26.6615 124.468 26.6615C123.717 26.6615 123.056 26.5342 122.487 26.2796C121.918 26.025 121.44 25.701 121.053 25.3076C120.689 24.9141 120.416 24.4975 120.234 24.0578C120.074 23.5949 120.018 23.1783 120.063 22.808C120.063 22.5072 120.131 22.0212 120.268 21.35C120.427 20.702 120.996 19.8804 121.975 18.8852C121.065 18.4223 120.313 17.8322 119.722 17.1147C119.13 16.3972 118.834 15.4368 118.834 14.2333C118.834 13.7241 118.925 13.1918 119.107 12.6364ZM120.473 24.0925C120.769 24.81 121.27 25.3886 121.975 25.8283C122.681 26.2449 123.478 26.4647 124.365 26.4879C124.934 26.4879 125.458 26.4185 125.936 26.2796C126.437 26.1176 126.869 25.9093 127.234 25.6547C127.621 25.4001 127.928 25.1108 128.155 24.7868C128.383 24.4397 128.52 24.0809 128.565 23.7106C128.588 23.6181 128.599 23.4908 128.599 23.3288C128.645 22.7733 128.474 22.2989 128.087 21.9054C127.723 21.512 127.222 21.1533 126.585 20.8293C125.97 20.5052 125.265 20.2044 124.468 19.9267C123.694 19.6258 122.92 19.3018 122.146 18.9546C121.213 19.8804 120.655 20.6788 120.473 21.35C120.313 21.9286 120.234 22.4146 120.234 22.808C120.234 23.3172 120.313 23.7454 120.473 24.0925ZM47.1631 10.1716H38.456V9.99801H49.9288L39.6853 26.5226H49.6557V26.6615H36.9195L47.1631 10.1716ZM50.9873 32.8755C50.8849 31.4869 51.6361 30.2025 52.9336 29.6123L60.1041 26.2796C58.4993 22.0096 56.6896 17.7049 55.0165 13.4349C54.4701 12.0115 54.0604 11.2131 53.4116 10.727H54.9311H56.4506C55.7335 11.5255 56.075 12.5322 56.4506 13.5043C57.2359 15.6566 59.0797 20.621 60.7529 24.7521L66.0795 11.8727C66.0454 11.4561 65.8405 11.0395 65.499 10.727H67.377C67.0014 11.0048 66.7283 11.3519 66.4551 11.8379C63.4162 19.2323 60.3773 26.592 57.3042 33.9517C56.7579 35.2015 55.5628 35.9999 54.2653 35.9999C52.5239 35.9999 51.1239 34.646 50.9873 32.8755ZM52.4897 30.2719C51.5337 30.9662 51.8068 32.8061 53.1385 33.9864C53.8214 34.6113 54.6409 34.9238 55.3579 34.9238C56.0067 34.9238 56.553 34.6808 56.8262 34.16C56.8945 34.0559 56.9286 33.9517 56.9969 33.8129L59.8992 26.7309L53.0702 29.9247C52.8653 30.0289 52.6604 30.133 52.4897 30.2719Z" stroke="#CA7C61"/>
<path d="M52.75 6.5C52.75 7.19036 52.1904 7.75 51.5 7.75C50.8096 7.75 50.25 7.19036 50.25 6.5C50.25 5.80964 50.8096 5.25 51.5 5.25C52.1904 5.25 52.75 5.80964 52.75 6.5Z" stroke="#CA7C61" stroke-width="0.5"/>
<path d="M97 3.91367C99.7377 3.6569 100.843 1.24878 101 0C101.144 2.68903 103.749 3.8337 105 3.97122C102.233 4.15162 101.066 6.63227 101 8C100.929 5.5494 98.4943 4.117 97 3.91367Z" fill="#CA7C61"/>
</svg>
