<svg width="140" height="158" viewBox="0 0 140 158" fill="none" xmlns="http://www.w3.org/2000/svg">
<path d="M69.9915 77.1726C54.6151 78.102 53.7984 67.9848 55.3121 62.81C68.5764 59.5151 70.6252 71.0122 69.9915 77.1726ZM69.9915 77.1726C64.6689 74.0467 62.1414 69.6041 61.5429 67.7736" stroke="#FEFBF6" stroke-width="2" stroke-linejoin="round"/>
<path d="M70.0512 77.2824C69.1219 61.906 79.2391 61.0893 84.4138 62.603C87.7088 75.8673 76.2117 77.916 70.0512 77.2824ZM70.0512 77.2824C73.1772 71.9598 77.6198 69.4323 79.4503 68.8338" stroke="#FEFBF6" stroke-width="2" stroke-linejoin="round"/>
<path d="M60.2886 85.6933C36.0412 85.4398 30.5998 65.4855 31.0223 56.0513H109.172C105.349 87.9463 90.7046 86.0112 60.2886 85.6933Z" stroke="#FEFBF6" stroke-width="2" stroke-linejoin="round"/>
<path d="M36.3025 56.0512C42.2517 48.6939 57.3606 34.1905 70.2024 35.0354C83.0443 35.8802 98.2236 49.398 104.208 56.0512" stroke="#FEFBF6" stroke-width="2" stroke-linejoin="round"/>
<circle cx="70" cy="60" r="59" stroke="#FEFBF6" stroke-width="2"/>
<path d="M15.3 134.56H16.88V150.46C16.88 151.56 16.58 152 15.88 152.26C15.16 152.5 13.92 152.54 12.06 152.52C11.96 152.1 11.68 151.4 11.44 150.98C12.9 151.04 14.34 151.02 14.72 151C15.14 151 15.3 150.86 15.3 150.46V134.56ZM20.08 139.6L21.48 139.06C23.24 141.86 24.92 145.48 25.42 147.88L23.86 148.54C23.38 146.18 21.78 142.46 20.08 139.6ZM10.08 139.2L11.72 139.5C11.08 142.4 9.92 145.98 8.12 148.2C7.76 147.94 7.12 147.58 6.72 147.42C8.5 145.32 9.6 141.88 10.08 139.2ZM43.88 138.38H45.4V152.46H43.88V150.98H29.82V138.4H31.34V149.48H36.82V134.5H38.34V149.48H43.88V138.38ZM65.04 140.18V141.14H53.3V140.18H58.46V138.94H54.44V138.02H58.46V136.9H59.82V138.02H63.98V138.94H59.82V140.18H65.04ZM55.84 142.68V144.06H62.52V142.68H55.84ZM56.86 148.52L59.82 147.82C59.8 148.1 59.82 148.54 59.86 148.78C56.16 149.8 55.64 149.94 55.34 150.14C55.28 149.86 55.08 149.42 54.92 149.2C55.22 149.1 55.7 148.86 55.7 148.14V146.66C54.98 146.94 54.26 147.18 53.58 147.36C53.42 147.16 53.06 146.7 52.82 146.48C54.38 146.12 56.14 145.54 57.38 144.86H54.58V141.88H63.86V144.86H59.06C58.46 145.34 57.68 145.76 56.86 146.16V148.52ZM64.02 145.3L64.98 145.9C64.3 146.38 63.5 146.84 62.74 147.2C63.64 147.82 64.48 148.42 65.06 148.9L64.08 149.58C62.92 148.54 60.56 146.92 58.68 145.84L59.6 145.28C60.32 145.68 61.12 146.14 61.88 146.66C62.64 146.22 63.5 145.7 64.02 145.3ZM52.32 150.34H66.04V136.5H52.32V150.34ZM50.9 135.14H67.5V152.54H66.04V151.7H52.32V152.54H50.9V135.14ZM78.5 144.26L75.96 145.02V150.78C75.96 151.62 75.78 152 75.26 152.24C74.76 152.48 73.98 152.54 72.68 152.52C72.62 152.14 72.42 151.54 72.22 151.16C73.08 151.18 73.9 151.18 74.14 151.16C74.4 151.16 74.5 151.08 74.5 150.8V145.46C73.54 145.74 72.66 146.02 71.86 146.24L71.44 144.82C72.28 144.6 73.34 144.3 74.5 143.98V139.68H71.74V138.3H74.5V134.28H75.96V138.3H78.24V139.68H75.96V143.54L78.3 142.86L78.5 144.26ZM89.36 143.8H85.58C86.68 146.12 88.5 148.46 90.22 149.7C89.88 149.94 89.4 150.46 89.16 150.82C87.58 149.56 85.94 147.3 84.78 145V152.6H83.32V145.1C82 147.52 80.14 149.72 78.26 150.98C78.02 150.62 77.54 150.08 77.2 149.8C79.22 148.6 81.3 146.22 82.5 143.8H78.88V142.38H83.32V138.94H78.58V137.54H83.32V134.34H84.78V137.54H89.82V138.94H84.78V142.38H89.36V143.8ZM105.8 139.6V137.66H102.9V136.32H105.8V134.28H107.26V136.32H111.14V137.66H107.26V139.6H105.8ZM97.74 139.6V137.68H93.54V136.32H97.74V134.28H99.2V136.32H101.76V137.68H99.2V139.6H97.74ZM102.28 138.44L103.66 138.98C103.52 139.14 103.38 139.32 103.24 139.5C105.24 141.12 108.74 142.76 111.6 143.48C111.28 143.78 110.84 144.36 110.66 144.72C107.92 143.88 104.62 142.2 102.42 140.38C100.42 142.34 97.52 143.78 94.26 144.82C94.08 144.5 93.64 143.92 93.34 143.66C97.22 142.52 100.66 140.72 102.28 138.44ZM98.1 147.28L99.54 147.72C98.42 149.28 96.56 150.74 94.92 151.66C94.64 151.38 94.04 150.9 93.68 150.68C95.34 149.86 97.12 148.64 98.1 147.28ZM109.08 146.44H103.14V152.54H101.62V146.44H95.58V145.06H101.62V142.52H103.14V145.06H109.08V146.44ZM104.92 147.96L106.02 147.16C107.7 148.22 109.76 149.78 110.78 150.84L109.62 151.76C108.64 150.68 106.62 149.04 104.92 147.96ZM121.46 135.48L122.78 135.82C122.26 137.3 121.64 139.16 121.1 140.28L120.1 139.96C120.58 138.8 121.16 136.82 121.46 135.48ZM117.42 139.92L116.24 140.22C116.14 139.04 115.7 137.2 115.16 135.8L116.24 135.54C116.82 136.92 117.28 138.76 117.42 139.92ZM116.82 143.5L117.82 143.86C117.38 146.04 116.46 148.8 115.36 150.22C115.22 149.74 114.86 149.08 114.64 148.66C115.52 147.5 116.44 145.28 116.82 143.5ZM122.24 142.34H119.52V152.54H118.12V142.34H115.02V140.94H118.12V134.28H119.52V140.94H122.24V141.62C123.52 140.08 124.34 137.84 124.76 135.4L126.16 135.62C125.6 138.58 124.56 141.18 123.04 142.92C122.9 142.72 122.54 142.4 122.24 142.14V142.34ZM119.78 144.08L120.56 143.52C120.96 144.06 122.34 146.62 122.66 147.24L121.64 148.32C121.26 147.32 120.18 144.86 119.78 144.08ZM126.76 134.92H130.3C130.74 137.86 131.82 140.58 133.32 141.96C132.98 142.2 132.44 142.72 132.18 143.08C132.04 142.94 131.9 142.78 131.78 142.62C131.78 142.76 131.78 142.96 131.76 143.08C131.48 148.92 131.2 150.98 130.62 151.68C130.28 152.12 129.94 152.26 129.38 152.3C128.9 152.36 128.04 152.36 127.16 152.3C127.14 151.9 127 151.34 126.78 150.96C127.64 151.04 128.4 151.06 128.74 151.06C129.06 151.06 129.2 151.02 129.38 150.8C129.78 150.36 130.08 148.56 130.28 143.8H127.1C126.66 147.9 125.56 150.74 123 152.6C122.84 152.32 122.32 151.76 122.04 151.54C124.36 149.98 125.34 147.4 125.68 143.8H123.5V142.42H131.62C130.48 140.88 129.62 138.68 129.18 136.28H126.76V134.92Z" fill="#FEFBF6"/>
</svg>
