<svg width="339" height="262" viewBox="0 0 339 262" fill="none" xmlns="http://www.w3.org/2000/svg">
<mask id="path-1-inside-1_407_489" fill="white">
<path fill-rule="evenodd" clip-rule="evenodd" d="M160.1 39.3392C161.053 40.2921 161.975 41.2641 162.866 42.2541C163.251 42.5409 163.619 42.8589 163.969 43.2082L169.706 48.9455L175.443 43.2083C175.792 42.8589 176.161 42.5407 176.546 42.2538C177.437 41.264 178.359 40.2921 179.312 39.3393C208.786 9.86578 256.572 9.86578 286.045 39.3393C315.519 68.8129 315.519 116.599 286.045 146.072C285.092 147.025 284.12 147.947 283.13 148.839C282.844 149.223 282.525 149.592 282.176 149.941L176.777 255.34C174.336 257.781 170.947 258.697 167.796 258.086C167.687 258.065 167.579 258.042 167.471 258.018C165.699 257.613 164.015 256.721 162.634 255.34L57.2355 149.941C56.886 149.592 56.5678 149.223 56.2808 148.838C55.2911 147.947 54.3193 147.025 53.3666 146.072C23.8931 116.599 23.8931 68.8127 53.3666 39.3392C82.8401 9.86567 130.626 9.86566 160.1 39.3392Z"/>
</mask>
<path fill-rule="evenodd" clip-rule="evenodd" d="M160.1 39.3392C161.053 40.2921 161.975 41.2641 162.866 42.2541C163.251 42.5409 163.619 42.8589 163.969 43.2082L169.706 48.9455L175.443 43.2083C175.792 42.8589 176.161 42.5407 176.546 42.2538C177.437 41.264 178.359 40.2921 179.312 39.3393C208.786 9.86578 256.572 9.86578 286.045 39.3393C315.519 68.8129 315.519 116.599 286.045 146.072C285.092 147.025 284.12 147.947 283.13 148.839C282.844 149.223 282.525 149.592 282.176 149.941L176.777 255.34C174.336 257.781 170.947 258.697 167.796 258.086C167.687 258.065 167.579 258.042 167.471 258.018C165.699 257.613 164.015 256.721 162.634 255.34L57.2355 149.941C56.886 149.592 56.5678 149.223 56.2808 148.838C55.2911 147.947 54.3193 147.025 53.3666 146.072C23.8931 116.599 23.8931 68.8127 53.3666 39.3392C82.8401 9.86567 130.626 9.86566 160.1 39.3392Z" fill="#FFE2D4"/>
<path d="M162.866 42.2541L161.38 43.5923C161.468 43.69 161.565 43.7788 161.67 43.8574L162.866 42.2541ZM169.706 48.9455L168.292 50.3597C169.073 51.1407 170.339 51.1407 171.12 50.3597L169.706 48.9455ZM176.546 42.2538L177.742 43.8572C177.847 43.7786 177.944 43.6898 178.032 43.592L176.546 42.2538ZM179.312 39.3393L177.898 37.9251L179.312 39.3393ZM286.045 39.3393L284.631 40.7535L286.045 39.3393ZM283.13 148.839L281.792 147.352C281.694 147.44 281.606 147.538 281.527 147.643L283.13 148.839ZM282.176 149.941L283.59 151.356L282.176 149.941ZM176.777 255.34L175.363 253.926L176.777 255.34ZM167.796 258.086L168.176 256.123L168.176 256.123L167.796 258.086ZM167.471 258.018L167.027 259.968L167.027 259.968L167.471 258.018ZM56.2808 148.838L57.8843 147.643C57.8057 147.537 57.7168 147.44 57.6191 147.352L56.2808 148.838ZM164.352 40.9159C163.438 39.9 162.492 38.9026 161.514 37.925L158.686 40.7534C159.614 41.6816 160.512 42.6283 161.38 43.5923L164.352 40.9159ZM165.383 41.794C164.965 41.3763 164.523 40.9951 164.062 40.6507L161.67 43.8574C161.978 44.0867 162.274 44.3416 162.554 44.6224L165.383 41.794ZM171.12 47.5312L165.383 41.794L162.554 44.6224L168.292 50.3597L171.12 47.5312ZM174.029 41.7941L168.292 47.5312L171.12 50.3597L176.857 44.6225L174.029 41.7941ZM175.351 40.6504C174.889 40.9948 174.447 41.3762 174.029 41.7941L176.857 44.6225C177.138 44.3416 177.434 44.0866 177.742 43.8572L175.351 40.6504ZM177.898 37.9251C176.92 38.9026 175.974 39.8998 175.06 40.9156L178.032 43.592C178.9 42.6281 179.798 41.6816 180.726 40.7535L177.898 37.9251ZM287.459 37.9251C257.205 7.67051 208.152 7.67051 177.898 37.9251L180.726 40.7535C209.419 12.061 255.938 12.061 284.631 40.7535L287.459 37.9251ZM287.459 147.487C317.714 117.232 317.714 68.1797 287.459 37.9251L284.631 40.7535C313.323 69.446 313.323 115.966 284.631 144.658L287.459 147.487ZM284.469 150.325C285.484 149.41 286.482 148.464 287.459 147.487L284.631 144.658C283.703 145.586 282.756 146.484 281.792 147.352L284.469 150.325ZM283.59 151.356C284.008 150.938 284.389 150.496 284.734 150.034L281.527 147.643C281.298 147.951 281.043 148.246 280.762 148.527L283.59 151.356ZM178.191 256.755L283.59 151.356L280.762 148.527L175.363 253.926L178.191 256.755ZM167.415 260.05C171.192 260.781 175.261 259.685 178.191 256.755L175.363 253.926C173.411 255.878 170.703 256.612 168.176 256.123L167.415 260.05ZM167.027 259.968C167.156 259.997 167.285 260.024 167.415 260.05L168.176 256.123C168.089 256.106 168.003 256.088 167.916 256.068L167.027 259.968ZM161.22 256.754C162.875 258.409 164.898 259.482 167.027 259.968L167.916 256.068C166.5 255.745 165.155 255.033 164.049 253.926L161.22 256.754ZM55.8213 151.356L161.22 256.754L164.049 253.926L58.6497 148.527L55.8213 151.356ZM54.6774 150.033C55.0219 150.495 55.4033 150.938 55.8213 151.356L58.6497 148.527C58.3687 148.246 58.1137 147.95 57.8843 147.643L54.6774 150.033ZM51.9524 147.487C52.9298 148.464 53.927 149.41 54.9426 150.324L57.6191 147.352C56.6553 146.484 55.7088 145.586 54.7808 144.658L51.9524 147.487ZM51.9524 37.925C21.6978 68.1796 21.6978 117.232 51.9524 147.487L54.7808 144.658C26.0883 115.966 26.0883 69.4459 54.7808 40.7534L51.9524 37.925ZM161.514 37.925C131.259 7.6704 82.207 7.67041 51.9524 37.925L54.7808 40.7534C83.4733 12.0609 129.993 12.0609 158.686 40.7534L161.514 37.925Z" fill="#CA7C61" mask="url(#path-1-inside-1_407_489)"/>
<path d="M124 93.8438C124 91.7137 125.705 90 127.824 90H135.074C138.579 90 141.686 92.05 143.136 95.125H208.624C212.815 95.125 215.874 99.1289 214.774 103.197L208.242 127.589C206.887 132.618 202.346 136.125 197.168 136.125H151.199L152.059 140.689C152.41 142.499 153.987 143.812 155.82 143.812H201.757C203.876 143.812 205.581 145.526 205.581 147.656C205.581 149.786 203.876 151.5 201.757 151.5H155.82C150.307 151.5 145.574 147.56 144.555 142.131L136.333 98.7285C136.221 98.1199 135.695 97.6875 135.074 97.6875H127.824C125.705 97.6875 124 95.9738 124 93.8438ZM144.395 164.312C144.395 163.303 144.593 162.303 144.977 161.371C145.362 160.438 145.925 159.59 146.635 158.877C147.345 158.163 148.189 157.597 149.117 157.21C150.044 156.824 151.039 156.625 152.043 156.625C153.048 156.625 154.042 156.824 154.97 157.21C155.898 157.597 156.741 158.163 157.451 158.877C158.162 159.59 158.725 160.438 159.109 161.371C159.494 162.303 159.692 163.303 159.692 164.312C159.692 165.322 159.494 166.322 159.109 167.254C158.725 168.187 158.162 169.035 157.451 169.748C156.741 170.462 155.898 171.028 154.97 171.415C154.042 171.801 153.048 172 152.043 172C151.039 172 150.044 171.801 149.117 171.415C148.189 171.028 147.345 170.462 146.635 169.748C145.925 169.035 145.362 168.187 144.977 167.254C144.593 166.322 144.395 165.322 144.395 164.312ZM197.933 156.625C199.961 156.625 201.906 157.435 203.341 158.877C204.775 160.318 205.581 162.274 205.581 164.312C205.581 166.351 204.775 168.307 203.341 169.748C201.906 171.19 199.961 172 197.933 172C195.904 172 193.959 171.19 192.524 169.748C191.09 168.307 190.284 166.351 190.284 164.312C190.284 162.274 191.09 160.318 192.524 158.877C193.959 157.435 195.904 156.625 197.933 156.625Z" fill="#CA7C61"/>
</svg>
