<svg width="165" height="165" viewBox="0 0 165 165" fill="none" xmlns="http://www.w3.org/2000/svg">
<path d="M71.3561 5.22278C77.66 -0.560088 87.34 -0.560088 93.6439 5.22278V5.22278C97.7854 9.02197 103.577 10.4495 109.01 9.01013V9.01013C117.279 6.81924 125.85 11.3177 128.745 19.3678V19.3678C130.646 24.6565 135.111 28.612 140.59 29.8622V29.8622C148.931 31.7652 154.43 39.7316 153.251 48.2047V48.2047C152.477 53.7713 154.593 59.3487 158.863 63.0021V63.0021C165.364 68.563 166.531 78.1724 161.55 85.1274V85.1274C158.277 89.6966 157.558 95.6182 159.642 100.838V100.838C162.814 108.783 159.381 117.834 151.739 121.677V121.677C146.718 124.202 143.329 129.112 142.749 134.702V134.702C141.865 143.21 134.619 149.629 126.066 149.481V149.481C120.447 149.384 115.165 152.156 112.053 156.836V156.836C107.316 163.959 97.9176 166.276 90.4129 162.17V162.17C85.4825 159.472 79.5175 159.472 74.5871 162.17V162.17C67.0824 166.276 57.6838 163.959 52.9469 156.836V156.836C49.835 152.156 44.5532 149.384 38.9339 149.481V149.481C30.3806 149.629 23.1351 143.21 22.2513 134.702V134.702C21.6706 129.112 18.2821 124.202 13.2612 121.677V121.677C5.61873 117.834 2.18617 108.783 5.35784 100.838V100.838C7.44154 95.6182 6.72254 89.6966 3.45026 85.1274V85.1274C-1.53059 78.1724 -0.3638 68.563 6.13676 63.0021V63.0021C10.4074 59.3487 12.5227 53.7713 11.7487 48.2047V48.2047C10.5705 39.7316 16.0693 31.7652 24.4096 29.8622V29.8622C29.8889 28.612 34.3538 24.6565 36.2553 19.3678V19.3678C39.1497 11.3177 47.7209 6.81924 55.9902 9.01013V9.01013C61.4229 10.4495 67.2146 9.02197 71.3561 5.22278V5.22278Z" fill="#CA7C61"/>
</svg>
