<svg width="27" height="27" viewBox="0 0 27 27" fill="none" xmlns="http://www.w3.org/2000/svg">
<path d="M13.7496 0.986642C13.7427 0.857389 13.6383 0.754789 13.5089 0.75016C13.3796 0.745531 13.2681 0.840404 13.252 0.968832C13.0122 2.87681 12.0431 5.68947 10.0798 8.12055C8.12131 10.5457 5.17745 12.5873 0.976655 12.9813C0.850178 12.9932 0.752704 13.098 0.750054 13.225C0.747404 13.352 0.84042 13.4608 0.966292 13.4779C3.25095 13.7888 6.27584 15.0453 8.75461 17.1714C11.2297 19.2943 13.141 22.2663 13.2501 26.0073C13.254 26.1415 13.3633 26.2487 13.4976 26.25C13.6319 26.2513 13.7432 26.1463 13.7497 26.0121C13.851 23.928 14.7948 20.9714 16.7809 18.469C18.7614 15.9736 21.7725 13.9362 26.0163 13.6595C26.1456 13.6511 26.2471 13.5452 26.2499 13.4156C26.2528 13.286 26.1562 13.1757 26.0273 13.1616C24.117 12.9516 21.1483 11.9667 18.6057 9.99743C16.0694 8.03297 13.9697 5.10012 13.7496 0.986642Z" fill="#BDA074" stroke="#BDA074" stroke-width="0.5" stroke-linejoin="round"/>
</svg>
