<svg width="240" height="240" viewBox="0 0 240 240" fill="none" xmlns="http://www.w3.org/2000/svg">
<rect x="0.5" y="0.5" width="239" height="239" rx="119.5" fill="#FFE2D4"/>
<rect x="0.5" y="0.5" width="239" height="239" rx="119.5" stroke="#FFE2D4"/>
<g clip-path="url(#clip0_284_235)">
<path d="M111.747 100.883C115.418 94.2944 117.257 91 120 91C122.743 91 124.582 94.2944 128.253 100.883L129.205 102.588C130.249 104.462 130.771 105.396 131.583 106.01C132.395 106.631 133.415 106.863 135.44 107.321L137.284 107.739C144.418 109.351 147.985 110.157 148.832 112.889C149.684 115.615 147.248 118.457 142.388 124.147L141.129 125.62C139.749 127.233 139.059 128.045 138.751 129.042C138.432 130.04 138.537 131.119 138.751 133.276L138.937 135.237C139.674 142.823 140.039 146.616 137.818 148.304C135.596 149.986 132.261 148.455 125.58 145.381L123.851 144.58C121.955 143.71 121.009 143.27 120 143.27C118.997 143.27 118.045 143.71 116.149 144.58L114.42 145.381C107.739 148.455 104.404 149.992 102.182 148.304C99.961 146.622 100.326 142.823 101.063 135.237L101.249 133.276C101.463 131.119 101.568 130.04 101.249 129.042C100.941 128.045 100.251 127.233 98.8706 125.62L97.612 124.147C92.7516 118.463 90.3156 115.621 91.1682 112.889C92.015 110.163 95.5762 109.351 102.71 107.739L104.56 107.321C106.59 106.857 107.6 106.631 108.417 106.016C109.229 105.396 109.751 104.462 110.795 102.594L111.747 100.883Z" stroke="#CA7C61" stroke-width="3"/>
<path d="M120 62V73.6M120 166.4V178M62 120H73.6M166.4 120H178M85.2 154.8L87.1894 152.811M152.811 87.1894L154.8 85.2M154.8 154.8L152.811 152.811M87.1894 87.1894L85.2 85.2" stroke="#CA7C61" stroke-width="3" stroke-linecap="round"/>
</g>
<defs>
<clipPath id="clip0_284_235">
<rect width="120" height="120" fill="white" transform="translate(60 60)"/>
</clipPath>
</defs>
</svg>
