<svg width="137" height="158" viewBox="0 0 137 158" fill="none" xmlns="http://www.w3.org/2000/svg">
<path d="M43.5208 52.9012L42.7967 79.5936C40.0725 83.1074 36.7139 90.8121 45.0725 93.52H92.8659C96.6591 93.0042 102.611 89.4968 96.0728 79.5936L95.2453 52.9012" stroke="#FEFBF6" stroke-width="2" stroke-linecap="round" stroke-linejoin="round"/>
<path d="M44.9646 42.6714C44.9646 42.6714 47.7035 39.784 52.8528 35.7725C58.002 31.7611 66.7666 23.0599 74.9834 29.0325C82.5549 34.5359 90.4311 40.0862 93.8274 42.6714" stroke="#FEFBF6" stroke-width="2" stroke-linecap="round" stroke-linejoin="round"/>
<rect x="37.8313" y="42.7467" width="62.69" height="10.058" rx="5.02899" stroke="#FEFBF6" stroke-width="2" stroke-linecap="round" stroke-linejoin="round"/>
<path d="M52.442 71.7762C52.1072 71.6695 51.8029 71.5628 51.5289 71.4561C51.255 71.3423 51.0192 71.2071 50.8213 71.0507C50.6235 70.8942 50.4675 70.7092 50.3534 70.4958C50.2469 70.2753 50.1936 70.0086 50.1936 69.6956C50.1936 69.091 50.4409 68.6073 50.9355 68.2445C51.4376 67.8817 52.1377 67.7003 53.0355 67.7003C53.3627 67.7003 53.667 67.7217 53.9485 67.7643C54.2301 67.807 54.4698 67.8746 54.6676 67.9671C54.873 68.0524 55.0328 68.1662 55.1469 68.3085C55.2611 68.4437 55.3181 68.6037 55.3181 68.7886C55.3181 68.9736 55.2725 69.1336 55.1812 69.2688C55.0899 69.3968 54.9795 69.5071 54.8502 69.5996C54.6828 69.5 54.4583 69.4146 54.1768 69.3435C53.8953 69.2652 53.5871 69.2261 53.2523 69.2261C52.9099 69.2261 52.6589 69.2723 52.4991 69.3648C52.3393 69.4502 52.2594 69.5604 52.2594 69.6956C52.2594 69.8023 52.3089 69.8912 52.4078 69.9623C52.5067 70.0263 52.6551 70.0868 52.8529 70.1437L53.4578 70.3251C54.173 70.5385 54.7208 70.8124 55.1013 71.1467C55.4893 71.4739 55.6834 71.922 55.6834 72.4911C55.6834 73.0957 55.4285 73.5865 54.9187 73.9635C54.4089 74.3334 53.6594 74.5184 52.6703 74.5184C52.3203 74.5184 51.9931 74.4899 51.6887 74.433C51.392 74.3832 51.1295 74.3085 50.9012 74.2089C50.6806 74.1022 50.5056 73.9742 50.3762 73.8248C50.2545 73.6683 50.1936 73.4905 50.1936 73.2913C50.1936 73.085 50.2583 72.9108 50.3876 72.7685C50.517 72.6191 50.6577 72.5053 50.8099 72.4271C51.023 72.5836 51.2817 72.7187 51.586 72.8325C51.898 72.9463 52.2366 73.0032 52.6018 73.0032C52.9746 73.0032 53.2371 72.9499 53.3893 72.8432C53.5415 72.7365 53.6176 72.612 53.6176 72.4698C53.6176 72.3275 53.5567 72.2208 53.435 72.1497C53.3132 72.0714 53.142 71.9967 52.9214 71.9256L52.442 71.7762Z" fill="#FEFBF6"/>
<path d="M63.8071 71.9576C63.8071 72.3417 63.7348 72.6938 63.5902 73.0139C63.4533 73.3269 63.2516 73.5972 62.9853 73.8248C62.719 74.0453 62.3956 74.2161 62.0152 74.337C61.6348 74.4579 61.2049 74.5184 60.7255 74.5184C60.2461 74.5184 59.8162 74.4579 59.4358 74.337C59.0554 74.2161 58.732 74.0453 58.4657 73.8248C58.1994 73.5972 57.9939 73.3269 57.8494 73.0139C57.7124 72.6938 57.6439 72.3417 57.6439 71.9576V67.8817C57.7276 67.8675 57.8608 67.8497 58.0434 67.8284C58.226 67.7999 58.401 67.7857 58.5684 67.7857C58.7434 67.7857 58.8956 67.7999 59.0249 67.8284C59.1619 67.8497 59.276 67.8924 59.3673 67.9564C59.4586 68.0204 59.5271 68.1093 59.5728 68.2231C59.6184 68.337 59.6412 68.4863 59.6412 68.6713V71.9256C59.6412 72.267 59.7402 72.5338 59.938 72.7258C60.1434 72.9179 60.4059 73.0139 60.7255 73.0139C61.0527 73.0139 61.3152 72.9179 61.513 72.7258C61.7108 72.5338 61.8098 72.267 61.8098 71.9256V67.8817C61.8934 67.8675 62.0266 67.8497 62.2092 67.8284C62.3918 67.7999 62.5668 67.7857 62.7342 67.7857C62.9092 67.7857 63.0614 67.7999 63.1908 67.8284C63.3277 67.8497 63.4418 67.8924 63.5331 67.9564C63.6245 68.0204 63.6929 68.1093 63.7386 68.2231C63.7842 68.337 63.8071 68.4863 63.8071 68.6713V71.9576Z" fill="#FEFBF6"/>
<path d="M72.4362 73.2913C72.4362 73.5118 72.3943 73.6754 72.3106 73.7821C72.2269 73.8888 72.0938 73.992 71.9112 74.0916C71.8046 74.1485 71.6715 74.2054 71.5117 74.2623C71.3519 74.3121 71.1769 74.3548 70.9867 74.3903C70.7965 74.433 70.5948 74.465 70.3818 74.4864C70.1763 74.5077 69.9709 74.5184 69.7655 74.5184C69.2176 74.5184 68.704 74.4508 68.2247 74.3156C67.7453 74.1734 67.3268 73.9635 66.9692 73.6861C66.6192 73.4016 66.3415 73.0495 66.1361 72.6298C65.9306 72.2101 65.8279 71.7229 65.8279 71.168C65.8279 70.5847 65.9382 70.0761 66.1589 69.6422C66.3872 69.2083 66.6839 68.8491 67.0491 68.5646C67.422 68.2729 67.8442 68.056 68.316 67.9137C68.7953 67.7714 69.2861 67.7003 69.7883 67.7003C70.5111 67.7003 71.0818 67.8106 71.5003 68.0311C71.9264 68.2445 72.1394 68.5255 72.1394 68.874C72.1394 69.0589 72.09 69.219 71.991 69.3541C71.8921 69.4893 71.778 69.596 71.6487 69.6742C71.4584 69.5675 71.2188 69.4644 70.9296 69.3648C70.6481 69.2581 70.3285 69.2048 69.9709 69.2048C69.3318 69.2048 68.822 69.3755 68.4415 69.7169C68.0687 70.0584 67.8823 70.5314 67.8823 71.136C67.8823 71.4632 67.9317 71.7478 68.0307 71.9896C68.1372 72.2243 68.278 72.42 68.453 72.5764C68.628 72.7258 68.8296 72.8396 69.0579 72.9179C69.2861 72.989 69.5296 73.0246 69.7883 73.0246C69.9557 73.0246 70.1041 73.0104 70.2334 72.9819C70.3628 72.9535 70.4617 72.9214 70.5302 72.8859V71.8829H69.3089C69.2633 71.8047 69.2176 71.7015 69.172 71.5735C69.1339 71.4454 69.1149 71.3103 69.1149 71.168C69.1149 70.9119 69.1758 70.727 69.2975 70.6132C69.4269 70.4994 69.5905 70.4425 69.7883 70.4425H71.7171C71.9454 70.4425 72.1204 70.5029 72.2421 70.6239C72.3715 70.7377 72.4362 70.9013 72.4362 71.1147V73.2913Z" fill="#FEFBF6"/>
<path d="M76.2462 68.0738C76.3756 68.0026 76.5696 67.9351 76.8283 67.871C77.0946 67.807 77.3609 67.775 77.6272 67.775C78.0076 67.775 78.3424 67.8284 78.6316 67.9351C78.9283 68.0346 79.1185 68.1947 79.2022 68.4152C79.3392 68.7851 79.4876 69.2154 79.6473 69.7063C79.8071 70.1971 79.9669 70.7057 80.1267 71.232C80.2865 71.7513 80.4425 72.267 80.5946 72.7792C80.7468 73.2842 80.88 73.7324 80.9941 74.1236C80.9028 74.2232 80.7658 74.3014 80.5832 74.3583C80.4006 74.4223 80.1838 74.4543 79.9327 74.4543C79.7501 74.4543 79.5941 74.4401 79.4647 74.4117C79.343 74.3832 79.2403 74.3405 79.1566 74.2836C79.0805 74.2267 79.0158 74.152 78.9626 74.0596C78.9169 73.9671 78.8751 73.8604 78.837 73.7395L78.6316 73.0032H76.5658C76.5049 73.2166 76.444 73.4372 76.3832 73.6648C76.3223 73.8924 76.2614 74.1129 76.2006 74.3263C76.094 74.3619 75.9799 74.3903 75.8582 74.4117C75.744 74.4401 75.6033 74.4543 75.4359 74.4543C75.0478 74.4543 74.7587 74.3939 74.5685 74.273C74.3859 74.1449 74.2946 73.9706 74.2946 73.7501C74.2946 73.6505 74.3098 73.551 74.3402 73.4514C74.3706 73.3518 74.4049 73.2344 74.4429 73.0993C74.4962 72.9072 74.5685 72.6689 74.6598 72.3844C74.7587 72.0999 74.8652 71.794 74.9793 71.4668C75.0935 71.1325 75.2152 70.791 75.3446 70.4425C75.4739 70.0939 75.5957 69.7667 75.7098 69.4608C75.8239 69.1479 75.9266 68.8704 76.0179 68.6286C76.1169 68.3867 76.1929 68.2018 76.2462 68.0738ZM77.6158 69.4502C77.5093 69.7489 77.3875 70.0833 77.2506 70.4531C77.1212 70.8159 77.0033 71.1858 76.8968 71.5628H78.312C78.2055 71.1787 78.0952 70.8052 77.981 70.4425C77.8745 70.0726 77.7756 69.7418 77.6843 69.4502H77.6158Z" fill="#FEFBF6"/>
<path d="M84.8284 72.2564V74.305C84.7447 74.3263 84.6116 74.3476 84.4289 74.369C84.2539 74.3903 84.0789 74.401 83.9039 74.401C83.7289 74.401 83.573 74.3868 83.436 74.3583C83.3066 74.337 83.1963 74.2943 83.105 74.2303C83.0213 74.1663 82.9566 74.0773 82.911 73.9635C82.8653 73.8497 82.8425 73.7003 82.8425 73.5154V68.4899C82.8425 68.3405 82.8844 68.2267 82.9681 68.1485C83.0594 68.0631 83.1811 67.9955 83.3333 67.9457C83.592 67.8604 83.8925 67.7999 84.2349 67.7643C84.5773 67.7217 84.9425 67.7003 85.3306 67.7003C86.3806 67.7003 87.1719 67.9066 87.7045 68.3192C88.2372 68.7317 88.5035 69.2901 88.5035 69.9943C88.5035 70.4354 88.3817 70.8124 88.1382 71.1253C87.8948 71.4383 87.6056 71.6802 87.2708 71.8509C87.5448 72.1994 87.8149 72.5267 88.0812 72.8325C88.3475 73.1384 88.5567 73.4158 88.7089 73.6648C88.6328 73.9137 88.492 74.1058 88.2866 74.2409C88.0888 74.369 87.8643 74.433 87.6132 74.433C87.4458 74.433 87.3013 74.4152 87.1795 74.3797C87.0578 74.3441 86.9513 74.2943 86.86 74.2303C86.7687 74.1663 86.685 74.088 86.6089 73.9955C86.5328 73.9031 86.4605 73.8035 86.392 73.6968L85.4333 72.2564H84.8284ZM85.5474 70.8373C85.8366 70.8373 86.0648 70.7697 86.2322 70.6345C86.3996 70.4923 86.4833 70.286 86.4833 70.0157C86.4833 69.7454 86.3882 69.5426 86.198 69.4075C86.0154 69.2652 85.7224 69.1941 85.3192 69.1941C85.205 69.1941 85.1137 69.1977 85.0453 69.2048C84.9768 69.2119 84.9007 69.2226 84.817 69.2368V70.8373H85.5474Z" fill="#FEFBF6"/>
<circle cx="68.8313" cy="60" r="59" stroke="#FEFBF6" stroke-width="2"/>
<path d="M20.7313 149.54H30.6513V143.96H20.7313V149.54ZM30.6513 137.1H20.7313V142.5H30.6513V137.1ZM19.2313 135.64H32.2113V152.22H30.6513V151H20.7313V152.3H19.2313V135.64ZM55.9113 139.94H49.7313C51.1713 143.32 53.6913 146.48 56.4513 148.04C56.0713 148.36 55.5513 148.9 55.3113 149.3C52.3513 147.44 49.7713 143.84 48.2713 139.94H47.9913V147.32H52.6313V148.8H47.9913V152.52H46.4513V148.8H41.8113V147.32H46.4513V139.94H46.1313C44.5913 143.84 42.0113 147.4 39.1313 149.36C38.8913 149 38.4113 148.46 38.0713 148.18C40.7113 146.56 43.1713 143.32 44.6313 139.94H38.5913V138.46H46.4513V134.28H47.9913V138.46H55.9113V139.94ZM68.9513 150.1H77.7513V151.58H59.9313V150.1H67.3913V134.58H68.9513V140.7H76.3913V142.18H68.9513V150.1ZM84.8313 149.6H95.9913V144.94H84.8313V149.6ZM95.9913 138.94H84.8313V143.48H95.9913V138.94ZM89.8713 137.46H97.5313V152.44H95.9913V151.08H84.8313V152.54H83.3713V137.46H88.2513C88.6913 136.44 89.1113 135.14 89.3513 134.2L91.1913 134.54C90.8113 135.52 90.3313 136.58 89.8713 137.46ZM108.411 135.52L109.571 135.86C109.111 137.28 108.571 139.04 108.111 140.1L107.231 139.8C107.631 138.7 108.171 136.82 108.411 135.52ZM105.091 139.78L104.051 140.02C103.891 138.88 103.491 137.12 103.111 135.78L104.071 135.56C104.491 136.9 104.911 138.64 105.091 139.78ZM104.511 143.56L105.411 143.84C105.051 145.94 104.251 148.74 103.351 150.18C103.211 149.78 102.911 149.22 102.671 148.88C103.411 147.68 104.191 145.34 104.511 143.56ZM109.171 142.34H106.831V152.52H105.611V142.34H102.971V140.94H105.611V134.28H106.831V140.94H109.171V142.34ZM109.511 146.9L108.531 147.88C108.251 146.96 107.371 144.8 107.011 144.06L107.791 143.54C108.091 144.04 109.251 146.34 109.511 146.9ZM116.751 144.26H118.851V142.84H116.751V144.26ZM116.751 140.34V141.76H118.851V140.34H116.751ZM118.971 150.58V147.96H113.731V150.58H118.971ZM120.111 139.24V141.66H121.171V142.94H120.111V145.36H116.751V146.74H120.311V152.48H118.971V151.74H113.731V152.52H112.451V146.74H115.431V145.36H112.311V144.26H115.431V142.84H111.711V141.76H115.431V140.34H112.371V139.24H115.431V137.92H116.751V139.24H120.111ZM116.771 136.36H121.171V137.66H111.631V142.04C111.631 145.14 111.311 149.5 109.251 152.46C109.011 152.2 108.471 151.82 108.131 151.7C110.091 148.86 110.311 144.94 110.311 142.04V136.36H115.171C114.991 135.76 114.771 135.06 114.551 134.52L116.011 134.22C116.291 134.88 116.591 135.74 116.771 136.36Z" fill="#FEFBF6"/>
</svg>
