<svg width="137" height="158" viewBox="0 0 137 158" fill="none" xmlns="http://www.w3.org/2000/svg">
<path d="M68.4915 77.1726C53.1151 78.102 52.2984 67.9848 53.8121 62.81C67.0764 59.5151 69.1252 71.0122 68.4915 77.1726ZM68.4915 77.1726C63.1689 74.0467 60.6414 69.6041 60.0429 67.7736" stroke="#FEFBF6" stroke-width="2" stroke-linejoin="round"/>
<path d="M68.5512 77.2824C67.6219 61.906 77.7391 61.0893 82.9138 62.603C86.2088 75.8673 74.7117 77.916 68.5512 77.2824ZM68.5512 77.2824C71.6772 71.9598 76.1198 69.4323 77.9503 68.8338" stroke="#FEFBF6" stroke-width="2" stroke-linejoin="round"/>
<path d="M58.7886 85.6933C34.5412 85.4398 29.0998 65.4855 29.5223 56.0513H107.672C103.849 87.9463 89.2046 86.0112 58.7886 85.6933Z" stroke="#FEFBF6" stroke-width="2" stroke-linejoin="round"/>
<path d="M34.8025 56.0512C40.7517 48.6939 55.8606 34.1905 68.7024 35.0354C81.5443 35.8802 96.7236 49.398 102.708 56.0512" stroke="#FEFBF6" stroke-width="2" stroke-linejoin="round"/>
<circle cx="68.5" cy="60" r="59" stroke="#FEFBF6" stroke-width="2"/>
<path d="M20.16 140.06H16.42V141.64H20.16V140.06ZM20.16 144.32V142.78H16.42V144.32H20.16ZM20.3 150.56V148.18H11.54V150.56H20.3ZM23.3 137.42H16.42V138.94H21.58V141.64H23.26V142.78H21.58V145.44H16.42V147.04H21.82V152.56H20.3V151.72H11.54V152.56H10.06V147.04H15V145.44H10.06V144.32H15V142.78H8.78V141.64H15V140.06H10.18V138.94H15V137.42H8.36V141.98C8.36 145.08 8.1 149.6 6.42 152.62C6.16 152.36 5.54 151.96 5.22 151.82C6.78 148.94 6.94 144.88 6.94 141.98V136.1H15.12C14.9 135.56 14.6 134.92 14.32 134.4L15.72 134C16.12 134.64 16.52 135.48 16.74 136.1H23.3V137.42ZM29.08 137.36V139.46H27.72V136.12H35.32C35.1 135.62 34.82 135.04 34.58 134.6L36.08 134.14C36.46 134.74 36.86 135.52 37.12 136.12H44.46V139.46H43.06V137.36H29.08ZM32.56 138.52H33.88V140.3C33.88 140.72 34.04 140.78 34.92 140.78H38.12C38.74 140.78 38.86 140.64 38.94 139.54C39.22 139.74 39.7 139.86 40.06 139.94C39.92 141.4 39.54 141.78 38.28 141.78H34.8C33.04 141.78 32.56 141.52 32.56 140.3V138.52ZM38.02 138.96L37.22 139.84C36.5 139.3 35.2 138.62 34.14 138.24L34.92 137.46C36 137.82 37.32 138.46 38.02 138.96ZM43.16 141.16L42.08 141.82C41.64 140.96 40.6 139.66 39.64 138.74L40.66 138.12C41.62 139 42.7 140.26 43.16 141.16ZM29.86 142.26L28.8 141.46C29.68 140.74 30.48 139.44 30.96 138.44L32.06 139C31.56 140.04 30.78 141.42 29.86 142.26ZM28.98 148.76V147.62H43.34V148.76H36.86V150.98C36.86 151.76 36.68 152.14 36.02 152.36C35.36 152.56 34.3 152.54 32.66 152.54C32.6 152.14 32.38 151.64 32.2 151.26C33.46 151.3 34.64 151.28 34.98 151.28C35.3 151.26 35.4 151.2 35.4 150.94V148.76H28.98ZM30.64 143.64V145.46H33.52V143.64H30.64ZM37.56 143.64H34.64V145.46H37.56V143.64ZM41.62 143.64H38.66V145.46H41.62V143.64ZM42.96 145.46H44.7V146.56H27.48V145.46H29.34V142.64H42.96V145.46ZM53.26 134.32L54.68 134.66C54.16 136.4 53.44 138.1 52.64 139.66V152.56H51.18V142.1C50.62 142.92 50 143.66 49.36 144.32C49.18 144 48.72 143.32 48.44 143.02C50.54 140.96 52.26 137.72 53.26 134.32ZM56.5 150.08H63.76V145.36H56.5V150.08ZM63.76 139.28H56.5V143.9H63.76V139.28ZM59.8 137.88H65.26V152.34H63.76V151.56H56.5V152.48H55.04V137.88H58.28C58.7 136.76 59.1 135.32 59.34 134.26L61.06 134.54C60.68 135.64 60.22 136.88 59.8 137.88ZM86.18 134.24L87.04 135.32C83.06 135.96 76.68 136.34 71.44 136.44C71.42 136.1 71.28 135.62 71.16 135.32C76.36 135.22 82.7 134.82 86.18 134.24ZM77.84 136.48L79.06 136.2C79.5 136.82 79.88 137.64 79.98 138.18L78.7 138.5C78.6 137.96 78.22 137.1 77.84 136.48ZM73 139.54V141.3H76.18V139.54H73ZM77.56 139.54V141.3H80.84V139.54H77.56ZM82.22 139.54V141.3H85.56V139.54H82.22ZM71.6 142.34V138.5H74.06C73.84 138 73.4 137.3 72.98 136.8L74.18 136.42C74.64 136.96 75.14 137.7 75.32 138.2L74.44 138.5H82.68C83.28 137.78 84 136.68 84.38 135.92L85.72 136.4C85.22 137.12 84.62 137.9 84.12 138.5H87.02V142.34H71.6ZM77.22 145.3V144.24H73.28V145.3H77.22ZM73.28 147.4H77.22V146.28H73.28V147.4ZM75.74 148.96L76.84 148.44C77.96 149.48 79.22 150.96 79.76 152L78.58 152.6C78.36 152.16 78.02 151.64 77.62 151.08C72.5 152.14 71.84 152.3 71.46 152.54C71.34 152.2 71.02 151.62 70.76 151.34C71.18 151.14 71.82 150.68 71.82 149.84V143.22H72.54V143.2H78.6V148.44H73.28V150.82L76.82 150.12C76.48 149.72 76.1 149.32 75.74 148.96ZM88.32 144.56V145.82H85.94V150.72C85.94 151.52 85.76 151.86 85.18 152.08C84.58 152.3 83.62 152.32 82.08 152.32C82 151.94 81.78 151.42 81.58 151.06C82.76 151.1 83.84 151.1 84.12 151.08C84.44 151.06 84.54 150.98 84.54 150.72V145.82H79.2V144.56H84.54V142.76H85.94V144.56H88.32ZM83.02 149.44L81.82 149.94C81.5 149.16 80.7 147.94 79.94 147.06L81.08 146.6C81.86 147.44 82.68 148.64 83.02 149.44ZM104.3 139.6V137.66H101.4V136.32H104.3V134.28H105.76V136.32H109.64V137.66H105.76V139.6H104.3ZM96.24 139.6V137.68H92.04V136.32H96.24V134.28H97.7V136.32H100.26V137.68H97.7V139.6H96.24ZM100.78 138.44L102.16 138.98C102.02 139.14 101.88 139.32 101.74 139.5C103.74 141.12 107.24 142.76 110.1 143.48C109.78 143.78 109.34 144.36 109.16 144.72C106.42 143.88 103.12 142.2 100.92 140.38C98.92 142.34 96.02 143.78 92.76 144.82C92.58 144.5 92.14 143.92 91.84 143.66C95.72 142.52 99.16 140.72 100.78 138.44ZM96.6 147.28L98.04 147.72C96.92 149.28 95.06 150.74 93.42 151.66C93.14 151.38 92.54 150.9 92.18 150.68C93.84 149.86 95.62 148.64 96.6 147.28ZM107.58 146.44H101.64V152.54H100.12V146.44H94.08V145.06H100.12V142.52H101.64V145.06H107.58V146.44ZM103.42 147.96L104.52 147.16C106.2 148.22 108.26 149.78 109.28 150.84L108.12 151.76C107.14 150.68 105.12 149.04 103.42 147.96ZM119.96 135.48L121.28 135.82C120.76 137.3 120.14 139.16 119.6 140.28L118.6 139.96C119.08 138.8 119.66 136.82 119.96 135.48ZM115.92 139.92L114.74 140.22C114.64 139.04 114.2 137.2 113.66 135.8L114.74 135.54C115.32 136.92 115.78 138.76 115.92 139.92ZM115.32 143.5L116.32 143.86C115.88 146.04 114.96 148.8 113.86 150.22C113.72 149.74 113.36 149.08 113.14 148.66C114.02 147.5 114.94 145.28 115.32 143.5ZM120.74 142.34H118.02V152.54H116.62V142.34H113.52V140.94H116.62V134.28H118.02V140.94H120.74V141.62C122.02 140.08 122.84 137.84 123.26 135.4L124.66 135.62C124.1 138.58 123.06 141.18 121.54 142.92C121.4 142.72 121.04 142.4 120.74 142.14V142.34ZM118.28 144.08L119.06 143.52C119.46 144.06 120.84 146.62 121.16 147.24L120.14 148.32C119.76 147.32 118.68 144.86 118.28 144.08ZM125.26 134.92H128.8C129.24 137.86 130.32 140.58 131.82 141.96C131.48 142.2 130.94 142.72 130.68 143.08C130.54 142.94 130.4 142.78 130.28 142.62C130.28 142.76 130.28 142.96 130.26 143.08C129.98 148.92 129.7 150.98 129.12 151.68C128.78 152.12 128.44 152.26 127.88 152.3C127.4 152.36 126.54 152.36 125.66 152.3C125.64 151.9 125.5 151.34 125.28 150.96C126.14 151.04 126.9 151.06 127.24 151.06C127.56 151.06 127.7 151.02 127.88 150.8C128.28 150.36 128.58 148.56 128.78 143.8H125.6C125.16 147.9 124.06 150.74 121.5 152.6C121.34 152.32 120.82 151.76 120.54 151.54C122.86 149.98 123.84 147.4 124.18 143.8H122V142.42H130.12C128.98 140.88 128.12 138.68 127.68 136.28H125.26V134.92Z" fill="#FEFBF6"/>
</svg>
