<svg width="266" height="249" viewBox="0 0 266 249" fill="none" xmlns="http://www.w3.org/2000/svg">
<path d="M265.897 149.018C263.675 197.155 224.512 236.237 176.326 238.456C162.27 239.115 148.245 236.619 135.281 231.153C122.318 225.686 110.747 217.386 101.419 206.865C92.0907 196.344 85.2428 183.869 81.3788 170.356C77.5148 156.844 76.733 142.639 79.0909 128.785C81.1891 129.872 83.5196 130.436 85.8833 130.429C88.4893 130.383 91.0405 129.675 93.2967 128.372C95.5528 127.069 97.4395 125.214 98.7788 122.981C100.118 120.748 100.866 118.212 100.952 115.61C101.038 113.009 100.459 110.429 99.2703 108.112C99.8314 108.182 100.396 108.215 100.962 108.211C102.956 108.197 104.928 107.791 106.765 107.016C108.602 106.241 110.268 105.112 111.669 103.693C113.069 102.275 114.175 100.595 114.925 98.7499C115.676 96.9045 116.054 94.9296 116.04 92.9381C116.039 90.4957 115.46 88.0881 114.349 85.9124H114.547C117.314 85.8656 120.017 85.0719 122.369 83.6156C124.721 82.1593 126.635 80.0945 127.908 77.6402C129.181 75.1859 129.765 72.4334 129.598 69.6745C129.432 66.9157 128.521 64.2532 126.962 61.9694C141.631 54.0238 158.152 50.1146 174.832 50.6423C191.511 51.17 207.751 56.1156 221.887 64.9726C236.024 73.8295 247.549 86.2795 255.282 101.048C263.015 115.816 266.678 132.371 265.897 149.018Z" fill="#EDE4D8"/>
<path d="M202.493 212.338L199.444 213.974L186.108 202.734L185.993 202.796L187.941 220.146L184.816 221.823L181.597 188.611L184.55 187.026L185.648 198.388L202.493 212.338Z" fill="#BA9E72"/>
<path d="M160.103 206.89C161.145 206.644 162.107 206.535 162.991 206.563C163.874 206.592 164.681 206.735 165.411 206.993C166.127 207.254 166.77 207.615 167.34 208.074C167.913 208.548 168.406 209.092 168.82 209.708C169.137 210.167 169.41 210.69 169.638 211.275C169.866 211.86 170.065 212.511 170.236 213.229L173.157 225.532L169.886 226.307L166.969 214.024C166.705 212.913 166.337 212.019 165.865 211.344C165.326 210.579 164.626 210.039 163.763 209.724C162.89 209.425 161.869 209.414 160.701 209.691C159.463 209.984 158.535 210.486 157.916 211.197C157.283 211.912 156.911 212.758 156.802 213.735C156.726 214.481 156.809 215.36 157.049 216.373L159.965 228.655L156.694 229.43L153.768 217.106C153.607 216.43 153.499 215.787 153.443 215.176C153.377 214.583 153.369 214.02 153.421 213.488C153.511 212.738 153.711 212.015 154.021 211.317C154.32 210.637 154.743 210.009 155.29 209.434C155.837 208.859 156.513 208.357 157.318 207.929C158.105 207.489 159.034 207.143 160.103 206.89Z" fill="#BA9E72"/>
<path d="M126.084 209.462L129.445 209.741L128.34 222.989C128.266 223.886 128.303 224.653 128.454 225.291C128.589 225.943 128.827 226.487 129.169 226.923C129.497 227.357 129.913 227.69 130.418 227.922C130.908 228.152 131.471 228.293 132.107 228.346C133.307 228.446 134.426 228.211 135.463 227.643C136.499 227.088 137.454 226.28 138.329 225.217L139.549 210.581L142.91 210.861L141.192 231.459L138.591 231.243L138.179 228.327L138.114 228.321C137.698 228.767 137.257 229.174 136.789 229.543C136.306 229.925 135.784 230.246 135.224 230.505C134.648 230.777 134.028 230.973 133.363 231.092C132.698 231.212 131.983 231.239 131.216 231.176C129.684 231.048 128.443 230.574 127.492 229.753C126.542 228.931 125.845 227.862 125.402 226.544L125.315 226.537C124.297 227.747 123.173 228.666 121.942 229.291C120.709 229.931 119.313 230.186 117.751 230.056C117.029 229.996 116.271 229.831 115.478 229.561C114.686 229.292 113.973 228.854 113.339 228.248C112.704 227.657 112.202 226.865 111.834 225.874C111.465 224.883 111.344 223.636 111.469 222.132L112.619 208.342L115.958 208.62L114.853 221.868C114.779 222.764 114.817 223.531 114.967 224.17C115.102 224.821 115.341 225.365 115.683 225.801C116.01 226.236 116.426 226.569 116.931 226.8C117.421 227.03 117.985 227.172 118.621 227.224C119.82 227.324 120.946 227.09 121.998 226.523C123.034 225.969 123.989 225.16 124.864 224.098L126.084 209.462Z" fill="#BA9E72"/>
<path d="M90.3463 197.867L93.3487 199.383L87.3598 211.212C86.9547 212.012 86.702 212.735 86.6018 213.381C86.4821 214.034 86.4987 214.626 86.6515 215.157C86.7914 215.681 87.0512 216.145 87.4312 216.547C87.7982 216.943 88.2658 217.284 88.834 217.571C89.9058 218.113 91.0278 218.314 92.1999 218.177C93.3655 218.053 94.5518 217.663 95.7588 217.008L102.375 203.941L105.377 205.457L96.0657 223.848L93.7413 222.674L94.454 219.826L94.3959 219.796C93.8446 220.053 93.2837 220.264 92.7133 220.429C92.1235 220.602 91.5211 220.703 90.9061 220.732C90.2716 220.769 89.6246 220.717 88.9651 220.579C88.3056 220.44 87.6336 220.198 86.9492 219.853C85.5804 219.162 84.6107 218.259 84.04 217.144C83.4694 216.029 83.2262 214.78 83.3105 213.397L83.2331 213.358C81.8379 214.096 80.454 214.523 79.0813 214.64C77.7021 214.77 76.3152 214.483 74.9206 213.779C74.2749 213.453 73.6362 213.017 73.0046 212.471C72.3729 211.926 71.8778 211.254 71.5192 210.457C71.154 209.673 70.9869 208.754 71.0179 207.7C71.0489 206.647 71.4041 205.449 72.0837 204.106L78.3176 191.794L81.3006 193.3L75.3117 205.128C74.9066 205.929 74.6539 206.652 74.5537 207.298C74.4341 207.951 74.4506 208.542 74.6034 209.073C74.7433 209.598 75.0032 210.061 75.3831 210.464C75.7501 210.86 76.2177 211.201 76.7859 211.488C77.8577 212.029 78.9861 212.234 80.1712 212.103C81.3368 211.979 82.5231 211.589 83.7302 210.935L90.3463 197.867Z" fill="#BA9E72"/>
<path d="M60.1653 202.325L57.7074 199.905L64.5017 183.914L64.409 183.823L48.4323 190.773L45.9125 188.292L76.6456 175.474L79.0262 177.817L68.5114 182.2L60.1653 202.325Z" fill="#BA9E72"/>
<path d="M31.2779 166.364L29.9174 163.183L42.3029 150.922L42.2515 150.802L24.7833 151.181L23.3885 147.92L56.7812 147.703L58.099 150.784L46.6756 150.854L31.2779 166.364Z" fill="#BA9E72"/>
<path d="M40.2909 124.67C40.4492 125.732 40.4767 126.703 40.3734 127.583C40.2701 128.464 40.0585 129.258 39.7387 129.965C39.4167 130.659 39.002 131.27 38.4944 131.8C37.9725 132.332 37.3864 132.779 36.7363 133.14C36.2497 133.417 35.7044 133.645 35.1003 133.823C34.4962 134.001 33.8283 134.144 33.0966 134.253L20.5497 136.119L20.0523 132.783L32.5776 130.92C33.7111 130.752 34.6355 130.46 35.351 130.046C36.1605 129.574 36.7597 128.92 37.1484 128.085C37.5207 127.238 37.6181 126.219 37.4405 125.028C37.2523 123.765 36.8288 122.795 36.1702 122.115C35.5095 121.422 34.6954 120.978 33.728 120.785C32.9886 120.645 32.1024 120.652 31.0694 120.806L18.5441 122.669L18.0467 119.333L30.615 117.464C31.3037 117.362 31.9557 117.309 32.5712 117.305C33.1701 117.289 33.7335 117.33 34.2613 117.428C35.0029 117.581 35.7091 117.843 36.3802 118.213C37.0348 118.57 37.6265 119.046 38.1553 119.642C38.6841 120.238 39.1286 120.957 39.4886 121.798C39.8609 122.622 40.1283 123.58 40.2909 124.67Z" fill="#BA9E72"/>
<path d="M40.895 90.5834L40.3167 93.906L27.2185 91.6325C26.3324 91.4787 25.5647 91.4485 24.9153 91.5419C24.2542 91.6185 23.6912 91.8079 23.2264 92.11C22.764 92.3978 22.3952 92.7828 22.1198 93.265C21.847 93.7329 21.6559 94.2813 21.5464 94.9101C21.34 96.0962 21.4738 97.2309 21.9478 98.3143C22.4074 99.3952 23.1275 100.418 24.1079 101.383L38.5781 103.895L37.9998 107.217L17.6344 103.683L18.0821 101.11L21.0238 100.958L21.0349 100.894C20.628 100.441 20.2617 99.9649 19.9362 99.4668C19.5988 98.9518 19.3261 98.4039 19.118 97.8231C18.8981 97.2255 18.7584 96.5903 18.6988 95.9174C18.6392 95.2446 18.6754 94.5295 18.8072 93.7721C19.0708 92.2573 19.6541 91.063 20.5571 90.1892C21.4601 89.3154 22.5877 88.7161 23.9398 88.3914L23.9548 88.3056C22.8395 87.1846 22.0253 85.9833 21.5122 84.7017C20.9848 83.4177 20.8554 82.004 21.124 80.4606C21.2484 79.7461 21.4803 79.0061 21.8196 78.2405C22.159 77.475 22.6587 76.8036 23.3186 76.2262C23.9643 75.6463 24.7973 75.2167 25.8177 74.9374C26.838 74.6582 28.0914 74.6475 29.5777 74.9055L43.2118 77.272L42.6373 80.573L29.5391 78.2996C28.653 78.1458 27.8853 78.1156 27.2359 78.209C26.5748 78.2856 26.0118 78.475 25.5469 78.7771C25.0846 79.0649 24.7157 79.4499 24.4404 79.9321C24.1676 80.4 23.9764 80.9484 23.867 81.5771C23.6606 82.7632 23.7931 83.9051 24.2646 85.0028C24.7243 86.0837 25.4444 87.1067 26.4248 88.0719L40.895 90.5834Z" fill="#BA9E72"/>
<path d="M55.5798 55.9587L53.7989 58.8226L42.5009 51.8163C41.7367 51.3424 41.0359 51.0272 40.3985 50.871C39.7566 50.6947 39.1634 50.6597 38.6191 50.7659C38.0824 50.8598 37.5961 51.0788 37.1601 51.4229C36.7318 51.7546 36.3491 52.1915 36.012 52.7335C35.3763 53.7558 35.0753 54.8578 35.1092 56.0395C35.1307 57.2134 35.4154 58.4311 35.9633 59.6926L48.4447 67.4327L46.6638 70.2966L29.0974 59.4031L30.4762 57.1859L33.2617 58.1452L33.2961 58.0898C33.0885 57.5172 32.927 56.9392 32.8116 56.3556C32.6916 55.752 32.6438 55.1421 32.6684 54.5258C32.6883 53.8896 32.7966 53.2484 32.9933 52.6024C33.1901 51.9564 33.4915 51.3069 33.8974 50.6541C34.7094 49.3484 35.6978 48.4594 36.8627 47.987C38.0275 47.5146 39.2979 47.3807 40.6738 47.5854L40.7197 47.5115C40.1052 46.0551 39.8 44.6369 39.804 43.2569C39.7958 41.8693 40.2053 40.5104 41.0326 39.18C41.4155 38.5641 41.9078 37.9648 42.5093 37.382C43.1109 36.7993 43.8259 36.3637 44.6543 36.0752C45.4704 35.7791 46.404 35.6924 47.4551 35.8151C48.5061 35.9378 49.6727 36.3967 50.9547 37.1917L62.7149 44.4847L60.9455 47.3301L49.6476 40.3238C48.8833 39.8498 48.1825 39.5347 47.5452 39.3785C46.9032 39.2022 46.31 39.1672 45.7657 39.2734C45.2291 39.3673 44.7427 39.5863 44.3067 39.9304C43.8784 40.2621 43.4957 40.699 43.1586 41.241C42.5229 42.2633 42.2181 43.3715 42.2443 44.5654C42.2658 45.7394 42.5505 46.9571 43.0984 48.2185L55.5798 55.9587Z" fill="#BA9E72"/>
<path d="M53.7279 25.5867L56.3586 23.3398L71.7842 31.4832L71.8834 31.3984L66.286 14.861L68.9829 12.5576L79.199 44.3222L76.651 46.4985L73.1593 35.6311L53.7279 25.5867Z" fill="#BA9E72"/>
<path d="M120.322 16.7606C121.384 16.6708 122.454 16.6349 123.516 16.5989C126.404 16.5001 129.301 16.5181 132.189 16.5989C136.465 16.7307 140.729 17.0481 144.982 17.5512C150.179 18.1665 155.339 19.0662 160.438 20.2465C166.197 21.5474 171.855 23.2587 177.37 25.3675C183.252 27.6153 188.909 30.4129 194.265 33.7229C199.915 37.2169 205.13 41.3665 209.802 46.0852C214.823 51.2033 219.124 56.9791 222.587 63.2541C226.488 70.3892 229.399 78.0208 231.241 85.9393C233.436 95.4938 234.499 105.273 234.408 115.075C234.408 117.824 234.309 120.574 234.165 123.314C234.102 124.464 235.893 124.464 235.965 123.314C236.594 112.898 236.063 102.446 234.381 92.1474C232.976 83.6846 230.459 75.4438 226.896 67.6384C223.777 60.867 219.741 54.555 214.903 48.8793C210.423 43.6634 205.309 39.0248 199.681 35.0705C194.397 31.3525 188.748 28.1798 182.821 25.6011C177.219 23.1493 171.435 21.1338 165.521 19.5727C160.165 18.1589 154.731 17.0609 149.246 16.2845C144.634 15.6196 139.998 15.1644 135.337 14.9189C132.018 14.7392 128.68 14.6673 125.351 14.7302C123.777 14.7302 122.157 14.7302 120.583 14.9189H120.376C119.233 15.0177 119.224 16.8055 120.376 16.7157L120.322 16.7606Z" fill="#BA9E72"/>
</svg>
